<?xml version="1.0" encoding="UTF-8" standalone="no"?>
<svg
   version="1.1"
   width="1213"
   height="1300.6394"
   id="svg1586"
   sodipodi:docname="ac564eb8e0413d6c212acc3f50066e4d.svg"
   xmlns:inkscape="http://www.inkscape.org/namespaces/inkscape"
   xmlns:sodipodi="http://sodipodi.sourceforge.net/DTD/sodipodi-0.dtd"
   xmlns="http://www.w3.org/2000/svg"
   xmlns:svg="http://www.w3.org/2000/svg">
  <defs
     id="defs1590" />
  <sodipodi:namedview
     id="namedview1588"
     pagecolor="#ffffff"
     bordercolor="#666666"
     borderopacity="1.0"
     inkscape:pageshadow="2"
     inkscape:pageopacity="0.0"
     inkscape:pagecheckerboard="0" />
  <path
     d="m 624.1875,5.159649 c 1.29949,0.4545433 2.59913,0.9086364 3.89893,1.3623047 3.9747,1.3901942 7.94459,2.7937712 11.91357,4.2001953 1.71389,0.606423 1.71389,0.606423 3.4624,1.225098 10.73592,3.805316 21.45559,7.655291 32.16339,11.53894 3.58872,1.30087 7.17871,2.598184 10.7688,3.895264 1.77178,0.641327 3.54291,1.284462 5.31336,1.929443 2.48254,0.904375 4.96713,1.802915 7.45221,2.700317 0.74867,0.27448 1.49735,0.54896 2.26872,0.831757 2.99044,1.074541 5.36741,1.879181 8.57112,1.879181 0,0.66 0,1.32 0,2 0.69344,0.120447 1.38687,0.240894 2.10132,0.36499 3.20633,0.702407 6.18272,1.700068 9.27759,2.795166 0.62864,0.221734 1.25729,0.443468 1.90498,0.671921 2.09411,0.740019 4.18634,1.485226 6.27861,2.230423 1.47862,0.523263 2.9573,1.046372 4.43604,1.569336 8.98573,3.185955 17.94631,6.437852 26.89599,9.723633 0.99651,0.365172 1.99302,0.730344 3.01973,1.106582 4.93998,1.810433 9.87736,3.627408 14.81059,5.456162 1.81819,0.668149 3.63646,1.336048 5.45484,2.003662 0.83397,0.311928 1.66793,0.623856 2.52717,0.945236 0.77205,0.282008 1.54409,0.564015 2.33953,0.854569 0.67022,0.248044 1.34044,0.496087 2.03097,0.751648 2.23337,0.702805 2.23337,0.702805 5.92264,0.526672 0,0.66 0,1.32 0,2 0.62004,0.152754 1.24008,0.305508 1.87891,0.462891 8.92423,2.305751 17.46819,5.525673 26.07812,8.775879 7.27775,2.740093 14.48365,5.319178 22.06641,7.103027 0.65226,0.217207 1.30453,0.434414 1.97656,0.658203 0.33,0.66 0.66,1.32 1,2 1.66097,0.360665 3.32977,0.684991 5,1 3.04422,0.941131 6.04452,2.007164 9.05078,3.0625 0.8835,0.307597 1.767,0.615195 2.67728,0.932114 2.86274,0.998236 5.72362,2.001678 8.58444,3.005386 1.95775,0.683711 3.91551,1.367386 5.87329,2.051025 11.43478,4.003196 22.83261,8.078946 34.11035,12.509526 0.84974,0.32935 1.69947,0.65871 2.57495,0.99804 0.71084,0.28158 1.42168,0.56316 2.15406,0.85328 2.27036,0.77841 2.27036,0.77841 5.97485,0.58813 0,0.66 0,1.32 0,2 0.56276,0.1339 1.12551,0.2678 1.70532,0.40576 9.97973,2.54106 19.56935,6.19406 29.23218,9.71924 2.66622,0.96975 5.33289,1.93824 8.00038,2.90451 1.64911,0.59766 3.29746,1.19744 4.94492,1.79962 0.745,0.27053 1.49,0.54107 2.25758,0.8198 0.65077,0.23744 1.30154,0.47487 1.97203,0.71951 1.8954,0.6621 1.8954,0.6621 3.91297,1.13356 3.33564,0.84125 6.48061,2.23486 9.66993,3.50972 10.52534,4.1473 21.18249,7.89836 31.85829,11.63742 3.3949,1.18909 6.7884,2.38188 10.1815,3.57571 4.4515,1.56618 8.9032,3.13149 13.3552,4.69605 15.6858,5.51534 31.3361,11.12199 46.9365,16.87457 0.6305,0.2325 1.2611,0.46499 1.9107,0.70453 0.6251,0.23056 1.2503,0.46112 1.8944,0.69867 10.4229,3.83968 20.9008,7.50389 31.4096,11.10211 8.3131,2.8486 16.607,5.74595 24.8835,8.69922 1.1365,0.40533 2.2729,0.81066 3.4439,1.22827 6.0335,2.16267 12.0492,4.36726 18.0483,6.62329 0.6228,0.23354 1.2456,0.46709 1.8872,0.70771 2.993,1.12267 5.983,2.25211 8.9687,3.39385 1.0608,0.39961 2.1215,0.79922 3.2144,1.21094 0.932,0.3553 1.864,0.7106 2.8242,1.07666 2.6924,0.95385 2.6924,0.95385 6.4883,0.75928 0,0.66 0,1.32 0,2 0.7245,0.18176 1.4489,0.36352 2.1953,0.55078 0.9668,0.25137 1.9336,0.50274 2.9297,0.76172 0.9513,0.24363 1.9027,0.48727 2.8828,0.73828 3.201,1.01546 6.0077,2.42069 8.9922,3.94922 -2.3156,23.07935 -4.9246,46.11087 -7.8052,69.12671 -1.8663,14.94372 -3.5588,29.90272 -5.1948,44.87329 -0.4642,4.23054 -0.9293,8.46098 -1.3945,12.69141 -0.1719,1.56276 -0.1719,1.56276 -0.3472,3.15709 -2.927,26.59558 -6.017,53.16754 -9.2389,79.72889 -1.0028,8.26995 -1.9913,16.5415 -2.9659,24.81482 -0.2236,1.89767 -0.4483,3.79522 -0.6731,5.69275 -1.2423,10.56038 -2.4083,21.12905 -3.5794,31.69751 -1.3155,11.86575 -2.6505,23.7293 -3.9885,35.59253 -0.1099,0.97494 -0.1099,0.97494 -0.2221,1.96959 -3.2878,29.14613 -6.6607,58.28219 -10.0512,87.41653 -1.1319,9.728 -2.2598,19.45646 -3.3849,29.18525 -0.7803,6.74708 -1.561,13.49411 -2.3418,20.24113 -0.084,0.72949 -0.1688,1.45899 -0.2558,2.21059 -2.1658,18.71489 -4.3615,37.42578 -6.6108,56.13084 -1.4434,12.0218 -2.778,24.05174 -4.052,36.09256 -2.4683,23.2568 -5.3184,46.47095 -8.0951,69.69247 -0.9443,7.89989 -1.8833,15.8004 -2.8147,23.70182 -0.2172,1.84078 -0.4355,3.68143 -0.654,5.52206 -1.225,10.38945 -2.3703,20.78758 -3.5225,31.1853 -1.634,14.73826 -3.2907,29.47401 -4.9648,44.20777 -0.1149,1.01111 -0.1149,1.01111 -0.2321,2.04265 -0.3134,2.75847 -0.6269,5.51694 -0.9408,8.27536 -0.9697,8.52313 -1.9268,17.0475 -2.8652,25.57414 -0.6179,5.61177 -1.2447,11.22249 -1.878,16.83255 -0.3763,3.33803 -0.748,6.67645 -1.1085,10.01623 -0.4013,3.69809 -0.8188,7.39401 -1.2401,11.08991 -0.1154,1.1 -0.2308,2.2001 -0.3497,3.3336 -0.1176,1.0032 -0.2352,2.0065 -0.3563,3.0401 -0.097,0.8722 -0.1932,1.7445 -0.2927,2.6431 -0.9354,3.5862 -2.9332,4.8332 -6.021,6.6884 -1.4385,0.7608 -1.4385,0.7608 -2.9061,1.5369 -1.0712,0.5707 -2.1424,1.1415 -3.246,1.7295 -1.1447,0.6036 -2.2894,1.2072 -3.4688,1.8291 -2.3776,1.2646 -4.7531,2.5329 -7.1289,3.8008 -0.5888,0.3135 -1.1776,0.627 -1.7842,0.95 -4.87,2.5953 -9.7067,5.2459 -14.5244,7.9367 -0.7169,0.4001 -1.4338,0.8002 -2.1724,1.2124 -1.4156,0.7908 -2.831,1.5822 -4.2461,2.374 -3.5022,1.9578 -7.011,3.9038 -10.519,5.8511 -1.5,0.8333 -3,1.6666 -4.5,2.5 -12.9492,7.194 -25.8984,14.388 -38.8477,21.582 -1.1085,0.6159 -2.217,1.2317 -3.3591,1.8662 -2.2443,1.2468 -4.4886,2.4936 -6.7329,3.7403 -5.6016,3.1116 -11.20258,6.2242 -16.80249,9.3388 -12.20548,6.7872 -24.42186,13.554 -36.65277,20.2952 -9.84347,5.4257 -19.67269,10.8766 -29.49469,16.3411 -5.82757,3.2404 -11.65972,6.4722 -17.50098,9.688 -0.91849,0.5057 -0.91849,0.5057 -1.85554,1.0216 -1.23773,0.6814 -2.47547,1.3627 -3.71321,2.0441 -0.61153,0.3367 -1.22306,0.6733 -1.85312,1.0202 -0.60968,0.3356 -1.21935,0.6712 -1.8475,1.017 -8.10219,4.462 -16.17364,8.9746 -24.215,13.5455 -8.78889,4.9946 -17.64869,9.8453 -26.54663,14.6426 -8.21387,4.4295 -16.37975,8.9397 -24.5271,13.4902 -3.51406,1.9612 -7.03291,3.9137 -10.55127,5.8672 -1.50002,0.8333 -3.00002,1.6666 -4.5,2.5 -12.94922,7.194 -25.89844,14.388 -38.84766,21.582 -1.10851,0.6159 -2.21702,1.2317 -3.35913,1.8662 -2.24427,1.2468 -4.48857,2.4936 -6.73291,3.7403 -5.60155,3.1116 -11.20258,6.2242 -16.80249,9.3388 -12.20482,6.7868 -24.4208,13.5528 -36.65075,20.2942 -13.24059,7.299 -26.45686,14.6416 -39.66956,21.991 -4.45802,2.4797 -8.91631,4.959 -13.375,7.4375 -1.0928,0.6076 -2.1856,1.2151 -3.31152,1.8411 -6.08839,3.3824 -12.18207,6.7548 -18.28223,10.1159 -0.66255,0.3652 -1.3251,0.7303 -2.00772,1.1065 -3.21457,1.7712 -6.42981,3.5412 -9.64609,5.3093 -1.15323,0.6349 -2.30645,1.2699 -3.49463,1.9241 -1.01691,0.5591 -2.03382,1.1182 -3.08154,1.6943 -2.8125,1.5202 -2.8125,1.5202 -5.35645,3.3379 -2.44482,1.2334 -2.44482,1.2334 -4.93823,1.0828 -2.72185,-0.9223 -5.09334,-2.0535 -7.61206,-3.4392 -1.46047,-0.7974 -1.46047,-0.7974 -2.95044,-1.6109 -1.55014,-0.8597 -1.55014,-0.8597 -3.13159,-1.7368 -1.0779,-0.5912 -2.1558,-1.1824 -3.26636,-1.7915 -3.186,-1.7499 -6.3668,-3.509 -9.54614,-5.271 -1.54426,-0.8529 -3.08853,-1.7058 -4.63281,-2.5586 -3.61363,-2.0001 -7.22089,-4.0115 -10.82715,-6.0249 -5.15531,-2.875 -10.31713,-5.7382 -15.47754,-8.604 -2.33205,-1.2955 -4.66409,-2.5911 -6.99609,-3.8867 -1.18213,-0.6568 -2.36426,-1.3135 -3.54639,-1.9702 -10.30518,-5.7251 -10.30518,-5.7251 -13.66431,-7.5913 -2.24427,-1.2468 -4.48857,-2.4936 -6.73291,-3.7403 -5.60155,-3.1116 -11.20258,-6.2242 -16.80249,-9.3388 -11.59591,-6.4482 -23.20051,-12.8802 -34.82031,-19.2852 -14.96472,-8.2488 -29.90109,-16.5482 -44.83398,-24.8545 -13.32015,-7.4083 -26.65002,-14.7983 -39.99848,-22.1555 -9.84634,-5.4273 -19.678,-10.8805 -29.50348,-16.3455 -8.21193,-4.5653 -16.43548,-9.1092 -24.66406,-13.6445 -12.73454,-7.0193 -25.44957,-14.0732 -38.15723,-21.1411 -5.61323,-3.1215 -11.22807,-6.2401 -16.84277,-9.3589 -6.72735,-3.7369 -13.45438,-7.4743 -20.17969,-11.2148 -11.59591,-6.4482 -23.20051,-12.8802 -34.82031,-19.2852 -14.96472,-8.2488 -29.90109,-16.5482 -44.83398,-24.8545 -3.34679,-1.8614 -6.69381,-3.7224 -10.04102,-5.583 -1.66096,-0.9233 -1.66096,-0.9233 -3.35547,-1.8652 -7.67823,-4.2652 -15.36704,-8.5109 -23.06021,-12.749 -10.14268,-5.589 -20.27933,-11.1888 -30.39682,-16.8233 -1.06364,-0.5892 -2.12728,-1.1784 -3.22314,-1.7854 -0.9718,-0.5426 -1.94359,-1.0852 -2.94483,-1.6443 -0.85231,-0.4742 -1.70462,-0.9484 -2.58276,-1.437 C 94,1017.7221 94,1017.7221 92,1015.7221 c -0.42563,-1.8106 -0.42563,-1.8106 -0.6778,-4.0511 -0.10028,-0.8527 -0.20056,-1.7054 -0.30388,-2.5839 -0.10176,-0.9422 -0.20352,-1.8845 -0.30836,-2.8552 -0.11465,-0.9969 -0.2293,-1.9937 -0.34743,-3.0207 -0.38433,-3.36007 -0.75614,-6.72138 -1.12815,-10.0828 -0.27191,-2.39844 -0.5446,-4.79679 -0.81804,-7.19505 -0.58864,-5.17734 -1.17203,-10.35523 -1.75078,-15.53368 -0.8422,-7.53469 -1.69446,-15.06822 -2.54965,-22.60145 -0.39877,-3.51287 -0.79718,-7.02578 -1.19548,-10.5387 -0.11958,-1.05464 -0.11958,-1.05464 -0.24158,-2.13058 -0.57298,-5.05539 -1.14415,-10.11099 -1.71439,-15.16669 -0.1224,-1.08517 -0.1224,-1.08517 -0.24727,-2.19225 -0.0817,-0.72417 -0.16336,-1.44834 -0.24752,-2.19445 -2.82593,-25.05329 -5.69425,-50.10167 -8.57085,-75.14917 -0.86925,-7.56921 -1.73673,-15.13861 -2.60227,-22.70824 -3.23508,-28.28825 -6.52859,-56.56891 -9.90542,-84.84058 -1.74361,-14.60878 -3.43751,-29.22226 -5.07863,-43.84291 -0.14156,-1.25701 -0.28311,-2.51401 -0.42896,-3.80911 -0.23299,-2.06911 -0.46578,-4.13824 -0.69834,-6.2074 -2.555,-22.70836 -5.18829,-45.40779 -7.8102,-68.10849 -0.26129,-2.26258 -0.52258,-4.52517 -0.78387,-6.78775 -1.06671,-9.23647 -2.1336,-18.47292 -3.20081,-27.70934 -1.77071,-15.32504 -3.54019,-30.65022 -5.30829,-45.97557 -0.11882,-1.02993 -0.23765,-2.05987 -0.36008,-3.12102 -0.60222,-5.21994 -1.20442,-10.43988 -1.80661,-15.65983 -1.1112,-9.63215 -2.22265,-19.26427 -3.33407,-28.89639 -0.6464,-5.60205 -1.29279,-11.2041 -1.93918,-16.80615 -0.26874,-2.32907 -0.53748,-4.65813 -0.80621,-6.98719 -0.57288,-4.96492 -1.14576,-9.92985 -1.71863,-14.89477 -0.14946,-1.29533 -0.29892,-2.59065 -0.45291,-3.92523 -0.30719,-2.66232 -0.61438,-5.32465 -0.92156,-7.98697 -0.70782,-6.13455 -1.41567,-12.26909 -2.12365,-18.40362 -0.39869,-3.45466 -0.79737,-6.90933 -1.19603,-10.36399 -0.11897,-1.03094 -0.11897,-1.03094 -0.24035,-2.08271 -1.11579,-9.66932 -2.23038,-19.33879 -3.34419,-29.00834 -0.70633,-6.13171 -1.41302,-12.26338 -2.11981,-18.39504 -0.0773,-0.6708 -0.15463,-1.3416 -0.23429,-2.03273 C 13.26987,332.66022 11.03685,313.4497 8.78786,294.24091 7.92856,286.89585 7.07259,279.55041 6.21673,272.20495 5.41665,265.34204 4.61077,258.47985 3.80051,251.61814 3.30944,247.44798 2.82377,243.27721 2.33968,239.10624 2.11555,237.18525 1.88911,235.26452 1.6602,233.34408 1.35073,230.74559 1.04933,228.14629 0.75,225.54661 0.6577,224.78883 0.56545,224.03105 0.47038,223.2503 0.10401,219.99969 -0.04874,217.86838 1,214.72215 c 1.58588,-0.8783 1.58588,-0.8783 3.67871,-1.59961 0.79191,-0.27954 1.58383,-0.55908 2.39974,-0.84709 0.87645,-0.29603 1.75291,-0.59205 2.65593,-0.89705 1.37964,-0.48205 1.37964,-0.48205 2.78715,-0.97383 2.01088,-0.70111 4.02365,-1.39681 6.03801,-2.08785 3.22608,-1.10679 6.44722,-2.22695 9.66727,-3.35116 3.39971,-1.1869 6.79967,-2.37301 10.20106,-3.5551 11.56774,-4.0217 23.09875,-8.14362 34.62425,-12.28453 3.38613,-1.21655 6.77291,-2.43129 10.15979,-3.64572 12.93034,-4.63895 25.84555,-9.31755 38.74668,-14.03705 10.71146,-3.91551 21.47128,-7.67688 32.27188,-11.33844 6.7775,-2.30657 13.45515,-4.77911 20.09863,-7.44922 C 177,151.72215 177,151.72215 180,151.72215 c 0.33,-0.66 0.66,-1.32 1,-2 1.83374,-0.61426 1.83374,-0.61426 4.37109,-1.20313 8.76248,-2.25855 17.18997,-5.47264 25.69141,-8.54687 1.86377,-0.67037 3.72771,-1.34028 5.5918,-2.00977 3.86603,-1.38887 7.73135,-2.77968 11.59619,-4.17187 8.04627,-2.89676 16.10103,-5.76971 24.15573,-8.64294 4.36499,-1.55736 8.72935,-3.11648 13.09378,-4.67542 1.75,-0.62501 3.5,-1.25001 5.25,-1.875 0.86625,-0.30938 1.7325,-0.61875 2.625,-0.9375 7.875,-2.8125 7.875,-2.8125 10.50005,-3.75002 1.74984,-0.62494 3.49969,-1.24989 5.24954,-1.87484 4.37731,-1.56334 8.75464,-3.12664 13.132,-4.68984 7.84747,-2.80246 15.69483,-5.60522 23.54158,-8.409697 4.33803,-1.550427 8.67616,-3.100586 13.01433,-4.650604 0.86507,-0.309093 1.73014,-0.618186 2.62143,-0.936646 12.52788,-4.475646 25.06122,-8.935777 37.59741,-13.388092 0.91778,-0.325961 1.83557,-0.651923 2.78116,-0.987762 1.38042,-0.490272 1.38042,-0.490272 2.78873,-0.990448 C 400.2447,72.424486 415.8745,66.829668 431.5,61.222149 c 16.554,-5.940731 33.11418,-11.863368 49.6875,-17.75 1.84058,-0.65388 3.68116,-1.30777 5.52173,-1.96167 0.90368,-0.321042 1.80735,-0.642084 2.73842,-0.972855 1.34849,-0.47907 1.34849,-0.47907 2.72423,-0.967819 0.89323,-0.317326 1.78646,-0.634652 2.70677,-0.961593 10.02161,-3.560586 20.04143,-7.126186 30.05885,-10.698563 0.8683,-0.309425 1.73661,-0.618851 2.63123,-0.937653 8.88864,-3.168824 17.7683,-6.358537 26.61877,-9.632659 0.71161,-0.262924 1.42322,-0.525847 2.15639,-0.796738 3.29109,-1.217046 6.57984,-2.439857 9.86485,-3.673233 1.12608,-0.418543 2.25215,-0.837085 3.41235,-1.268311 0.97381,-0.365368 1.94762,-0.730737 2.95093,-1.107177 C 575,9.722149 575,9.722149 578,9.722149 c 0.33,-0.66 0.66,-1.32 1,-2 2.01172,-0.6757813 2.01172,-0.6757813 4.6875,-1.3125 5.85282,-1.4727426 11.35553,-3.5526764 16.95312,-5.79687499 8.12316,-2.15357941 15.92512,1.85256819 23.54688,4.54687499 z"
     fill="#d00031"
     id="path2" />
  <path
     d="m 605,144.72215 c 0.66,0 1.32,0 2,0 0.77183,1.68704 1.54241,3.37466 2.3125,5.0625 0.64389,1.40959 0.64389,1.40959 1.30078,2.84766 0.92211,2.05461 1.82568,4.11765 2.71021,6.18872 1.92,4.48853 3.90377,8.94825 5.88745,13.40893 0.40449,0.91044 0.80899,1.82088 1.22574,2.75891 1.31223,2.953 2.62523,5.90566 3.93832,8.85828 0.44908,1.0102 0.89815,2.0204 1.36084,3.06122 5.9086,13.29093 11.83414,26.574 17.79272,39.84259 5.11039,11.38286 10.1805,22.7835 15.23584,34.19092 0.78637,1.76943 1.57648,3.53721 2.37159,5.30273 2.43353,5.4124 4.56643,10.89263 6.61792,16.46191 1.1908,2.88183 2.6026,5.37351 4.24609,8.01563 0.71832,1.63254 1.43375,3.26662 2.11719,4.91406 1.07979,2.55137 2.23016,5.06667 3.38281,7.58594 1.8912,4.1437 3.71505,8.30925 5.5,12.5 0.6095,1.38098 1.2217,2.76077 1.83594,4.13965 0.35425,0.79579 0.7085,1.59159 1.07348,2.4115 0.35989,0.80812 0.71978,1.61624 1.09058,2.44885 0.65769,1.47943 1.31524,2.95892 1.97266,4.43848 0.33634,0.75677 0.67269,1.51355 1.01922,2.29326 6.54763,14.73216 13.09526,29.46432 19.64289,44.19648 0.42577,0.958 0.85155,1.916 1.29023,2.90303 0.85026,1.91308 1.70051,3.82615 2.55075,5.73923 2.09239,4.70791 4.18484,9.41579 6.27742,14.12361 3.54998,7.98676 7.09969,15.97364 10.64658,23.96178 1.42279,3.20433 2.84582,6.40854 4.26895,9.61272 0.67358,1.51662 1.34709,3.03328 2.02051,4.54998 4.1558,9.3587 8.32087,18.71291 12.57519,28.02738 1.63677,3.60599 3.17484,7.22938 4.62232,10.91577 2.33907,5.91066 5.00096,11.66102 7.67578,17.42578 5.42353,11.72556 5.42353,11.72556 7.09375,15.66016 1.35279,3.17354 2.80469,6.28473 4.28125,9.40234 1.85054,3.97708 3.52821,7.9098 4.9375,12.0625 1.5629,4.45905 3.52902,8.6179 5.6875,12.8125 6.33595,12.32032 11.69234,25.11628 17.14062,37.84766 1.06067,2.47595 2.13652,4.94275 3.23438,7.40234 2.0625,4.625 2.0625,4.625 2.85181,6.40479 3.52388,7.94378 7.08816,15.86951 10.6499,23.79638 0.85543,1.90406 1.71012,3.80845 2.5647,5.71289 0.50346,1.121 1.00692,2.242 1.52563,3.39698 1.23251,2.77769 2.43543,5.56589 3.62831,8.36074 1.75485,4.07007 3.5673,8.1149 5.36949,12.16416 0.43019,0.96757 0.86038,1.93514 1.30361,2.93203 1.36841,3.07754 2.73747,6.15479 4.10655,9.23203 0.91606,2.05988 1.83207,4.11977 2.74805,6.17969 1.69041,3.80138 3.38107,7.60266 5.07202,11.40381 2.08185,4.68004 4.16237,9.36066 6.24243,14.0415 1.00324,2.25737 2.00654,4.51471 3.01001,6.77197 0.63385,1.42652 1.2672,2.85325 1.8999,4.28028 2.91319,6.56671 5.86506,13.11572 8.82251,19.66259 2.13804,4.7423 4.22988,9.49894 6.26758,14.28516 0.6421,1.45998 1.2874,2.91856 1.9375,4.375 0.33902,0.76055 0.67805,1.52109 1.02734,2.30469 0.34161,0.7657 0.68321,1.5314 1.03516,2.32031 0.66691,1.49989 1.33358,2.99989 2,4.5 0.33,0.7425 0.66,1.485 1,2.25 1,2.25 2,4.5 3,6.75 0.31168,0.70126 0.62335,1.40252 0.94447,2.12503 0.66429,1.49468 1.32855,2.98936 1.99277,4.48407 1.95847,4.40705 3.91791,8.81366 5.87845,13.21979 1.38609,3.11531 2.77165,6.23085 4.15721,9.3464 0.72803,1.6368 1.45622,3.27351 2.18457,4.91016 1.06384,2.39059 2.12707,4.78145 3.19019,7.17236 0.32194,0.7231 0.64389,1.44619 0.9756,2.1912 1.41626,3.18649 2.81655,6.37742 4.18944,9.58297 1.60833,3.75024 3.26559,7.47585 4.93652,11.19849 0.68229,1.52295 1.36458,3.0459 2.04687,4.56885 0.53537,1.19414 0.53537,1.19414 1.08155,2.41241 6.67297,14.88538 13.31631,29.78368 19.93451,44.69348 4.25276,9.57983 8.51701,19.15402 12.83941,28.7027 1.39387,3.08243 2.76668,6.16842 4.09766,9.27881 1.95899,4.5644 4.00412,9.08766 6.05078,13.61328 0.78187,1.72889 1.56313,3.45805 2.34375,5.1875 0.34225,0.75668 0.68449,1.51336 1.03711,2.29297 1.12327,2.52883 2.21183,5.07143 3.29895,7.61597 1.47292,3.41847 2.99236,6.81623 4.50769,10.21606 0.34378,0.77255 0.68755,1.5451 1.04175,2.34106 1.0898,2.44902 2.1802,4.89776 3.27075,7.34644 1.43805,3.22892 2.87546,6.45813 4.3125,9.6875 0.32509,0.72937 0.65017,1.45874 0.98511,2.21021 0.61464,1.38131 1.22728,2.76352 1.83764,4.14672 0.56907,1.28691 1.14412,2.57119 1.72559,3.85254 1.54218,3.45848 2.38352,6.32485 3.13916,10.10303 -46.2,0 -92.4,0 -140,0 -2.84349,-4.97611 -4.86569,-8.92805 -6.75,-14.1875 -2.18842,-6.00311 -4.47908,-11.95169 -6.875,-17.875 -2.52693,-6.25391 -4.99721,-12.52709 -7.41406,-18.82422 -0.26451,-0.68816 -0.52902,-1.37632 -0.80155,-2.08534 -1.3207,-3.43719 -2.63704,-6.87595 -3.94699,-10.31725 -2.45586,-6.41709 -5.07509,-12.59834 -8.2124,-18.71069 -0.9545,-2.40198 -1.87086,-4.81943 -2.75,-7.25 -2.6493,-7.22828 -5.47426,-14.37622 -8.35181,-21.51636 -1.91118,-4.74833 -3.77725,-9.50776 -5.58569,-14.29614 -1.45537,-3.82278 -3.01795,-7.54472 -4.75,-11.25 -1.90285,-4.10922 -3.55906,-8.2509 -5.125,-12.5 -4.91981,-13.1493 -10.22335,-26.15212 -15.4375,-39.1875 -159.39,-0.495 -159.39,-0.495 -322,-1 -0.99,3.3 -1.98,6.6 -3,10 -0.95551,2.42063 -1.91255,4.84089 -2.90625,7.24609 -1.66986,4.20447 -3.10397,8.48913 -4.55469,12.77344 -1.26719,3.47129 -2.81915,6.78369 -4.38672,10.12891 -3.01523,6.45903 -5.65715,13.01299 -8.21484,19.66406 -0.95015,2.44598 -1.9015,4.89145 -2.85547,7.33594 -0.24603,0.63089 -0.49206,1.26178 -0.74554,1.91179 -3.5143,8.98525 -7.17867,17.91037 -10.83283,26.83943 -0.26254,0.64283 -0.52508,1.28566 -0.79558,1.94797 -0.70601,1.72828 -1.41376,3.45586 -2.12165,5.18338 -1.3362,3.30665 -2.61354,6.63454 -3.88892,9.96508 -2.86788,7.47732 -5.8295,14.91586 -8.80298,22.35157 -0.57101,1.42914 -1.142,2.85829 -1.71297,4.28746 -1.18516,2.96586 -2.37101,5.93145 -3.55729,8.89686 -1.51817,3.79536 -3.03393,7.59167 -4.54913,11.38821 -1.17326,2.9387 -2.34808,5.87677 -3.52335,8.81467 -0.55991,1.40039 -1.11928,2.801 -1.67806,4.20183 -0.77813,1.95023 -1.55845,3.89957 -2.33931,5.84871 -0.44236,1.10663 -0.88473,2.21325 -1.3405,3.35341 -0.97149,2.32816 -2.06572,4.6048 -3.19392,6.86119 -46.2,0 -92.4,0 -140,0 2.24539,-8.98156 2.24539,-8.98156 3.69141,-12.04297 0.3482,-0.75201 0.69641,-1.50401 1.05517,-2.27881 0.41363,-0.88381 0.82726,-1.76762 1.25342,-2.67822 1.09464,-2.41179 2.18695,-4.82457 3.27734,-7.23828 0.602,-1.32888 1.20422,-2.65765 1.80664,-3.98633 0.45766,-1.0097 0.45766,-1.0097 0.92456,-2.03979 0.61698,-1.36027 1.23449,-2.7203 1.85254,-4.08008 2.98963,-6.5794 5.96244,-13.15525 8.71314,-19.83911 2.58415,-6.2758 5.42886,-12.41807 8.30078,-18.56641 3.99152,-8.59303 7.90703,-17.20794 11.67188,-25.90234 2.71284,-6.24976 5.46979,-12.47098 8.57812,-18.53516 1.57388,-3.09779 2.79765,-6.24724 3.97852,-9.51758 1.09091,-2.79264 2.34473,-5.48545 3.61523,-8.20117 3.75993,-8.09549 7.35971,-16.259 10.95703,-24.42773 4.21892,-9.53867 4.21892,-9.53867 6.37891,-13.67774 1.62982,-3.18569 2.90144,-6.43278 4.15234,-9.78516 3.05657,-8.09658 6.65959,-15.92505 10.26172,-23.79083 2.11741,-4.62537 4.22157,-9.25675 6.32422,-13.88885 0.43203,-0.95164 0.86405,-1.90328 1.30917,-2.88376 4.55281,-10.05025 8.98174,-20.15381 13.39786,-30.26468 5.12145,-11.7198 10.28617,-23.40971 15.65552,-35.01855 4.95026,-10.71042 9.71314,-21.50357 14.48706,-32.29346 1.23417,-2.78487 2.47371,-5.56725 3.7168,-8.34815 2.87642,-6.43827 5.72842,-12.8715 8.39062,-19.40234 1.49982,-3.65956 3.17607,-6.97866 5.23047,-10.36719 1.35691,-2.58904 2.31814,-5.26667 3.33203,-8.00781 1.83332,-4.9267 3.91594,-9.58265 6.3125,-14.25 2.1293,-4.15764 4.07925,-8.21033 5.60352,-12.62158 0.83471,-2.23523 1.79864,-4.36998 2.80273,-6.53467 2.4433,-5.33505 4.80435,-10.70292 7.14844,-16.08203 0.37847,-0.86703 0.75694,-1.73406 1.14688,-2.62737 1.57871,-3.61667 3.15702,-7.2335 4.72958,-10.85286 4.26582,-9.81314 8.58326,-19.54493 13.50757,-29.04785 1.4382,-2.92505 2.62325,-5.86366 3.74878,-8.92114 3.32174,-8.98305 7.44464,-17.61543 11.44922,-26.30957 4.84229,-10.5209 9.54301,-21.10339 14.23828,-31.69043 1.39527,-3.14609 2.79097,-6.29198 4.1875,-9.4375 0.33781,-0.76089 0.67562,-1.52178 1.02367,-2.30573 1.73455,-3.90193 3.4836,-7.7962 5.26149,-11.67865 3.3542,-7.34823 6.56265,-14.76125 9.79873,-22.16201 6.64186,-15.18549 13.34402,-30.34 20.22446,-45.41904 2.93912,-6.45819 5.76813,-12.94083 8.43262,-19.51758 1.13996,-2.63783 2.5411,-5.04726 4.03637,-7.49902 1.98417,-3.79613 3.33242,-7.87324 4.78907,-11.89453 1.1814,-2.92574 2.6001,-5.40408 4.24609,-8.08594 0.66246,-1.50489 1.28771,-3.02671 1.875,-4.5625 0.33773,-0.86367 0.67547,-1.72734 1.02344,-2.61719 0.36351,-0.9307 0.72703,-1.8614 1.10156,-2.82031 2.35459,-5.89397 4.65255,-11.58844 7.96484,-17.01953 1.98417,-3.79613 3.33242,-7.87324 4.78907,-11.89453 1.18162,-2.92628 2.61757,-5.39329 4.24609,-8.08594 0.72703,-1.79701 1.41098,-3.61176 2.0625,-5.4375 4.59648,-12.24336 10.35928,-24.02583 15.875,-35.875 3.10838,-6.71922 6.07088,-13.50094 9.04394,-20.28076 5.03228,-11.46426 10.11872,-22.90433 15.20606,-34.34424 0.63787,-1.43449 0.63787,-1.43449 1.28863,-2.89795 2.05502,-4.62123 4.11037,-9.24231 6.16596,-13.86328 3.45458,-7.76623 6.90627,-15.53374 10.35791,-23.30127 z"
     fill="#fefefe"
     id="path4" />
  <path
     d="m 605,420.72215 c 0.66,0 1.32,0 2,0 8.65753,19.99701 17.14516,40.0543 25.36719,60.23462 0.6262,1.53642 1.2525,3.07279 1.8789,4.60913 0.45523,1.11664 0.45523,1.11664 0.91965,2.25584 2.68497,6.56925 5.43273,13.11143 8.19887,19.64687 1.58138,3.73763 3.14766,7.47731 4.63539,11.25354 2.23485,5.66693 4.62837,11.26764 7.00781,16.875 1.66014,3.92158 3.29012,7.85134 4.85987,11.81006 2.02404,5.07068 4.1253,10.10587 6.24951,15.13525 0.78008,1.85411 1.56002,3.70828 2.33984,5.5625 1.20513,2.86323 2.41116,5.72607 3.61963,8.58789 4.40307,10.43184 8.72081,20.8559 12.54102,31.51709 1.28553,3.26628 2.75581,6.30814 4.35119,9.42722 1.78615,3.61169 3.29413,7.33583 4.8241,11.06155 0.34783,0.84029 0.69567,1.68058 1.05405,2.54633 1.11652,2.69946 2.22874,5.40067 3.34048,8.10211 0.76474,1.85374 1.52963,3.70742 2.29468,5.56104 1.49744,3.62939 2.99304,7.25953 4.48755,10.89013 1.70544,4.14046 3.42336,8.27549 5.14746,12.4082 0.81521,1.9635 1.63033,3.92704 2.44531,5.89063 0.36311,0.86448 0.72623,1.72896 1.10034,2.61963 C 716,682.38101 716,682.38101 716,685.72215 c -72.6,0 -145.2,0 -220,0 1.12498,-6.74987 1.12498,-6.74987 2.50293,-9.979 0.30412,-0.72161 0.60824,-1.44321 0.92157,-2.18668 0.4937,-1.14389 0.4937,-1.14389 0.99737,-2.31088 0.34187,-0.8065 0.68373,-1.613 1.03595,-2.44394 1.0913,-2.57081 2.1915,-5.1377 3.29218,-7.7045 0.72457,-1.70156 1.44853,-3.40338 2.17187,-5.10547 1.40315,-3.30014 2.80876,-6.5992 4.21631,-9.89746 4.52411,-10.61161 8.89445,-21.28773 13.29395,-31.95142 6.70627,-16.25469 13.42191,-32.50527 20.19287,-48.73315 5.26493,-12.61884 10.51458,-25.24389 15.75,-37.875 0.35468,-0.85561 0.70937,-1.71121 1.0748,-2.59274 3.57546,-8.62524 7.1494,-17.2511 10.72085,-25.87799 7.91047,-19.10679 15.84753,-38.20217 23.82935,-57.27927 0.39767,-0.95099 0.79533,-1.90197 1.20505,-2.88178 1.11834,-2.67386 2.2377,-5.34729 3.35745,-8.02056 0.33456,-0.79999 0.66911,-1.59998 1.01381,-2.42421 2.30831,-5.50519 2.30831,-5.50519 3.42369,-7.73595 z"
     fill="#cf0232"
     id="path6" />
  <path
     d="m 445,802.72215 c 105.93,0 211.86,0 321,0 0.66,1.65 1.32,3.3 2,5 -0.99,-0.33 -1.98,-0.66 -3,-1 0,-0.66 0,-1.32 0,-2 -105.6,0 -211.2,0 -320,0 0,-0.66 0,-1.32 0,-2 z"
     fill="#c6032d"
     id="path8" />
  <path
     d="m 606,802.72215 c 52.8,0 105.6,0 160,0 0.99,2.475 0.99,2.475 2,5 -0.99,-0.33 -1.98,-0.66 -3,-1 -0.33,-0.66 -0.66,-1.32 -1,-2 -78.21,-0.495 -78.21,-0.495 -158,-1 0,-0.33 0,-0.66 0,-1 z"
     fill="#aa0a2f"
     id="path10" />
  <path
     d="m 769,508.72215 c 2.52766,2.25371 3.76122,4.31172 5.05078,7.42969 0.36537,0.8706 0.73074,1.7412 1.10718,2.63818 0.381,0.92635 0.762,1.85271 1.15454,2.80713 0.80853,1.92766 1.61842,3.85474 2.42969,5.78125 0.39026,0.92941 0.78052,1.85883 1.18261,2.81641 1.27541,2.99795 2.62589,5.95438 4.0127,8.90234 2.88568,6.20585 5.71399,12.43623 8.5,18.6875 0.46205,1.01304 0.9241,2.02608 1.40015,3.06982 0.42353,0.95794 0.84707,1.91587 1.28344,2.90284 0.386,0.85988 0.77199,1.71977 1.16968,2.60571 0.79538,2.6457 0.46986,3.77041 -0.29077,6.35913 -0.46374,-1.04865 -0.92748,-2.09731 -1.40527,-3.17773 -1.73505,-3.92208 -3.47263,-7.84304 -5.21094,-11.76368 -0.74938,-1.6911 -1.49809,-3.3825 -2.2461,-5.07422 -1.08056,-2.4435 -2.16359,-4.88591 -3.24707,-7.32812 -0.32933,-0.74617 -0.65867,-1.49233 -0.99798,-2.26111 -1.89494,-4.26406 -3.88825,-8.45626 -6.01633,-12.60919 -1.36101,-2.77379 -2.42784,-5.64103 -3.50131,-8.53595 -1.58628,-4.30435 -1.58628,-4.30435 -3.52344,-8.45313 C 769,511.72215 769,511.72215 769,508.72215 Z"
     fill="#b21037"
     id="path12" />
  <path
     d="m 855,703.72215 c 0.66,0 1.32,0 2,0 1.46007,3.22839 2.91774,6.45784 4.375,9.6875 0.4125,0.91201 0.825,1.82402 1.25,2.76367 0.39961,0.88623 0.79922,1.77246 1.21094,2.68555 0.36657,0.8117 0.73315,1.62341 1.11084,2.45972 0.34756,0.79317 0.69512,1.58635 1.05322,2.40356 0.37463,0.8428 0.74927,1.68561 1.13525,2.55395 C 868,728.72215 868,728.72215 868,732.72215 c 0.66,0 1.32,0 2,0 2.91116,6.25957 5.66985,12.5001 8,19 -0.99,0 -1.98,0 -3,0 -0.39188,-1.11375 -0.78375,-2.2275 -1.1875,-3.375 -1.20417,-3.22807 -2.60126,-6.25511 -4.1875,-9.3125 -1.94005,-3.78194 -3.52731,-7.57558 -5,-11.5625 -2.31329,-6.22298 -5.18004,-11.98877 -8.26953,-17.85156 C 855,706.72215 855,706.72215 855,703.72215 Z"
     fill="#b61b40"
     id="path14" />
  <path
     d="m 895,793.72215 c 0.66,0 1.32,0 2,0 0.24645,0.54825 0.49291,1.09651 0.74683,1.66138 1.14665,2.55048 2.29368,5.10079 3.44067,7.65112 0.41274,0.9183 0.82548,1.83659 1.25073,2.78271 2.1071,4.68493 4.22671,9.36324 6.37427,14.02979 2.23283,4.89207 4.24133,9.8628 6.1875,14.875 -0.99,0.495 -0.99,0.495 -2,1 -10.14268,-22.12197 -10.14268,-22.12197 -14.03906,-31.71094 -0.84918,-2.02283 -1.76708,-3.96597 -2.77344,-5.91406 C 895,795.72215 895,795.72215 895,793.72215 Z"
     fill="#b4153a"
     id="path16" />
  <path
     d="m 616,445.72215 c 2.73125,2.38278 3.90982,4.69324 5.26172,8.03516 0.59458,1.46083 0.59458,1.46083 1.20117,2.95117 0.60618,1.5227 0.60618,1.5227 1.22461,3.07617 0.41572,1.019 0.83145,2.03801 1.25977,3.08789 C 628,470.4367 628,470.4367 628,472.72215 c -0.66,0 -1.32,0 -2,0 -1.17819,-2.55775 -2.34266,-5.12034 -3.5,-7.6875 -0.33387,-0.72123 -0.66773,-1.44246 -1.01172,-2.18555 -1.71905,-3.84155 -2.96385,-6.82138 -2.48828,-11.12695 -0.66,0 -1.32,0 -2,0 -0.33,-1.98 -0.66,-3.96 -1,-6 z"
     fill="#bb3053"
     id="path18" />
  <path
     d="m 615.9375,2.284649 c 1.15822,0.4041211 1.15822,0.4041211 2.33984,0.8164063 0.56848,0.2049609 1.13696,0.4099218 1.72266,0.6210937 -3,2 -3,2 -5.1875,1.625 -0.59812,-0.20625 -1.19625,-0.4125 -1.8125,-0.625 0,-0.66 0,-1.32 0,-2 -7.88673,-0.4107409 -7.88673,-0.4107409 -15.4375,1.5625 -3.60585,1.4549907 -4.14619,1.571265 -7.5625,0.4375 2.18123,-0.8743052 4.3675,-1.724085 6.5625,-2.5625 1.21816,-0.475664 2.43633,-0.9513281 3.69141,-1.44140619 5.66223,-1.5056003 10.26417,-0.3512365 15.68359,1.56640619 z"
     fill="#850a28"
     id="path20" />
  <path
     d="m 91,997.72215 c 0.33,0 0.66,0 1,0 0.846811,5.08085 1.090381,9.84825 1,14.99995 0.66,0 1.32,0 2,0 1.377013,1.2882 2.706442,2.6281 4,4 0.5775,0.5775 1.155,1.155 1.75,1.75 0.4125,0.4125 0.825,0.825 1.25,1.25 -4.873753,0 -6.417443,-0.7358 -10,-4 -0.927688,-2.9925 -0.985153,-5.882 -1,-9 -0.01418,-0.8533 -0.02836,-1.7067 -0.04297,-2.5859 -0.01686,-2.138 0.009,-4.27625 0.04297,-6.41405 z"
     fill="#940a28"
     id="path22" />
  <path
     d="m 877,753.72215 c 3,1 3,1 4.24609,3.40625 0.39317,1.02094 0.78633,2.04187 1.19141,3.09375 1.81252,4.62771 3.75218,9.11126 5.96094,13.5625 0.72809,2.34504 0.38903,3.64669 -0.39844,5.9375 -3.0567,-5.89594 -5.79228,-11.73855 -8,-18 -0.55967,-1.50106 -1.12212,-3.00108 -1.6875,-4.5 -0.43313,-1.155 -0.86625,-2.31 -1.3125,-3.5 z"
     fill="#b51a40"
     id="path24" />
  <path
     d="m 670,286.72215 c 0.66,0 1.32,0 2,0 2.97,6.93 5.94,13.86 9,21 -0.66,0.33 -1.32,0.66 -2,1 -7.66743,-14.59681 -7.66743,-14.59681 -9,-22 z"
     fill="#b20e34"
     id="path26" />
  <path
     d="m 759,1216.7221 c -2.61971,1.5307 -5.24502,3.0497 -7.875,4.5625 -1.11955,0.6565 -1.11955,0.6565 -2.26172,1.3262 -0.71543,0.4093 -1.43086,0.8186 -2.16797,1.2403 -0.98976,0.5734 -0.98976,0.5734 -1.99951,1.1584 -0.55961,0.2352 -1.11923,0.4703 -1.6958,0.7126 -0.66,-0.33 -1.32,-0.66 -2,-1 0.66,-0.99 1.32,-1.98 2,-3 2.625,-0.1875 2.625,-0.1875 5,0 0,-0.99 0,-1.98 0,-3 1.45505,-0.5299 2.91418,-1.0486 4.375,-1.5625 1.21816,-0.435 1.21816,-0.435 2.46094,-0.8789 C 757,1215.7221 757,1215.7221 759,1216.7221 Z"
     fill="#8e0b2d"
     id="path28" />
  <path
     d="m 803,586.72215 c 0.66,0 1.32,0 2,0 1.37316,2.90809 2.72008,5.82761 4.0625,8.75 0.38994,0.825 0.77988,1.65 1.18164,2.5 0.54624,1.19883 0.54624,1.19883 1.10352,2.42187 0.34039,0.73316 0.68078,1.46631 1.03149,2.22168 0.71932,2.44055 0.44827,3.73434 -0.37915,6.10645 -3.69968,-7.13614 -7.13022,-14.14 -9,-22 z"
     fill="#b62044"
     id="path30" />
  <path
     d="m 818,935.72215 c 0.66,0 1.32,0 2,0 1.19697,2.78795 2.38283,5.57974 3.5625,8.375 0.34225,0.79406 0.68449,1.58812 1.03711,2.40625 0.31904,0.76055 0.63809,1.52109 0.9668,2.30469 0.44774,1.0526 0.44774,1.0526 0.90454,2.12646 0.52905,1.7876 0.52905,1.7876 -0.47095,3.7876 -2.03435,-1.4152 -2.9041,-2.54982 -3.42188,-4.98047 -0.24086,-2.0013 -0.41345,-4.01052 -0.57812,-6.01953 -0.66,0 -1.32,0 -2,0 -1.25665,-2.906 -2,-4.79605 -2,-8 z"
     fill="#bd3053"
     id="path32" />
  <path
     d="m 938,117.72215 c 7.11782,2.03807 14.06707,4.40345 21,7 -3.17815,1.05703 -4.76748,0.97696 -7.8125,-0.375 -2.91476,-1.21494 -4.82329,-1.69678 -8.0625,-2.0625 -1.03125,-0.18563 -2.0625,-0.37125 -3.125,-0.5625 -1.19531,-2.03516 -1.19531,-2.03516 -2,-4 z"
     fill="#750826"
     id="path34" />
  <path
     d="m 673,23.722149 c 6.95777,1.368742 13.38603,3.453313 20,6 -4.52093,1.456065 -7.51649,0.270328 -12,-1 0,-0.66 0,-1.32 0,-2 -2.64,-0.33 -5.28,-0.66 -8,-1 0,-0.66 0,-1.32 0,-2 z"
     fill="#7a0926"
     id="path36" />
  <path
     d="m 824,631.72215 c 3.23501,3.72027 5.57418,8.29146 7,13 -0.39063,2.28125 -0.39063,2.28125 -1,4 -1.19985,-2.26505 -2.38495,-4.5359 -3.5625,-6.8125 -0.34225,-0.6426 -0.68449,-1.2852 -1.03711,-1.94727 -0.87689,-1.70949 -1.64555,-3.47344 -2.40039,-5.24023 0.33,-0.99 0.66,-1.98 1,-3 z"
     fill="#b51a3e"
     id="path38" />
  <path
     d="m 291,1125.7221 c 4.65183,1.2095 8.83205,2.5191 13,5 0.33,0.99 0.66,1.98 1,3 -4.9721,-1.7642 -9.43438,-4.3939 -14,-7 0,-0.33 0,-0.66 0,-1 z"
     fill="#ac0b32"
     id="path40" />
  <path
     d="m 656,252.72215 c 2.16576,3.24863 3.62352,6.60623 5.125,10.1875 0.27715,0.6542 0.5543,1.3084 0.83984,1.98242 0.68113,1.60887 1.35851,3.21932 2.03516,4.83008 -0.99,0 -1.98,0 -3,0 -2.15295,-5.28831 -4.27934,-10.55124 -6,-16 0.33,-0.33 0.66,-0.66 1,-1 z"
     fill="#b3183b"
     id="path42" />
  <path
     d="m 677,590.72215 c 1.66749,2.50123 2.89954,4.77676 4.125,7.5 0.3532,0.77344 0.70641,1.54687 1.07031,2.34375 C 683,602.72215 683,602.72215 683,605.72215 c -0.66,0 -1.32,0 -2,0 -0.33,-2.31 -0.66,-4.62 -1,-7 -0.66,0 -1.32,0 -2,0 -1.3544,-2.70879 -1.06501,-5.00933 -1,-8 z"
     fill="#bc3353"
     id="path44" />
  <path
     d="m 700,1249.7221 c -2.11998,1.1974 -4.24514,2.383 -6.375,3.5625 -0.60328,0.3423 -1.20656,0.6845 -1.82813,1.0372 -1.56665,0.8616 -3.17978,1.6375 -4.79687,2.4003 -0.66,-0.33 -1.32,-0.66 -2,-1 0.99,-0.33 1.98,-0.66 3,-1 0,-0.66 0,-1.32 0,-2 1.32,0 2.64,0 4,0 0.33,-0.99 0.66,-1.98 1,-3 2.9439,-1.1775 3.89954,-1.0334 7,0 z"
     fill="#880d32"
     id="path46" />
  <path
     d="m 605,420.72215 c 0.66,0 1.32,0 2,0 0.6712,1.45625 1.33682,2.91508 2,4.375 0.55687,1.21816 0.55687,1.21816 1.125,2.46094 0.875,2.16406 0.875,2.16406 0.875,4.16406 -0.99,-0.33 -1.98,-0.66 -3,-1 0,-0.99 0,-1.98 0,-3 -0.66,0 -1.32,0 -2,0 -0.33,-2.31 -0.66,-4.62 -1,-7 z"
     fill="#b92648"
     id="path48" />
  <path
     d="m 632.3125,1284.4096 c 0.88688,0.1032 1.77375,0.2063 2.6875,0.3125 -2.87949,2.2397 -5.76742,4.2987 -9,6 -0.66,-0.33 -1.32,-0.66 -2,-1 4.18462,-4.923 4.18462,-4.923 8.3125,-5.3125 z"
     fill="#900b30"
     id="path50" />
  <path
     d="m 840,1168.7221 c 1.32,0.33 2.64,0.66 4,1 -1.78882,1.0051 -3.58115,2.004 -5.375,3 -0.99773,0.5569 -1.99547,1.1138 -3.02344,1.6875 C 833,1175.7221 833,1175.7221 831,1175.7221 c 0,-0.66 0,-1.32 0,-2 0.99,0 1.98,0 3,0 0,-0.66 0,-1.32 0,-2 1.98,-0.33 3.96,-0.66 6,-1 0,-0.66 0,-1.32 0,-2 z"
     fill="#8f0f2e"
     id="path52" />
  <path
     d="m 1,214.72215 c 0.66,0 1.32,0 2,0 0,3.96 0,7.92 0,12 -0.66,-0.33 -1.32,-0.66 -2,-1 -0.44921875,-2.25 -0.44921875,-2.25 -0.6875,-5 -0.0863672,-0.9075 -0.17273438,-1.815 -0.26171875,-2.75 -0.01675781,-0.7425 -0.03351563,-1.485 -0.05078125,-2.25 0.33,-0.33 0.66,-0.66 1,-1 z"
     fill="#880a27"
     id="path54" />
  <path
     d="m 843,676.72215 c 0.66,0 1.32,0 2,0 1.65,3.96 3.3,7.92 5,12 -0.99,0 -1.98,0 -3,0 -0.67087,-1.62327 -1.33657,-3.24868 -2,-4.875 -0.37125,-0.90492 -0.7425,-1.80984 -1.125,-2.74219 C 843,678.72215 843,678.72215 843,676.72215 Z"
     fill="#b81e43"
     id="path56" />
  <path
     d="m 776,522.72215 c 5.36669,8.05003 5.36669,8.05003 4.58203,12.22266 -0.19207,0.58652 -0.38414,1.17304 -0.58203,1.77734 -2.71391,-4.77358 -4.56561,-8.34389 -4,-14 z"
     fill="#b92146"
     id="path58" />
  <path
     d="m 643,511.72215 c 0.66,0 1.32,0 2,0 0.67087,1.62327 1.33657,3.24867 2,4.875 0.55687,1.35738 0.55687,1.35738 1.125,2.74219 0.875,2.38281 0.875,2.38281 0.875,4.38281 -0.66,0 -1.32,0 -2,0 -0.67355,-1.43429 -1.3386,-2.87257 -2,-4.3125 -0.37125,-0.80051 -0.7425,-1.60102 -1.125,-2.42578 C 643,514.72215 643,514.72215 643,511.72215 Z"
     fill="#b62347"
     id="path60" />
  <path
     d="m 1018,146.72215 c 4.754,1.14751 9.3789,2.38262 14,4 -1.6719,1.11719 -1.6719,1.11719 -4,2 -2.5781,-0.67969 -2.5781,-0.67969 -5.25,-1.875 -0.892,-0.3893 -1.7841,-0.77859 -2.7031,-1.17969 -0.6755,-0.31195 -1.351,-0.6239 -2.0469,-0.94531 0,-0.66 0,-1.32 0,-2 z"
     fill="#7a0a27"
     id="path62" />
  <path
     d="m 642,12.722149 c 4.83628,0.990437 9.47619,1.956989 14,4 0,0.33 0,0.66 0,1 -3.34253,0.07428 -5.80359,0.06547 -9,-1 0,-0.66 0,-1.32 0,-2 -1.65,0 -3.3,0 -5,0 0,-0.66 0,-1.32 0,-2 z"
     fill="#83082b"
     id="path64" />
  <path
     d="m 1178,203.72215 c 1.7938,0.44995 3.585,0.91024 5.375,1.375 0.9977,0.25523 1.9955,0.51047 3.0234,0.77344 2.6016,0.85156 2.6016,0.85156 4.6016,2.85156 -7.2615,0.61538 -7.2615,0.61538 -11,-2.5 -0.66,-0.825 -1.32,-1.65 -2,-2.5 z"
     fill="#7c082b"
     id="path66" />
  <path
     d="m 695,634.72215 c 2.96052,3.36423 3.9229,6.69159 5,11 -3,-1 -3,-1 -4.1875,-3.25 -0.81188,-2.74791 -0.9751,-4.90448 -0.8125,-7.75 z"
     fill="#bb3053"
     id="path68" />
  <path
     d="m 665,273.72215 c 2.3224,2.85022 3.93907,5.46355 5,9 -0.45313,2.15625 -0.45313,2.15625 -1,4 -4.59226,-8.26196 -4.59226,-8.26196 -4,-13 z"
     fill="#b92248"
     id="path70" />
  <path
     d="m 665,563.72215 c 3.44217,2.65986 3.99505,5.90288 5,10 -0.99,0.495 -0.99,0.495 -2,1 -3,-6.5 -3,-6.5 -3,-11 z"
     fill="#ba264a"
     id="path72" />
  <path
     d="m 1084,1036.7221 c -1.4526,0.8639 -2.9123,1.7159 -4.375,2.5625 -1.2182,0.7135 -1.2182,0.7135 -2.4609,1.4415 -0.7142,0.3287 -1.4283,0.6574 -2.1641,0.996 -0.66,-0.33 -1.32,-0.66 -2,-1 3.1556,-3.6538 6.2662,-5.5779 11,-4 z"
     fill="#820b2c"
     id="path74" />
  <path
     d="m 972,1094.7221 c 1.98,0 3.96,0 6,0 -2.85307,2.3248 -5.54075,3.7509 -9,5 0,-0.66 0,-1.32 0,-2 0.66,0 1.32,0 2,0 0.33,-0.99 0.66,-1.98 1,-3 z"
     fill="#8b0d2b"
     id="path76" />
  <path
     d="m 1111,1017.7221 c 1.98,0 3.96,0 6,0 -2.8531,2.3248 -5.5407,3.7509 -9,5 0,-0.99 0,-1.98 0,-3 0.99,0 1.98,0 3,0 0,-0.66 0,-1.32 0,-2 z"
     fill="#8d0d2c"
     id="path78" />
  <path
     d="m 700,646.72215 c 2.50298,2.93829 3.46931,5.17903 4,9 -0.66,0 -1.32,0 -2,0 -1.5625,-2.8125 -1.5625,-2.8125 -3,-6 0.33,-0.99 0.66,-1.98 1,-3 z"
     fill="#bb2d4d"
     id="path80" />
  <path
     d="m 611,434.72215 c 0.66,0 1.32,0 2,0 1.125,3.3125 1.125,3.3125 2,7 -0.99,1.485 -0.99,1.485 -2,3 -1.31627,-3.61973 -2,-6.09567 -2,-10 z"
     fill="#bb1f46"
     id="path82" />
  <path
     d="m 1043,155.72215 c 3.9493,0.55106 7.3492,1.38935 11,3 0,0.33 0,0.66 0,1 -2.97,-0.33 -5.94,-0.66 -9,-1 0,-0.66 0,-1.32 0,-2 -0.66,-0.33 -1.32,-0.66 -2,-1 z"
     fill="#7e0a24"
     id="path84" />
  <path
     d="m 80,893.72215 c 0.33,0 0.66,0 1,0 1.662518,5.57432 2.186094,9.30675 1,15 -0.33,0 -0.66,0 -1,0 -0.846811,-5.08087 -1.090381,-9.84828 -1,-15 z"
     fill="#dc083d"
     id="path86" />
  <path
     d="m 780,838.72215 c 2.97904,2.97904 4,5.80285 4,10 -0.66,0 -1.32,0 -2,0 -1.31627,-3.61973 -2,-6.09567 -2,-10 z"
     fill="#bb3052"
     id="path88" />
  <path
     d="m 711,674.72215 c 2.89932,2.39509 3.50168,4.31245 4,8 -0.99,0.495 -0.99,0.495 -2,1 -1.49821,-3.37097 -2,-5.20442 -2,-9 z"
     fill="#b92347"
     id="path90" />
  <path
     d="m 374,977.72215 c 1.10192,4.40768 0.58707,5.89229 -1,10 -0.66,-0.33 -1.32,-0.66 -2,-1 0.99,-2.97 1.98,-5.94 3,-9 z"
     fill="#ce3659"
     id="path92" />
  <path
     d="m 758,802.72215 c 2.64,0 5.28,0 8,0 0.66,1.65 1.32,3.3 2,5 -0.99,-0.33 -1.98,-0.66 -3,-1 -0.33,-0.66 -0.66,-1.32 -1,-2 -3.02934,-0.65773 -3.02934,-0.65773 -6,-1 0,-0.33 0,-0.66 0,-1 z"
     fill="#b31e44"
     id="path94" />
  <path
     d="m 797,572.72215 c 0.66,0 1.32,0 2,0 0.99,2.64 1.98,5.28 3,8 -0.99,0 -1.98,0 -3,0 -0.66,-2.64 -1.32,-5.28 -2,-8 z"
     fill="#b81f44"
     id="path96" />
  <path
     d="m 637,496.72215 c 0.66,0 1.32,0 2,0 1.25665,2.906 2,4.79604 2,8 -0.66,0 -1.32,0 -2,0 -1.25665,-2.906 -2,-4.79605 -2,-8 z"
     fill="#ba2a4b"
     id="path98" />
  <path
     d="m 670,286.72215 c 0.66,0 1.32,0 2,0 0.99,2.64 1.98,5.28 3,8 -0.99,0 -1.98,0 -3,0 -0.66,-2.64 -1.32,-5.28 -2,-8 z"
     fill="#b81e42"
     id="path100" />
  <path
     d="m 1102,1026.7221 c 0.33,0.66 0.66,1.32 1,2 -0.66,-0.33 -1.32,-0.66 -2,-1 0.33,-0.33 0.66,-0.66 1,-1 z"
     fill="#000000"
     id="path102" />
  <path
     d="m 617,1295.7221 c 2,1 2,1 2,1 z"
     fill="#000000"
     id="path104" />
  <path
     d="m 630,1288.7221 c 2,1 2,1 2,1 z"
     fill="#000000"
     id="path106" />
  <path
     d="m 637,1284.7221 c 2,1 2,1 2,1 z"
     fill="#000000"
     id="path108" />
  <path
     d="m 648,1278.7221 c 2,1 2,1 2,1 z"
     fill="#000000"
     id="path110" />
  <path
     d="m 655,1274.7221 c 2,1 2,1 2,1 z"
     fill="#000000"
     id="path112" />
  <path
     d="m 668,1267.7221 c 2,1 2,1 2,1 z"
     fill="#000000"
     id="path114" />
  <path
     d="m 528,1259.7221 c 2,1 2,1 2,1 z"
     fill="#000000"
     id="path116" />
  <path
     d="m 508,1248.7221 c 2,1 2,1 2,1 z"
     fill="#000000"
     id="path118" />
  <path
     d="m 718,1239.7221 c 2,1 2,1 2,1 z"
     fill="#000000"
     id="path120" />
  <path
     d="m 738,1228.7221 c 2,1 2,1 2,1 z"
     fill="#000000"
     id="path122" />
  <path
     d="m 744,1225.7221 c 2,1 2,1 2,1 z"
     fill="#000000"
     id="path124" />
  <path
     d="m 751,1221.7221 c 2,1 2,1 2,1 z"
     fill="#000000"
     id="path126" />
  <path
     d="m 771,1210.7221 c 2,1 2,1 2,1 z"
     fill="#000000"
     id="path128" />
  <path
     d="m 776,1207.7221 c 2,1 2,1 2,1 z"
     fill="#000000"
     id="path130" />
  <path
     d="m 783,1203.7221 c 2,1 2,1 2,1 z"
     fill="#000000"
     id="path132" />
  <path
     d="m 425,1202.7221 c 2,1 2,1 2,1 z"
     fill="#000000"
     id="path134" />
  <path
     d="m 794,1197.7221 c 2,1 2,1 2,1 z"
     fill="#000000"
     id="path136" />
  <path
     d="m 801,1193.7221 c 2,1 2,1 2,1 z"
     fill="#000000"
     id="path138" />
  <path
     d="m 803,1192.7221 c 2,1 2,1 2,1 z"
     fill="#000000"
     id="path140" />
  <path
     d="m 814,1186.7221 c 2,1 2,1 2,1 z"
     fill="#000000"
     id="path142" />
  <path
     d="m 821,1182.7221 c 2,1 2,1 2,1 z"
     fill="#000000"
     id="path144" />
  <path
     d="m 382,1178.7221 c 2,1 2,1 2,1 z"
     fill="#000000"
     id="path146" />
  <path
     d="m 852,1165.7221 c 2,1 2,1 2,1 z"
     fill="#000000"
     id="path148" />
  <path
     d="m 859,1161.7221 c 2,1 2,1 2,1 z"
     fill="#000000"
     id="path150" />
  <path
     d="m 866,1157.7221 c 2,1 2,1 2,1 z"
     fill="#000000"
     id="path152" />
  <path
     d="m 877,1151.7221 c 2,1 2,1 2,1 z"
     fill="#000000"
     id="path154" />
  <path
     d="m 884,1147.7221 c 2,1 2,1 2,1 z"
     fill="#000000"
     id="path156" />
  <path
     d="m 890,1144.7221 c 2,1 2,1 2,1 z"
     fill="#000000"
     id="path158" />
  <path
     d="m 897,1140.7221 c 2,1 2,1 2,1 z"
     fill="#000000"
     id="path160" />
  <path
     d="m 299,1132.7221 c 2,1 2,1 2,1 z"
     fill="#000000"
     id="path162" />
  <path
     d="m 917,1129.7221 c 2,1 2,1 2,1 z"
     fill="#000000"
     id="path164" />
  <path
     d="m 279,1121.7221 c 2,1 2,1 2,1 z"
     fill="#000000"
     id="path166" />
  <path
     d="m 940,1116.7221 c 2,1 2,1 2,1 z"
     fill="#000000"
     id="path168" />
  <path
     d="m 947,1112.7221 c 2,1 2,1 2,1 z"
     fill="#000000"
     id="path170" />
  <path
     d="m 967,1101.7221 c 2,1 2,1 2,1 z"
     fill="#000000"
     id="path172" />
  <path
     d="m 980,1094.7221 c 2,1 2,1 2,1 z"
     fill="#000000"
     id="path174" />
  <path
     d="m 993,1087.7221 c 2,1 2,1 2,1 z"
     fill="#000000"
     id="path176" />
  <path
     d="m 1012,1076.7221 c 2,1 2,1 2,1 z"
     fill="#000000"
     id="path178" />
  <path
     d="m 1016,1074.7221 c 2,1 2,1 2,1 z"
     fill="#000000"
     id="path180" />
  <path
     d=""
     fill="#000000"
     id="path182" />
  <path
     d="m 1023,1070.7221 c 2,1 2,1 2,1 z"
     fill="#000000"
     id="path184" />
  <path
     d="m 1025,1069.7221 c 2,1 2,1 2,1 z"
     fill="#000000"
     id="path186" />
  <path
     d="m 1030,1066.7221 c 2,1 2,1 2,1 z"
     fill="#000000"
     id="path188" />
  <path
     d="m 1032,1065.7221 c 2,1 2,1 2,1 z"
     fill="#000000"
     id="path190" />
  <path
     d="m 1043,1059.7221 c 2,1 2,1 2,1 z"
     fill="#000000"
     id="path192" />
  <path
     d="m 160,1055.7221 c 2,1 2,1 2,1 z"
     fill="#000000"
     id="path194" />
  <path
     d="m 153,1051.7221 c 2,1 2,1 2,1 z"
     fill="#000000"
     id="path196" />
  <path
     d="m 1063,1048.7221 c 2,1 2,1 2,1 z"
     fill="#000000"
     id="path198" />
  <path
     d="m 1088,1034.7221 c 2,1 2,1 2,1 z"
     fill="#000000"
     id="path200" />
  <path
     d="m 1095,1030.7221 c 2,1 2,1 2,1 z"
     fill="#000000"
     id="path202" />
  <path
     d="m 1108,1023.7221 c 2,1 2,1 2,1 z"
     fill="#000000"
     id="path204" />
  <path
     d="m 1211,213.72215 c 2,1 2,1 2,1 z"
     fill="#000000"
     id="path206" />
  <path
     d="m 19,206.72215 c 2,1 2,1 2,1 z"
     fill="#000000"
     id="path208" />
  <path
     d="m 1169,198.72215 c 2,1 2,1 2,1 z"
     fill="#000000"
     id="path210" />
  <path
     d="m 1158,194.72215 c 2,1 2,1 2,1 z"
     fill="#000000"
     id="path212" />
  <path
     d="m 1138,187.72215 c 2,1 2,1 2,1 z"
     fill="#000000"
     id="path214" />
  <path
     d="m 1127,183.72215 c 2,1 2,1 2,1 z"
     fill="#000000"
     id="path216" />
  <path
     d="m 1009,141.72215 c 2,1 2,1 2,1 z"
     fill="#000000"
     id="path218" />
  <path
     d="m 889,98.722149 c 2,1 2,1 2,1 z"
     fill="#000000"
     id="path220" />
  <path
     d="m 869,91.722149 c 2,1 2,1 2,1 z"
     fill="#000000"
     id="path222" />
  <path
     d="m 760,52.722149 c 2,1 2,1 2,1 z"
     fill="#000000"
     id="path224" />
  <path
     d="m 740,45.722149 c 2,1 2,1 2,1 z"
     fill="#000000"
     id="path226" />
  <path
     d="m 729,41.722149 c 2,1 2,1 2,1 z"
     fill="#000000"
     id="path228" />
  <path
     d=""
     fill="#000000"
     id="path230" />
  <path
     d=""
     fill="#000000"
     id="path232" />
  <path
     d=""
     fill="#000000"
     id="path234" />
  <path
     d=""
     fill="#000000"
     id="path236" />
  <path
     d=""
     fill="#000000"
     id="path238" />
  <path
     d=""
     fill="#000000"
     id="path240" />
  <path
     d=""
     fill="#000000"
     id="path242" />
  <path
     d=""
     fill="#000000"
     id="path244" />
  <path
     d=""
     fill="#000000"
     id="path246" />
  <path
     d=""
     fill="#000000"
     id="path248" />
  <path
     d=""
     fill="#000000"
     id="path250" />
  <path
     d=""
     fill="#000000"
     id="path252" />
  <path
     d=""
     fill="#000000"
     id="path254" />
  <path
     d=""
     fill="#000000"
     id="path256" />
  <path
     d=""
     fill="#000000"
     id="path258" />
  <path
     d=""
     fill="#000000"
     id="path260" />
  <path
     d=""
     fill="#000000"
     id="path262" />
  <path
     d=""
     fill="#000000"
     id="path264" />
  <path
     d=""
     fill="#000000"
     id="path266" />
  <path
     d=""
     fill="#000000"
     id="path268" />
  <path
     d=""
     fill="#000000"
     id="path270" />
  <path
     d=""
     fill="#000000"
     id="path272" />
  <path
     d=""
     fill="#000000"
     id="path274" />
  <path
     d=""
     fill="#000000"
     id="path276" />
  <path
     d=""
     fill="#000000"
     id="path278" />
  <path
     d=""
     fill="#000000"
     id="path280" />
  <path
     d=""
     fill="#000000"
     id="path282" />
  <path
     d=""
     fill="#000000"
     id="path284" />
  <path
     d=""
     fill="#000000"
     id="path286" />
  <path
     d=""
     fill="#000000"
     id="path288" />
  <path
     d=""
     fill="#000000"
     id="path290" />
  <path
     d=""
     fill="#000000"
     id="path292" />
  <path
     d=""
     fill="#000000"
     id="path294" />
  <path
     d=""
     fill="#000000"
     id="path296" />
  <path
     d=""
     fill="#000000"
     id="path298" />
  <path
     d=""
     fill="#000000"
     id="path300" />
  <path
     d=""
     fill="#000000"
     id="path302" />
  <path
     d=""
     fill="#000000"
     id="path304" />
  <path
     d=""
     fill="#000000"
     id="path306" />
  <path
     d=""
     fill="#000000"
     id="path308" />
  <path
     d=""
     fill="#000000"
     id="path310" />
  <path
     d=""
     fill="#000000"
     id="path312" />
  <path
     d=""
     fill="#000000"
     id="path314" />
  <path
     d=""
     fill="#000000"
     id="path316" />
  <path
     d=""
     fill="#000000"
     id="path318" />
  <path
     d=""
     fill="#000000"
     id="path320" />
  <path
     d=""
     fill="#000000"
     id="path322" />
  <path
     d=""
     fill="#000000"
     id="path324" />
  <path
     d=""
     fill="#000000"
     id="path326" />
  <path
     d=""
     fill="#000000"
     id="path328" />
  <path
     d=""
     fill="#000000"
     id="path330" />
  <path
     d=""
     fill="#000000"
     id="path332" />
  <path
     d=""
     fill="#000000"
     id="path334" />
  <path
     d=""
     fill="#000000"
     id="path336" />
  <path
     d=""
     fill="#000000"
     id="path338" />
  <path
     d=""
     fill="#000000"
     id="path340" />
  <path
     d=""
     fill="#000000"
     id="path342" />
  <path
     d=""
     fill="#000000"
     id="path344" />
  <path
     d=""
     fill="#000000"
     id="path346" />
  <path
     d=""
     fill="#000000"
     id="path348" />
  <path
     d=""
     fill="#000000"
     id="path350" />
  <path
     d=""
     fill="#000000"
     id="path352" />
  <path
     d=""
     fill="#000000"
     id="path354" />
  <path
     d=""
     fill="#000000"
     id="path356" />
  <path
     d=""
     fill="#000000"
     id="path358" />
  <path
     d=""
     fill="#000000"
     id="path360" />
  <path
     d=""
     fill="#000000"
     id="path362" />
  <path
     d=""
     fill="#000000"
     id="path364" />
  <path
     d=""
     fill="#000000"
     id="path366" />
  <path
     d=""
     fill="#000000"
     id="path368" />
  <path
     d=""
     fill="#000000"
     id="path370" />
  <path
     d=""
     fill="#000000"
     id="path372" />
  <path
     d=""
     fill="#000000"
     id="path374" />
  <path
     d=""
     fill="#000000"
     id="path376" />
  <path
     d=""
     fill="#000000"
     id="path378" />
  <path
     d=""
     fill="#000000"
     id="path380" />
  <path
     d=""
     fill="#000000"
     id="path382" />
  <path
     d=""
     fill="#000000"
     id="path384" />
  <path
     d=""
     fill="#000000"
     id="path386" />
  <path
     d=""
     fill="#000000"
     id="path388" />
  <path
     d=""
     fill="#000000"
     id="path390" />
  <path
     d=""
     fill="#000000"
     id="path392" />
  <path
     d=""
     fill="#000000"
     id="path394" />
  <path
     d=""
     fill="#000000"
     id="path396" />
  <path
     d=""
     fill="#000000"
     id="path398" />
  <path
     d=""
     fill="#000000"
     id="path400" />
  <path
     d=""
     fill="#000000"
     id="path402" />
  <path
     d=""
     fill="#000000"
     id="path404" />
  <path
     d=""
     fill="#000000"
     id="path406" />
  <path
     d=""
     fill="#000000"
     id="path408" />
  <path
     d=""
     fill="#000000"
     id="path410" />
  <path
     d=""
     fill="#000000"
     id="path412" />
  <path
     d=""
     fill="#000000"
     id="path414" />
  <path
     d=""
     fill="#000000"
     id="path416" />
  <path
     d=""
     fill="#000000"
     id="path418" />
  <path
     d=""
     fill="#000000"
     id="path420" />
  <path
     d=""
     fill="#000000"
     id="path422" />
  <path
     d=""
     fill="#000000"
     id="path424" />
  <path
     d=""
     fill="#000000"
     id="path426" />
  <path
     d=""
     fill="#000000"
     id="path428" />
  <path
     d=""
     fill="#000000"
     id="path430" />
  <path
     d=""
     fill="#000000"
     id="path432" />
  <path
     d=""
     fill="#000000"
     id="path434" />
  <path
     d=""
     fill="#000000"
     id="path436" />
  <path
     d=""
     fill="#000000"
     id="path438" />
  <path
     d=""
     fill="#000000"
     id="path440" />
  <path
     d=""
     fill="#000000"
     id="path442" />
  <path
     d=""
     fill="#000000"
     id="path444" />
  <path
     d=""
     fill="#000000"
     id="path446" />
  <path
     d=""
     fill="#000000"
     id="path448" />
  <path
     d=""
     fill="#000000"
     id="path450" />
  <path
     d=""
     fill="#000000"
     id="path452" />
  <path
     d=""
     fill="#000000"
     id="path454" />
  <path
     d=""
     fill="#000000"
     id="path456" />
  <path
     d=""
     fill="#000000"
     id="path458" />
  <path
     d=""
     fill="#000000"
     id="path460" />
  <path
     d=""
     fill="#000000"
     id="path462" />
  <path
     d=""
     fill="#000000"
     id="path464" />
  <path
     d=""
     fill="#000000"
     id="path466" />
  <path
     d=""
     fill="#000000"
     id="path468" />
  <path
     d=""
     fill="#000000"
     id="path470" />
  <path
     d=""
     fill="#000000"
     id="path472" />
  <path
     d=""
     fill="#000000"
     id="path474" />
  <path
     d=""
     fill="#000000"
     id="path476" />
  <path
     d=""
     fill="#000000"
     id="path478" />
  <path
     d=""
     fill="#000000"
     id="path480" />
  <path
     d=""
     fill="#000000"
     id="path482" />
  <path
     d=""
     fill="#000000"
     id="path484" />
  <path
     d=""
     fill="#000000"
     id="path486" />
  <path
     d=""
     fill="#000000"
     id="path488" />
  <path
     d=""
     fill="#000000"
     id="path490" />
  <path
     d=""
     fill="#000000"
     id="path492" />
  <path
     d=""
     fill="#000000"
     id="path494" />
  <path
     d=""
     fill="#000000"
     id="path496" />
  <path
     d=""
     fill="#000000"
     id="path498" />
  <path
     d=""
     fill="#000000"
     id="path500" />
  <path
     d=""
     fill="#000000"
     id="path502" />
  <path
     d=""
     fill="#000000"
     id="path504" />
  <path
     d=""
     fill="#000000"
     id="path506" />
  <path
     d=""
     fill="#000000"
     id="path508" />
  <path
     d=""
     fill="#000000"
     id="path510" />
  <path
     d=""
     fill="#000000"
     id="path512" />
  <path
     d=""
     fill="#000000"
     id="path514" />
  <path
     d=""
     fill="#000000"
     id="path516" />
  <path
     d=""
     fill="#000000"
     id="path518" />
  <path
     d=""
     fill="#000000"
     id="path520" />
  <path
     d=""
     fill="#000000"
     id="path522" />
  <path
     d=""
     fill="#000000"
     id="path524" />
  <path
     d=""
     fill="#000000"
     id="path526" />
  <path
     d=""
     fill="#000000"
     id="path528" />
  <path
     d=""
     fill="#000000"
     id="path530" />
  <path
     d=""
     fill="#000000"
     id="path532" />
  <path
     d=""
     fill="#000000"
     id="path534" />
  <path
     d=""
     fill="#000000"
     id="path536" />
  <path
     d=""
     fill="#000000"
     id="path538" />
  <path
     d=""
     fill="#000000"
     id="path540" />
  <path
     d=""
     fill="#000000"
     id="path542" />
  <path
     d=""
     fill="#000000"
     id="path544" />
  <path
     d=""
     fill="#000000"
     id="path546" />
  <path
     d=""
     fill="#000000"
     id="path548" />
  <path
     d=""
     fill="#000000"
     id="path550" />
  <path
     d=""
     fill="#000000"
     id="path552" />
  <path
     d=""
     fill="#000000"
     id="path554" />
  <path
     d=""
     fill="#000000"
     id="path556" />
  <path
     d=""
     fill="#000000"
     id="path558" />
  <path
     d=""
     fill="#000000"
     id="path560" />
  <path
     d=""
     fill="#000000"
     id="path562" />
  <path
     d=""
     fill="#000000"
     id="path564" />
  <path
     d=""
     fill="#000000"
     id="path566" />
  <path
     d=""
     fill="#000000"
     id="path568" />
  <path
     d=""
     fill="#000000"
     id="path570" />
  <path
     d=""
     fill="#000000"
     id="path572" />
  <path
     d=""
     fill="#000000"
     id="path574" />
  <path
     d=""
     fill="#000000"
     id="path576" />
  <path
     d=""
     fill="#000000"
     id="path578" />
  <path
     d=""
     fill="#000000"
     id="path580" />
  <path
     d=""
     fill="#000000"
     id="path582" />
  <path
     d=""
     fill="#000000"
     id="path584" />
  <path
     d=""
     fill="#000000"
     id="path586" />
  <path
     d=""
     fill="#000000"
     id="path588" />
  <path
     d=""
     fill="#000000"
     id="path590" />
  <path
     d=""
     fill="#000000"
     id="path592" />
  <path
     d=""
     fill="#000000"
     id="path594" />
  <path
     d=""
     fill="#000000"
     id="path596" />
  <path
     d=""
     fill="#000000"
     id="path598" />
  <path
     d=""
     fill="#000000"
     id="path600" />
  <path
     d=""
     fill="#000000"
     id="path602" />
  <path
     d=""
     fill="#000000"
     id="path604" />
  <path
     d=""
     fill="#000000"
     id="path606" />
  <path
     d=""
     fill="#000000"
     id="path608" />
  <path
     d=""
     fill="#000000"
     id="path610" />
  <path
     d=""
     fill="#000000"
     id="path612" />
  <path
     d=""
     fill="#000000"
     id="path614" />
  <path
     d=""
     fill="#000000"
     id="path616" />
  <path
     d=""
     fill="#000000"
     id="path618" />
  <path
     d=""
     fill="#000000"
     id="path620" />
  <path
     d=""
     fill="#000000"
     id="path622" />
  <path
     d=""
     fill="#000000"
     id="path624" />
  <path
     d=""
     fill="#000000"
     id="path626" />
  <path
     d=""
     fill="#000000"
     id="path628" />
  <path
     d=""
     fill="#000000"
     id="path630" />
  <path
     d=""
     fill="#000000"
     id="path632" />
  <path
     d=""
     fill="#000000"
     id="path634" />
  <path
     d=""
     fill="#000000"
     id="path636" />
  <path
     d=""
     fill="#000000"
     id="path638" />
  <path
     d=""
     fill="#000000"
     id="path640" />
  <path
     d=""
     fill="#000000"
     id="path642" />
  <path
     d=""
     fill="#000000"
     id="path644" />
  <path
     d=""
     fill="#000000"
     id="path646" />
  <path
     d=""
     fill="#000000"
     id="path648" />
  <path
     d=""
     fill="#000000"
     id="path650" />
  <path
     d=""
     fill="#000000"
     id="path652" />
  <path
     d=""
     fill="#000000"
     id="path654" />
  <path
     d=""
     fill="#000000"
     id="path656" />
  <path
     d=""
     fill="#000000"
     id="path658" />
  <path
     d=""
     fill="#000000"
     id="path660" />
  <path
     d=""
     fill="#000000"
     id="path662" />
  <path
     d=""
     fill="#000000"
     id="path664" />
  <path
     d=""
     fill="#000000"
     id="path666" />
  <path
     d=""
     fill="#000000"
     id="path668" />
  <path
     d=""
     fill="#000000"
     id="path670" />
  <path
     d=""
     fill="#000000"
     id="path672" />
  <path
     d=""
     fill="#000000"
     id="path674" />
  <path
     d=""
     fill="#000000"
     id="path676" />
  <path
     d=""
     fill="#000000"
     id="path678" />
  <path
     d=""
     fill="#000000"
     id="path680" />
  <path
     d=""
     fill="#000000"
     id="path682" />
  <path
     d=""
     fill="#000000"
     id="path684" />
  <path
     d=""
     fill="#000000"
     id="path686" />
  <path
     d=""
     fill="#000000"
     id="path688" />
  <path
     d=""
     fill="#000000"
     id="path690" />
  <path
     d=""
     fill="#000000"
     id="path692" />
  <path
     d=""
     fill="#000000"
     id="path694" />
  <path
     d=""
     fill="#000000"
     id="path696" />
  <path
     d=""
     fill="#000000"
     id="path698" />
  <path
     d=""
     fill="#000000"
     id="path700" />
  <path
     d=""
     fill="#000000"
     id="path702" />
  <path
     d=""
     fill="#000000"
     id="path704" />
  <path
     d=""
     fill="#000000"
     id="path706" />
  <path
     d=""
     fill="#000000"
     id="path708" />
  <path
     d=""
     fill="#000000"
     id="path710" />
  <path
     d=""
     fill="#000000"
     id="path712" />
  <path
     d=""
     fill="#000000"
     id="path714" />
  <path
     d=""
     fill="#000000"
     id="path716" />
  <path
     d=""
     fill="#000000"
     id="path718" />
  <path
     d=""
     fill="#000000"
     id="path720" />
  <path
     d=""
     fill="#000000"
     id="path722" />
  <path
     d=""
     fill="#000000"
     id="path724" />
  <path
     d=""
     fill="#000000"
     id="path726" />
  <path
     d=""
     fill="#000000"
     id="path728" />
  <path
     d=""
     fill="#000000"
     id="path730" />
  <path
     d=""
     fill="#000000"
     id="path732" />
  <path
     d=""
     fill="#000000"
     id="path734" />
  <path
     d=""
     fill="#000000"
     id="path736" />
  <path
     d=""
     fill="#000000"
     id="path738" />
  <path
     d=""
     fill="#000000"
     id="path740" />
  <path
     d=""
     fill="#000000"
     id="path742" />
  <path
     d=""
     fill="#000000"
     id="path744" />
  <path
     d=""
     fill="#000000"
     id="path746" />
  <path
     d=""
     fill="#000000"
     id="path748" />
  <path
     d=""
     fill="#000000"
     id="path750" />
  <path
     d=""
     fill="#000000"
     id="path752" />
  <path
     d=""
     fill="#000000"
     id="path754" />
  <path
     d=""
     fill="#000000"
     id="path756" />
  <path
     d=""
     fill="#000000"
     id="path758" />
  <path
     d=""
     fill="#000000"
     id="path760" />
  <path
     d=""
     fill="#000000"
     id="path762" />
  <path
     d=""
     fill="#000000"
     id="path764" />
  <path
     d=""
     fill="#000000"
     id="path766" />
  <path
     d=""
     fill="#000000"
     id="path768" />
  <path
     d=""
     fill="#000000"
     id="path770" />
  <path
     d=""
     fill="#000000"
     id="path772" />
  <path
     d=""
     fill="#000000"
     id="path774" />
  <path
     d=""
     fill="#000000"
     id="path776" />
  <path
     d=""
     fill="#000000"
     id="path778" />
  <path
     d=""
     fill="#000000"
     id="path780" />
  <path
     d=""
     fill="#000000"
     id="path782" />
  <path
     d=""
     fill="#000000"
     id="path784" />
  <path
     d=""
     fill="#000000"
     id="path786" />
  <path
     d=""
     fill="#000000"
     id="path788" />
  <path
     d=""
     fill="#000000"
     id="path790" />
  <path
     d=""
     fill="#000000"
     id="path792" />
  <path
     d=""
     fill="#000000"
     id="path794" />
  <path
     d=""
     fill="#000000"
     id="path796" />
  <path
     d=""
     fill="#000000"
     id="path798" />
  <path
     d=""
     fill="#000000"
     id="path800" />
  <path
     d=""
     fill="#000000"
     id="path802" />
  <path
     d=""
     fill="#000000"
     id="path804" />
  <path
     d=""
     fill="#000000"
     id="path806" />
  <path
     d=""
     fill="#000000"
     id="path808" />
  <path
     d=""
     fill="#000000"
     id="path810" />
  <path
     d=""
     fill="#000000"
     id="path812" />
  <path
     d=""
     fill="#000000"
     id="path814" />
  <path
     d=""
     fill="#000000"
     id="path816" />
  <path
     d=""
     fill="#000000"
     id="path818" />
  <path
     d=""
     fill="#000000"
     id="path820" />
  <path
     d=""
     fill="#000000"
     id="path822" />
  <path
     d=""
     fill="#000000"
     id="path824" />
  <path
     d=""
     fill="#000000"
     id="path826" />
  <path
     d=""
     fill="#000000"
     id="path828" />
  <path
     d=""
     fill="#000000"
     id="path830" />
  <path
     d=""
     fill="#000000"
     id="path832" />
  <path
     d=""
     fill="#000000"
     id="path834" />
  <path
     d=""
     fill="#000000"
     id="path836" />
  <path
     d=""
     fill="#000000"
     id="path838" />
  <path
     d=""
     fill="#000000"
     id="path840" />
  <path
     d=""
     fill="#000000"
     id="path842" />
  <path
     d=""
     fill="#000000"
     id="path844" />
  <path
     d=""
     fill="#000000"
     id="path846" />
  <path
     d=""
     fill="#000000"
     id="path848" />
  <path
     d=""
     fill="#000000"
     id="path850" />
  <path
     d=""
     fill="#000000"
     id="path852" />
  <path
     d=""
     fill="#000000"
     id="path854" />
  <path
     d=""
     fill="#000000"
     id="path856" />
  <path
     d=""
     fill="#000000"
     id="path858" />
  <path
     d=""
     fill="#000000"
     id="path860" />
  <path
     d=""
     fill="#000000"
     id="path862" />
  <path
     d=""
     fill="#000000"
     id="path864" />
  <path
     d=""
     fill="#000000"
     id="path866" />
  <path
     d=""
     fill="#000000"
     id="path868" />
  <path
     d=""
     fill="#000000"
     id="path870" />
  <path
     d=""
     fill="#000000"
     id="path872" />
  <path
     d=""
     fill="#000000"
     id="path874" />
  <path
     d=""
     fill="#000000"
     id="path876" />
  <path
     d=""
     fill="#000000"
     id="path878" />
  <path
     d=""
     fill="#000000"
     id="path880" />
  <path
     d=""
     fill="#000000"
     id="path882" />
  <path
     d=""
     fill="#000000"
     id="path884" />
  <path
     d=""
     fill="#000000"
     id="path886" />
  <path
     d=""
     fill="#000000"
     id="path888" />
  <path
     d=""
     fill="#000000"
     id="path890" />
  <path
     d=""
     fill="#000000"
     id="path892" />
  <path
     d=""
     fill="#000000"
     id="path894" />
  <path
     d=""
     fill="#000000"
     id="path896" />
  <path
     d=""
     fill="#000000"
     id="path898" />
  <path
     d=""
     fill="#000000"
     id="path900" />
  <path
     d=""
     fill="#000000"
     id="path902" />
  <path
     d=""
     fill="#000000"
     id="path904" />
  <path
     d=""
     fill="#000000"
     id="path906" />
  <path
     d=""
     fill="#000000"
     id="path908" />
  <path
     d=""
     fill="#000000"
     id="path910" />
  <path
     d=""
     fill="#000000"
     id="path912" />
  <path
     d=""
     fill="#000000"
     id="path914" />
  <path
     d=""
     fill="#000000"
     id="path916" />
  <path
     d=""
     fill="#000000"
     id="path918" />
  <path
     d=""
     fill="#000000"
     id="path920" />
  <path
     d=""
     fill="#000000"
     id="path922" />
  <path
     d=""
     fill="#000000"
     id="path924" />
  <path
     d=""
     fill="#000000"
     id="path926" />
  <path
     d=""
     fill="#000000"
     id="path928" />
  <path
     d=""
     fill="#000000"
     id="path930" />
  <path
     d=""
     fill="#000000"
     id="path932" />
  <path
     d=""
     fill="#000000"
     id="path934" />
  <path
     d=""
     fill="#000000"
     id="path936" />
  <path
     d=""
     fill="#000000"
     id="path938" />
  <path
     d=""
     fill="#000000"
     id="path940" />
  <path
     d=""
     fill="#000000"
     id="path942" />
  <path
     d=""
     fill="#000000"
     id="path944" />
  <path
     d=""
     fill="#000000"
     id="path946" />
  <path
     d=""
     fill="#000000"
     id="path948" />
  <path
     d=""
     fill="#000000"
     id="path950" />
  <path
     d=""
     fill="#000000"
     id="path952" />
  <path
     d=""
     fill="#000000"
     id="path954" />
  <path
     d=""
     fill="#000000"
     id="path956" />
  <path
     d=""
     fill="#000000"
     id="path958" />
  <path
     d=""
     fill="#000000"
     id="path960" />
  <path
     d=""
     fill="#000000"
     id="path962" />
  <path
     d=""
     fill="#000000"
     id="path964" />
  <path
     d=""
     fill="#000000"
     id="path966" />
  <path
     d=""
     fill="#000000"
     id="path968" />
  <path
     d=""
     fill="#000000"
     id="path970" />
  <path
     d=""
     fill="#000000"
     id="path972" />
  <path
     d=""
     fill="#000000"
     id="path974" />
  <path
     d=""
     fill="#000000"
     id="path976" />
  <path
     d=""
     fill="#000000"
     id="path978" />
  <path
     d=""
     fill="#000000"
     id="path980" />
  <path
     d=""
     fill="#000000"
     id="path982" />
  <path
     d=""
     fill="#000000"
     id="path984" />
  <path
     d=""
     fill="#000000"
     id="path986" />
  <path
     d=""
     fill="#000000"
     id="path988" />
  <path
     d=""
     fill="#000000"
     id="path990" />
  <path
     d=""
     fill="#000000"
     id="path992" />
  <path
     d=""
     fill="#000000"
     id="path994" />
  <path
     d=""
     fill="#000000"
     id="path996" />
  <path
     d=""
     fill="#000000"
     id="path998" />
  <path
     d=""
     fill="#000000"
     id="path1000" />
  <path
     d=""
     fill="#000000"
     id="path1002" />
  <path
     d=""
     fill="#000000"
     id="path1004" />
  <path
     d=""
     fill="#000000"
     id="path1006" />
  <path
     d=""
     fill="#000000"
     id="path1008" />
  <path
     d=""
     fill="#000000"
     id="path1010" />
  <path
     d=""
     fill="#000000"
     id="path1012" />
  <path
     d=""
     fill="#000000"
     id="path1014" />
  <path
     d=""
     fill="#000000"
     id="path1016" />
  <path
     d=""
     fill="#000000"
     id="path1018" />
  <path
     d=""
     fill="#000000"
     id="path1020" />
  <path
     d=""
     fill="#000000"
     id="path1022" />
  <path
     d=""
     fill="#000000"
     id="path1024" />
  <path
     d=""
     fill="#000000"
     id="path1026" />
  <path
     d=""
     fill="#000000"
     id="path1028" />
  <path
     d=""
     fill="#000000"
     id="path1030" />
  <path
     d=""
     fill="#000000"
     id="path1032" />
  <path
     d=""
     fill="#000000"
     id="path1034" />
  <path
     d=""
     fill="#000000"
     id="path1036" />
  <path
     d=""
     fill="#000000"
     id="path1038" />
  <path
     d=""
     fill="#000000"
     id="path1040" />
  <path
     d=""
     fill="#000000"
     id="path1042" />
  <path
     d=""
     fill="#000000"
     id="path1044" />
  <path
     d=""
     fill="#000000"
     id="path1046" />
  <path
     d=""
     fill="#000000"
     id="path1048" />
  <path
     d=""
     fill="#000000"
     id="path1050" />
  <path
     d=""
     fill="#000000"
     id="path1052" />
  <path
     d=""
     fill="#000000"
     id="path1054" />
  <path
     d=""
     fill="#000000"
     id="path1056" />
  <path
     d=""
     fill="#000000"
     id="path1058" />
  <path
     d=""
     fill="#000000"
     id="path1060" />
  <path
     d=""
     fill="#000000"
     id="path1062" />
  <path
     d=""
     fill="#000000"
     id="path1064" />
  <path
     d=""
     fill="#000000"
     id="path1066" />
  <path
     d=""
     fill="#000000"
     id="path1068" />
  <path
     d=""
     fill="#000000"
     id="path1070" />
  <path
     d=""
     fill="#000000"
     id="path1072" />
  <path
     d=""
     fill="#000000"
     id="path1074" />
  <path
     d=""
     fill="#000000"
     id="path1076" />
  <path
     d=""
     fill="#000000"
     id="path1078" />
  <path
     d=""
     fill="#000000"
     id="path1080" />
  <path
     d=""
     fill="#000000"
     id="path1082" />
  <path
     d=""
     fill="#000000"
     id="path1084" />
  <path
     d=""
     fill="#000000"
     id="path1086" />
  <path
     d=""
     fill="#000000"
     id="path1088" />
  <path
     d=""
     fill="#000000"
     id="path1090" />
  <path
     d=""
     fill="#000000"
     id="path1092" />
  <path
     d=""
     fill="#000000"
     id="path1094" />
  <path
     d=""
     fill="#000000"
     id="path1096" />
  <path
     d=""
     fill="#000000"
     id="path1098" />
  <path
     d=""
     fill="#000000"
     id="path1100" />
  <path
     d=""
     fill="#000000"
     id="path1102" />
  <path
     d=""
     fill="#000000"
     id="path1104" />
  <path
     d=""
     fill="#000000"
     id="path1106" />
  <path
     d=""
     fill="#000000"
     id="path1108" />
  <path
     d=""
     fill="#000000"
     id="path1110" />
  <path
     d=""
     fill="#000000"
     id="path1112" />
  <path
     d=""
     fill="#000000"
     id="path1114" />
  <path
     d=""
     fill="#000000"
     id="path1116" />
  <path
     d=""
     fill="#000000"
     id="path1118" />
  <path
     d=""
     fill="#000000"
     id="path1120" />
  <path
     d=""
     fill="#000000"
     id="path1122" />
  <path
     d=""
     fill="#000000"
     id="path1124" />
  <path
     d=""
     fill="#000000"
     id="path1126" />
  <path
     d=""
     fill="#000000"
     id="path1128" />
  <path
     d=""
     fill="#000000"
     id="path1130" />
  <path
     d=""
     fill="#000000"
     id="path1132" />
  <path
     d=""
     fill="#000000"
     id="path1134" />
  <path
     d=""
     fill="#000000"
     id="path1136" />
  <path
     d=""
     fill="#000000"
     id="path1138" />
  <path
     d=""
     fill="#000000"
     id="path1140" />
  <path
     d=""
     fill="#000000"
     id="path1142" />
  <path
     d=""
     fill="#000000"
     id="path1144" />
  <path
     d=""
     fill="#000000"
     id="path1146" />
  <path
     d=""
     fill="#000000"
     id="path1148" />
  <path
     d=""
     fill="#000000"
     id="path1150" />
  <path
     d=""
     fill="#000000"
     id="path1152" />
  <path
     d=""
     fill="#000000"
     id="path1154" />
  <path
     d=""
     fill="#000000"
     id="path1156" />
  <path
     d=""
     fill="#000000"
     id="path1158" />
  <path
     d=""
     fill="#000000"
     id="path1160" />
  <path
     d=""
     fill="#000000"
     id="path1162" />
  <path
     d=""
     fill="#000000"
     id="path1164" />
  <path
     d=""
     fill="#000000"
     id="path1166" />
  <path
     d=""
     fill="#000000"
     id="path1168" />
  <path
     d=""
     fill="#000000"
     id="path1170" />
  <path
     d=""
     fill="#000000"
     id="path1172" />
  <path
     d=""
     fill="#000000"
     id="path1174" />
  <path
     d=""
     fill="#000000"
     id="path1176" />
  <path
     d=""
     fill="#000000"
     id="path1178" />
  <path
     d=""
     fill="#000000"
     id="path1180" />
  <path
     d=""
     fill="#000000"
     id="path1182" />
  <path
     d=""
     fill="#000000"
     id="path1184" />
  <path
     d=""
     fill="#000000"
     id="path1186" />
  <path
     d=""
     fill="#000000"
     id="path1188" />
  <path
     d=""
     fill="#000000"
     id="path1190" />
  <path
     d=""
     fill="#000000"
     id="path1192" />
  <path
     d=""
     fill="#000000"
     id="path1194" />
  <path
     d=""
     fill="#000000"
     id="path1196" />
  <path
     d=""
     fill="#000000"
     id="path1198" />
  <path
     d=""
     fill="#000000"
     id="path1200" />
  <path
     d=""
     fill="#000000"
     id="path1202" />
  <path
     d=""
     fill="#000000"
     id="path1204" />
  <path
     d=""
     fill="#000000"
     id="path1206" />
  <path
     d=""
     fill="#000000"
     id="path1208" />
  <path
     d=""
     fill="#000000"
     id="path1210" />
  <path
     d=""
     fill="#000000"
     id="path1212" />
  <path
     d=""
     fill="#000000"
     id="path1214" />
  <path
     d=""
     fill="#000000"
     id="path1216" />
  <path
     d=""
     fill="#000000"
     id="path1218" />
  <path
     d=""
     fill="#000000"
     id="path1220" />
  <path
     d=""
     fill="#000000"
     id="path1222" />
  <path
     d=""
     fill="#000000"
     id="path1224" />
  <path
     d=""
     fill="#000000"
     id="path1226" />
  <path
     d=""
     fill="#000000"
     id="path1228" />
  <path
     d=""
     fill="#000000"
     id="path1230" />
  <path
     d=""
     fill="#000000"
     id="path1232" />
  <path
     d=""
     fill="#000000"
     id="path1234" />
  <path
     d=""
     fill="#000000"
     id="path1236" />
  <path
     d=""
     fill="#000000"
     id="path1238" />
  <path
     d=""
     fill="#000000"
     id="path1240" />
  <path
     d=""
     fill="#000000"
     id="path1242" />
  <path
     d=""
     fill="#000000"
     id="path1244" />
  <path
     d=""
     fill="#000000"
     id="path1246" />
  <path
     d=""
     fill="#000000"
     id="path1248" />
  <path
     d=""
     fill="#000000"
     id="path1250" />
  <path
     d=""
     fill="#000000"
     id="path1252" />
  <path
     d=""
     fill="#000000"
     id="path1254" />
  <path
     d=""
     fill="#000000"
     id="path1256" />
  <path
     d=""
     fill="#000000"
     id="path1258" />
  <path
     d=""
     fill="#000000"
     id="path1260" />
  <path
     d=""
     fill="#000000"
     id="path1262" />
  <path
     d=""
     fill="#000000"
     id="path1264" />
  <path
     d=""
     fill="#000000"
     id="path1266" />
  <path
     d=""
     fill="#000000"
     id="path1268" />
  <path
     d=""
     fill="#000000"
     id="path1270" />
  <path
     d=""
     fill="#000000"
     id="path1272" />
  <path
     d=""
     fill="#000000"
     id="path1274" />
  <path
     d=""
     fill="#000000"
     id="path1276" />
  <path
     d=""
     fill="#000000"
     id="path1278" />
  <path
     d=""
     fill="#000000"
     id="path1280" />
  <path
     d=""
     fill="#000000"
     id="path1282" />
  <path
     d=""
     fill="#000000"
     id="path1284" />
  <path
     d=""
     fill="#000000"
     id="path1286" />
  <path
     d=""
     fill="#000000"
     id="path1288" />
  <path
     d=""
     fill="#000000"
     id="path1290" />
  <path
     d=""
     fill="#000000"
     id="path1292" />
  <path
     d=""
     fill="#000000"
     id="path1294" />
  <path
     d=""
     fill="#000000"
     id="path1296" />
  <path
     d=""
     fill="#000000"
     id="path1298" />
  <path
     d=""
     fill="#000000"
     id="path1300" />
  <path
     d=""
     fill="#000000"
     id="path1302" />
  <path
     d=""
     fill="#000000"
     id="path1304" />
  <path
     d=""
     fill="#000000"
     id="path1306" />
  <path
     d=""
     fill="#000000"
     id="path1308" />
  <path
     d=""
     fill="#000000"
     id="path1310" />
  <path
     d=""
     fill="#000000"
     id="path1312" />
  <path
     d=""
     fill="#000000"
     id="path1314" />
  <path
     d=""
     fill="#000000"
     id="path1316" />
  <path
     d=""
     fill="#000000"
     id="path1318" />
  <path
     d=""
     fill="#000000"
     id="path1320" />
  <path
     d=""
     fill="#000000"
     id="path1322" />
  <path
     d=""
     fill="#000000"
     id="path1324" />
  <path
     d=""
     fill="#000000"
     id="path1326" />
  <path
     d=""
     fill="#000000"
     id="path1328" />
  <path
     d=""
     fill="#000000"
     id="path1330" />
  <path
     d=""
     fill="#000000"
     id="path1332" />
  <path
     d=""
     fill="#000000"
     id="path1334" />
  <path
     d=""
     fill="#000000"
     id="path1336" />
  <path
     d=""
     fill="#000000"
     id="path1338" />
  <path
     d=""
     fill="#000000"
     id="path1340" />
  <path
     d=""
     fill="#000000"
     id="path1342" />
  <path
     d=""
     fill="#000000"
     id="path1344" />
  <path
     d=""
     fill="#000000"
     id="path1346" />
  <path
     d=""
     fill="#000000"
     id="path1348" />
  <path
     d=""
     fill="#000000"
     id="path1350" />
  <path
     d=""
     fill="#000000"
     id="path1352" />
  <path
     d=""
     fill="#000000"
     id="path1354" />
  <path
     d=""
     fill="#000000"
     id="path1356" />
  <path
     d=""
     fill="#000000"
     id="path1358" />
  <path
     d=""
     fill="#000000"
     id="path1360" />
  <path
     d=""
     fill="#000000"
     id="path1362" />
  <path
     d=""
     fill="#000000"
     id="path1364" />
  <path
     d=""
     fill="#000000"
     id="path1366" />
  <path
     d=""
     fill="#000000"
     id="path1368" />
  <path
     d=""
     fill="#000000"
     id="path1370" />
  <path
     d=""
     fill="#000000"
     id="path1372" />
  <path
     d=""
     fill="#000000"
     id="path1374" />
  <path
     d=""
     fill="#000000"
     id="path1376" />
  <path
     d=""
     fill="#000000"
     id="path1378" />
  <path
     d=""
     fill="#000000"
     id="path1380" />
  <path
     d=""
     fill="#000000"
     id="path1382" />
  <path
     d=""
     fill="#000000"
     id="path1384" />
  <path
     d=""
     fill="#000000"
     id="path1386" />
  <path
     d=""
     fill="#000000"
     id="path1388" />
  <path
     d=""
     fill="#000000"
     id="path1390" />
  <path
     d=""
     fill="#000000"
     id="path1392" />
  <path
     d=""
     fill="#000000"
     id="path1394" />
  <path
     d=""
     fill="#000000"
     id="path1396" />
  <path
     d=""
     fill="#000000"
     id="path1398" />
  <path
     d=""
     fill="#000000"
     id="path1400" />
  <path
     d=""
     fill="#000000"
     id="path1402" />
  <path
     d=""
     fill="#000000"
     id="path1404" />
  <path
     d=""
     fill="#000000"
     id="path1406" />
  <path
     d=""
     fill="#000000"
     id="path1408" />
  <path
     d=""
     fill="#000000"
     id="path1410" />
  <path
     d=""
     fill="#000000"
     id="path1412" />
  <path
     d=""
     fill="#000000"
     id="path1414" />
  <path
     d=""
     fill="#000000"
     id="path1416" />
  <path
     d=""
     fill="#000000"
     id="path1418" />
  <path
     d=""
     fill="#000000"
     id="path1420" />
  <path
     d=""
     fill="#000000"
     id="path1422" />
  <path
     d=""
     fill="#000000"
     id="path1424" />
  <path
     d=""
     fill="#000000"
     id="path1426" />
  <path
     d=""
     fill="#000000"
     id="path1428" />
  <path
     d=""
     fill="#000000"
     id="path1430" />
  <path
     d=""
     fill="#000000"
     id="path1432" />
  <path
     d=""
     fill="#000000"
     id="path1434" />
  <path
     d=""
     fill="#000000"
     id="path1436" />
  <path
     d=""
     fill="#000000"
     id="path1438" />
  <path
     d=""
     fill="#000000"
     id="path1440" />
  <path
     d=""
     fill="#000000"
     id="path1442" />
  <path
     d=""
     fill="#000000"
     id="path1444" />
  <path
     d=""
     fill="#000000"
     id="path1446" />
  <path
     d=""
     fill="#000000"
     id="path1448" />
  <path
     d=""
     fill="#000000"
     id="path1450" />
  <path
     d=""
     fill="#000000"
     id="path1452" />
  <path
     d=""
     fill="#000000"
     id="path1454" />
  <path
     d=""
     fill="#000000"
     id="path1456" />
  <path
     d=""
     fill="#000000"
     id="path1458" />
  <path
     d=""
     fill="#000000"
     id="path1460" />
  <path
     d=""
     fill="#000000"
     id="path1462" />
  <path
     d=""
     fill="#000000"
     id="path1464" />
  <path
     d=""
     fill="#000000"
     id="path1466" />
  <path
     d=""
     fill="#000000"
     id="path1468" />
  <path
     d=""
     fill="#000000"
     id="path1470" />
  <path
     d=""
     fill="#000000"
     id="path1472" />
  <path
     d=""
     fill="#000000"
     id="path1474" />
  <path
     d=""
     fill="#000000"
     id="path1476" />
  <path
     d=""
     fill="#000000"
     id="path1478" />
  <path
     d=""
     fill="#000000"
     id="path1480" />
  <path
     d=""
     fill="#000000"
     id="path1482" />
  <path
     d=""
     fill="#000000"
     id="path1484" />
  <path
     d=""
     fill="#000000"
     id="path1486" />
  <path
     d=""
     fill="#000000"
     id="path1488" />
  <path
     d=""
     fill="#000000"
     id="path1490" />
  <path
     d=""
     fill="#000000"
     id="path1492" />
  <path
     d=""
     fill="#000000"
     id="path1494" />
  <path
     d=""
     fill="#000000"
     id="path1496" />
  <path
     d=""
     fill="#000000"
     id="path1498" />
  <path
     d=""
     fill="#000000"
     id="path1500" />
  <path
     d=""
     fill="#000000"
     id="path1502" />
  <path
     d=""
     fill="#000000"
     id="path1504" />
  <path
     d=""
     fill="#000000"
     id="path1506" />
  <path
     d=""
     fill="#000000"
     id="path1508" />
  <path
     d=""
     fill="#000000"
     id="path1510" />
  <path
     d=""
     fill="#000000"
     id="path1512" />
  <path
     d=""
     fill="#000000"
     id="path1514" />
  <path
     d=""
     fill="#000000"
     id="path1516" />
  <path
     d=""
     fill="#000000"
     id="path1518" />
  <path
     d=""
     fill="#000000"
     id="path1520" />
  <path
     d=""
     fill="#000000"
     id="path1522" />
  <path
     d=""
     fill="#000000"
     id="path1524" />
  <path
     d=""
     fill="#000000"
     id="path1526" />
  <path
     d=""
     fill="#000000"
     id="path1528" />
  <path
     d=""
     fill="#000000"
     id="path1530" />
  <path
     d=""
     fill="#000000"
     id="path1532" />
  <path
     d=""
     fill="#000000"
     id="path1534" />
  <path
     d=""
     fill="#000000"
     id="path1536" />
  <path
     d=""
     fill="#000000"
     id="path1538" />
  <path
     d=""
     fill="#000000"
     id="path1540" />
  <path
     d=""
     fill="#000000"
     id="path1542" />
  <path
     d=""
     fill="#000000"
     id="path1544" />
  <path
     d=""
     fill="#000000"
     id="path1546" />
  <path
     d=""
     fill="#000000"
     id="path1548" />
  <path
     d=""
     fill="#000000"
     id="path1550" />
  <path
     d=""
     fill="#000000"
     id="path1552" />
  <path
     d=""
     fill="#000000"
     id="path1554" />
  <path
     d=""
     fill="#000000"
     id="path1556" />
  <path
     d=""
     fill="#000000"
     id="path1558" />
  <path
     d=""
     fill="#000000"
     id="path1560" />
  <path
     d=""
     fill="#000000"
     id="path1562" />
  <path
     d=""
     fill="#000000"
     id="path1564" />
  <path
     d=""
     fill="#000000"
     id="path1566" />
  <path
     d=""
     fill="#000000"
     id="path1568" />
  <path
     d=""
     fill="#000000"
     id="path1570" />
  <path
     d=""
     fill="#000000"
     id="path1572" />
  <path
     d=""
     fill="#000000"
     id="path1574" />
  <path
     d=""
     fill="#000000"
     id="path1576" />
  <path
     d=""
     fill="#000000"
     id="path1578" />
  <path
     d=""
     fill="#000000"
     id="path1580" />
  <path
     d=""
     fill="#000000"
     id="path1582" />
  <path
     d=""
     fill="#000000"
     id="path1584" />
</svg>
