<?xml version="1.0" encoding="UTF-8"?>
<svg version="1.1" xmlns="http://www.w3.org/2000/svg" width="1280" height="1020">
<path d="M0 0 C1.1266809 -0.00327219 2.2533618 -0.00654439 3.41418454 -0.00991574 C5.25947893 -0.0076903 5.25947893 -0.0076903 7.14205199 -0.00541991 C9.1192953 -0.00894826 9.1192953 -0.00894826 11.13648292 -0.01254788 C14.80554166 -0.01894373 18.47457849 -0.01910983 22.14364174 -0.01827047 C26.13167286 -0.01844005 30.11969615 -0.02434715 34.10772336 -0.02951133 C42.02231051 -0.03883803 49.93689208 -0.0427595 57.85148405 -0.0450303 C67.3300481 -0.04799224 76.80860474 -0.05668967 86.2871649 -0.06544458 C109.19987489 -0.08629157 132.11258617 -0.09675962 155.02530343 -0.10557419 C165.86589653 -0.10978079 176.70648908 -0.1150028 187.54708172 -0.12025872 C224.65863985 -0.13815014 261.77019814 -0.1531455 298.88175994 -0.16057891 C301.21180678 -0.16105366 303.54185362 -0.16152955 305.87190046 -0.16200657 C307.60513745 -0.16236113 307.60513745 -0.16236113 309.37338933 -0.16272286 C315.22765207 -0.16392405 321.08191481 -0.1651395 326.93617755 -0.16636485 C328.67887089 -0.16672507 328.67887089 -0.16672507 330.45677016 -0.16709258 C368.1152925 -0.17498349 405.77378332 -0.19841043 443.4322919 -0.23092079 C483.25017056 -0.26523253 523.06803078 -0.28493135 562.88592446 -0.28822315 C567.258712 -0.28864068 571.63149953 -0.28912024 576.00428706 -0.28964633 C577.0809844 -0.28976952 578.15768174 -0.28989271 579.26700626 -0.29001964 C596.58201259 -0.29235011 613.89698227 -0.30800172 631.21197555 -0.32848817 C648.62408815 -0.34876231 666.03615683 -0.35421597 683.44827905 -0.34471754 C693.78677952 -0.3395086 704.12513356 -0.34535136 714.46361291 -0.36725221 C721.37900131 -0.3807917 728.29428926 -0.37965556 735.20967874 -0.36685025 C739.14382658 -0.3599745 743.07769512 -0.35921165 747.01181766 -0.37641034 C786.28260433 -0.53733525 818.25720959 8.61367678 846.85683185 36.68739492 C871.88372223 62.11919541 883.54485464 95.64137251 883.58024913 130.83149892 C883.58398422 133.83551054 883.60091615 136.83921214 883.62100726 139.84315664 C883.6756355 148.37971712 883.70642916 156.91632737 883.73158771 165.45301992 C884.00942265 251.23092231 887.02140855 358.4156621 946.27528888 435.12880117 C946.93367755 435.94405263 946.93367755 435.94405263 947.605367 436.77577382 C967.77663965 461.37394791 993.84653942 470.72274865 1024.27528888 477.12880117 C1024.27528888 498.90880117 1024.27528888 520.68880117 1024.27528888 543.12880117 C1012.89028888 545.60380117 1012.89028888 545.60380117 1001.27528888 548.12880117 C986.12389403 553.1055367 973.36485764 559.62048395 961.27528888 570.12880117 C960.45544513 570.81587148 959.63560138 571.50294179 958.79091388 572.21083242 C907.73521757 616.21069492 895.03576566 696.36030078 888.02528888 759.81630117 C887.94815662 760.49927266 887.87102435 761.18224416 887.79155475 761.88591176 C887.19087215 767.29287339 886.71101425 772.7062019 886.27528888 778.12880117 C886.18841815 779.19716207 886.10154742 780.26552297 886.01204425 781.36625844 C884.62462252 799.12767774 884.09695634 816.83489484 884.00185138 834.64833242 C883.99318042 836.18592749 883.99318042 836.18592749 883.98433429 837.75458509 C883.9333514 847.30872329 883.90180871 856.86285978 883.8944295 866.41713125 C883.88936301 871.71383344 883.86489854 877.01017565 883.82910281 882.30675489 C883.81946483 884.28582946 883.81688268 886.26495438 883.82227451 888.24404508 C883.86539493 904.80196575 882.22972242 921.27808433 876.08778888 936.81630117 C875.7929964 937.58409902 875.49820392 938.35189687 875.19447833 939.14296132 C869.7945239 952.77920989 862.80317124 964.98203461 853.27528888 976.12880117 C852.83958575 976.64281484 852.40388263 977.15682851 851.95497638 977.68641835 C831.98939964 1000.99418594 804.76651751 1015.93534949 774.27528888 1020.12880117 C769.77915187 1020.39851333 765.29653508 1020.40127984 760.79328662 1020.38607007 C759.45598018 1020.38876843 758.11867527 1020.39233906 756.7813732 1020.39669454 C753.1194187 1020.40610317 749.45756432 1020.40316802 745.79560506 1020.398139 C741.80660615 1020.39486101 737.81762814 1020.40316434 733.82863599 1020.40995735 C726.8413884 1020.42024917 719.85416851 1020.42310256 712.86691409 1020.42104512 C702.47615572 1020.417993 692.08542796 1020.42632386 681.69467554 1020.43679438 C662.05510209 1020.45613189 642.41553908 1020.46176252 622.77595723 1020.46290849 C607.60713828 1020.4638278 592.43832342 1020.46794567 577.2695058 1020.47430974 C572.90211946 1020.47610485 568.53473312 1020.47788448 564.16734678 1020.4796595 C563.08157539 1020.48010159 561.99580401 1020.48054369 560.87713047 1020.48099918 C530.33747433 1020.49330706 499.79781961 1020.50120037 469.25816089 1020.50031263 C468.10683521 1020.50028147 466.95550954 1020.50025031 465.7692952 1020.50021821 C459.93399715 1020.500052 454.09869909 1020.49985391 448.26340103 1020.49964879 C446.52505935 1020.49958896 446.52505935 1020.49958896 444.75159966 1020.49952791 C442.40803194 1020.49944704 440.06446421 1020.49936344 437.72089649 1020.49927713 C401.26602956 1020.49805186 364.81119985 1020.51306055 328.35634357 1020.54042226 C287.39132552 1020.57115653 246.42633193 1020.58835392 205.46130162 1020.58649582 C201.09140044 1020.58634656 196.72149927 1020.58624914 192.35159808 1020.58618718 C190.73765083 1020.58615222 190.73765083 1020.58615222 189.09109859 1020.58611655 C171.79031713 1020.58605505 154.48956803 1020.5988165 137.18879618 1020.61605171 C119.79409386 1020.63302182 102.39943876 1020.63497126 85.00473273 1020.62183307 C74.67731844 1020.61445295 64.35004783 1020.61807383 54.02264882 1020.63771775 C47.11482247 1020.64974442 40.20709984 1020.64709688 33.29927819 1020.63277675 C29.36954175 1020.62503636 25.44008274 1020.62339601 21.5103662 1020.63969146 C-12.6247501 1020.77186903 -42.1435392 1014.56788661 -68.72471112 992.12880117 C-69.49210614 991.48902333 -69.49210614 991.48902333 -70.27500409 990.8363207 C-89.8966524 974.30136365 -103.20066659 951.82107846 -110.53721112 927.37880117 C-110.73218182 926.73056386 -110.92715253 926.08232656 -111.12803143 925.4144457 C-114.57886768 913.21479623 -115.02719473 901.27935563 -115.06023663 888.68892843 C-115.06866055 885.57060326 -115.08929694 882.45255272 -115.11277264 879.33430654 C-115.16070343 872.68251359 -115.19367718 866.03069144 -115.22471112 859.37880117 C-115.39002611 818.21369014 -115.39002611 818.21369014 -117.72471112 777.12880117 C-117.79996014 776.21014272 -117.87520917 775.29148427 -117.95273846 774.34498769 C-118.38503108 769.18047584 -118.89580064 764.0288196 -119.47471112 758.87880117 C-119.55774487 758.128738 -119.64077863 757.37867482 -119.72632855 756.60588247 C-126.3684113 697.22287559 -138.95347727 630.88494705 -178.72471112 584.12880117 C-179.95834393 582.67473867 -179.95834393 582.67473867 -181.21689862 581.19130117 C-201.04851755 558.39516189 -226.55863754 548.43172364 -255.72471112 543.12880117 C-255.72471112 521.34880117 -255.72471112 499.56880117 -255.72471112 477.12880117 C-248.13471112 475.47880117 -240.54471112 473.82880117 -232.72471112 472.12880117 C-217.57331627 467.15206563 -204.81427988 460.63711839 -192.72471112 450.12880117 C-191.90486737 449.44173085 -191.08502362 448.75466054 -190.24033612 448.04676992 C-159.22153974 421.31473267 -143.90104482 379.5959766 -133.72471112 341.12880117 C-133.46738202 340.17312246 -133.21005292 339.21744375 -132.94492596 338.23280507 C-126.24636622 313.06335924 -122.31735429 287.24245706 -119.47471112 261.37880117 C-119.35914868 260.34861867 -119.35914868 260.34861867 -119.24125165 259.29762441 C-118.64689796 253.91492685 -118.16751499 248.52592411 -117.72471112 243.12880117 C-117.59440503 241.58392019 -117.59440503 241.58392019 -117.46146649 240.00782949 C-116.02988698 222.42473159 -115.54347128 204.90686436 -115.45127362 187.26942617 C-115.44549298 186.22219632 -115.43971234 185.17496648 -115.43375653 184.0960024 C-115.38269333 174.31400988 -115.3512338 164.5320179 -115.34385175 154.74989492 C-115.33878667 149.33115583 -115.3143262 143.91276884 -115.27852505 138.49414998 C-115.26888093 136.46762645 -115.26630849 134.44105368 -115.27169675 132.41451436 C-115.31429766 115.64908116 -113.71026378 99.04584137 -107.47471112 83.31630117 C-107.02865521 82.15578237 -107.02865521 82.15578237 -106.57358807 80.97181875 C-93.95727076 49.06188745 -70.25618413 23.54682196 -38.94346112 9.38270742 C-26.87868377 4.18005837 -13.19725314 0.0100735 0 0 Z " fill="#7C11F7" transform="translate(255.72471112012863,-0.128801167011261)"/>
<path d="M0 0 C299.46285714 0 299.46285714 0 345 39 C345.82113281 39.68707031 346.64226562 40.37414062 347.48828125 41.08203125 C370.59069621 61.02268491 384.24041454 89.94949445 388 120 C388.72451474 134.88548461 389.3703335 150.63369093 385 165 C384.76893555 165.79132324 384.53787109 166.58264648 384.29980469 167.39794922 C374.5097365 200.55487826 354.39470012 227.29030011 323.9921875 244.28125 C313.57757109 249.85801065 302.60464577 253.75046117 291 256 C291.77899658 256.17539307 292.55799316 256.35078613 293.3605957 256.53149414 C325.9561633 263.94165079 353.23192724 273.66409472 378 297 C378.67546875 297.61101562 379.3509375 298.22203125 380.046875 298.8515625 C401.23797019 318.77119198 414.01988749 349.81299001 415.13989258 378.5949707 C416.21649611 422.09456193 407.74536324 460.50070664 377 493 C376.25234375 493.81210937 375.5046875 494.62421875 374.734375 495.4609375 C358.69678937 512.29509196 338.37250477 522.59216898 317 531 C315.83082031 531.47308594 314.66164063 531.94617188 313.45703125 532.43359375 C225.46364688 566.18016051 34.31851504 545 0 545 C0 365.15 0 185.3 0 0 Z " fill="#F6F0FD" transform="translate(443,237)"/>
<path d="M0 0 C21.676875 -0.061875 43.35375 -0.12375 65.6875 -0.1875 C72.49205811 -0.21481201 79.29661621 -0.24212402 86.30737305 -0.27026367 C94.71838379 -0.28381348 94.71838379 -0.28381348 98.6756134 -0.28633118 C101.39653341 -0.29089059 104.11701144 -0.30017335 106.83784485 -0.31672668 C122.37195055 -0.40705812 137.54831581 -0.14692353 152.88115883 2.62326622 C155.04582812 3.00814832 157.21374112 3.3476099 159.38774109 3.67536926 C183.32018526 7.35515661 206.86910488 18.64280824 221.93359375 37.9921875 C235.22906938 57.34477017 239.08429336 81.65018262 235.1640625 104.61328125 C230.96441697 125.24078673 221.05229055 144.02737175 203.31347656 156.15283203 C188.54843907 165.66745733 171.79669889 171.33031057 154.4390192 173.66966438 C152.55131896 173.92533052 150.66653225 174.20255954 148.78320217 174.48864555 C140.04521087 175.76217881 131.56628808 176.27882247 122.72094727 176.22705078 C121.3474348 176.22643587 119.9739217 176.2267089 118.60040951 176.2277813 C114.97340583 176.22822667 111.34653831 176.21676677 107.71956635 176.20256042 C104.29672388 176.19103852 100.87391194 176.1906271 97.4510498 176.18920898 C87.48818234 176.17877888 77.52533937 176.15085641 67.5625 176.125 C45.266875 176.08375 22.97125 176.0425 0 176 C0 117.92 0 59.84 0 0 Z " fill="#7811F1" transform="translate(532,535)"/>
<path d="M0 0 C21.388125 -0.061875 42.77625 -0.12375 64.8125 -0.1875 C74.89002808 -0.22846802 74.89002808 -0.22846802 85.17114258 -0.27026367 C93.4642334 -0.28381348 93.4642334 -0.28381348 97.36381531 -0.28633118 C100.04982434 -0.29089592 102.73538852 -0.30019556 105.42131042 -0.31672668 C136.15974069 -0.49722842 167.45792578 1.66158071 191 24 C205.07659383 38.39190953 210.60258977 56.34427138 210.5 76.1875 C210.49500488 77.46036865 210.49000977 78.7332373 210.48486328 80.04467773 C210.29832511 90.15697624 208.88786541 98.69393918 205 108 C204.5771875 109.07765625 204.154375 110.1553125 203.71875 111.265625 C200.03587467 119.61633069 194.40566461 125.66806966 188 132 C187.01193359 133.00353516 187.01193359 133.00353516 186.00390625 134.02734375 C166.04694525 152.95426806 132.84302433 159.20236263 106.25976562 159.11352539 C105.08916344 159.11364593 103.91856125 159.11376646 102.71248627 159.11389065 C98.94372115 159.1131475 95.17500621 159.10554659 91.40625 159.09765625 C89.0712893 159.09618498 86.73632828 159.09516541 84.40136719 159.09460449 C75.76757308 159.08937309 67.13378604 159.07541183 58.5 159.0625 C29.5425 159.0315625 29.5425 159.0315625 0 159 C0 106.53 0 54.06 0 0 Z " fill="#7C12F2" transform="translate(532,309)"/>
<path d="M0 0 C20.150625 -0.061875 40.30125 -0.12375 61.0625 -0.1875 C67.35836182 -0.21481201 73.65422363 -0.24212402 80.14086914 -0.27026367 C87.99890137 -0.28381348 87.99890137 -0.28381348 91.71043396 -0.28633118 C94.23075463 -0.29085282 96.75107003 -0.3012194 99.27134705 -0.31672668 C113.79068445 -0.4013748 128.15297182 -0.03928731 142.60327148 1.34643555 C143.85539712 1.46509633 145.10752275 1.58375711 146.39759159 1.70601368 C164.13450433 3.55862586 181.09276607 7.88516107 197 16 C198.59328125 16.79857422 198.59328125 16.79857422 200.21875 17.61328125 C217.93976067 27.18171356 230.01602604 42.84077548 236.8125 61.625 C237.23731929 63.07515472 237.6328964 64.53417085 238 66 C238.20367188 66.78246094 238.40734375 67.56492187 238.6171875 68.37109375 C240.9450165 79.35653337 240.17609032 90.83316453 240 102 C239.34 102 238.68 102 238 102 C237.97812622 101.07272095 237.97812622 101.07272095 237.95581055 100.12670898 C237.37261298 77.92192542 235.41428561 56.91444327 221 39 C220.20142578 37.95779297 220.20142578 37.95779297 219.38671875 36.89453125 C201.29982582 14.57729105 168.67864235 7.51414688 141.6546936 4.48873901 C135.29259446 3.86228103 128.95251209 3.82490913 122.56396484 3.79467773 C121.22109501 3.78494041 119.87822809 3.77479382 118.53536415 3.76427555 C114.9682205 3.73744781 111.40106478 3.71615565 107.83387756 3.69608307 C104.47557275 3.67632606 101.11730703 3.65147941 97.7590332 3.6270752 C87.96438945 3.55881935 78.16969073 3.49864396 68.375 3.4375 C35.519375 3.2209375 35.519375 3.2209375 2 3 C2 61.08 2 119.16 2 179 C48.2 179 94.4 179 142 179 C142 179.66 142 180.32 142 181 C127.94251812 182.34341837 113.85229733 182.13115095 99.74593353 182.10128021 C96.57537446 182.09551223 93.40481661 182.09531318 90.23425293 182.09460449 C81.01033055 182.08939284 71.78641479 182.07543163 62.5625 182.0625 C41.916875 182.041875 21.27125 182.02125 0 182 C0 121.94 0 61.88 0 0 Z " fill="#FCFAFE" transform="translate(530,532)"/>
<path d="M0 0 C0 3 0 3 -2.40625 5.69921875 C-3.4299968 6.70302243 -4.4616054 7.69885649 -5.5 8.6875 C-6.02464844 9.19861328 -6.54929687 9.70972656 -7.08984375 10.23632812 C-8.38660904 11.49772708 -9.69246117 12.74977212 -11 14 C-11.66 13.67 -12.32 13.34 -13 13 C-11.58791833 11.39179588 -10.17013964 9.78859292 -8.75 8.1875 C-7.96109375 7.29417969 -7.1721875 6.40085937 -6.359375 5.48046875 C-4.34120555 3.35871775 -2.40083295 1.65745577 0 0 Z " fill="#FDFBFE" transform="translate(752,676)"/>
<path d="M0 0 C-0.99 1.485 -0.99 1.485 -2 3 C-5.625 3.6875 -5.625 3.6875 -9 4 C-9 3.34 -9 2.68 -9 2 C-10.32 1.67 -11.64 1.34 -13 1 C-8.61414671 0.29826347 -4.44209357 -0.10834375 0 0 Z " fill="#EADDFC" transform="translate(690,708)"/>
<path d="M0 0 C0.33 0.66 0.66 1.32 1 2 C1.66 2.33 2.32 2.66 3 3 C2.1875 5.4375 2.1875 5.4375 1 8 C0.01 8.33 -0.98 8.66 -2 9 C-1.34 6.03 -0.68 3.06 0 0 Z " fill="#F0E6FC" transform="translate(764,648)"/>
<path d="M0 0 C0.33 0 0.66 0 1 0 C0.67 2.97 0.34 5.94 0 9 C-0.66 9 -1.32 9 -2 9 C-1.125 1.125 -1.125 1.125 0 0 Z " fill="#FDFCFE" transform="translate(854,658)"/>
<path d="M0 0 C2.1519437 3.22791555 2.20086443 4.28400809 2 8 C1.01 7.67 0.02 7.34 -1 7 C-0.67 4.69 -0.34 2.38 0 0 Z " fill="#EDE2FC" transform="translate(855,599)"/>
</svg>
