<?xml version="1.0" encoding="UTF-8"?>
<svg version="1.1" xmlns="http://www.w3.org/2000/svg" width="960" height="960">
<path d="M0 0 C279.84 0 559.68 0 848 0 C842.23532775 68.02313254 842.23532775 68.02313254 839.91418669 93.92836144 C839.54866112 98.01149389 839.18477381 102.0947725 838.82063174 106.17802852 C838.18920866 113.25609388 837.55684493 120.33407464 836.92377663 127.41199303 C835.98245563 137.93632616 835.0427261 148.46080102 834.10326568 158.98530038 C832.52091952 176.71135609 830.93734341 194.4373017 829.35300446 212.1631794 C827.78796969 229.67309065 826.22345747 247.18304845 824.65962982 264.69306755 C824.56168802 265.78970635 824.46374622 266.88634516 824.36283649 268.01621544 C823.96514707 272.46909811 823.56746124 276.9219811 823.16978019 281.37486451 C819.45649121 322.95299278 815.74178441 364.53099427 812.02632644 406.10892877 C808.72840181 443.01451469 805.43139388 479.92018238 802.13525391 516.82592773 C802.03011663 518.00311151 801.92497936 519.18029528 801.8166561 520.39315129 C801.49857319 523.95461004 801.18049054 527.51606881 800.86240792 531.07752758 C800.43987974 535.80842471 800.01735103 540.5393218 799.59482193 545.27021885 C799.49055311 546.43767926 799.3862843 547.60513968 799.27885582 548.80797768 C796.02310929 585.26130311 792.76659449 621.7145599 789.50994421 658.16780459 C788.43111499 670.24366062 787.35233423 682.31952097 786.27370167 694.39539456 C786.12816603 696.02474314 786.12816603 696.02474314 785.97969028 697.68700786 C785.834469 699.31283831 785.834469 699.31283831 785.68631396 700.97151382 C783.82396866 721.82146715 781.96129356 742.67139097 780.09788021 763.52124888 C779.16458703 773.96403018 778.23157849 784.40683682 777.29898515 794.84968064 C776.67636039 801.82126961 776.05334978 808.79282403 775.4300229 815.76435027 C775.07484423 819.73692003 774.71983113 823.70950441 774.36528185 827.6821304 C774.04258634 831.29779965 773.71940122 834.9134248 773.39583071 838.52901584 C773.22521175 840.4369188 773.05510879 842.34486788 772.8850289 844.25281897 C772.29502127 850.83935677 771.67541243 857.42164716 771 864 C765.68102655 866.06220873 760.39281369 867.83207577 754.89111328 869.33056641 C754.11563644 869.54500648 753.34015961 869.75944656 752.54118347 869.98038483 C749.96849745 870.690895 747.39441536 871.39620427 744.8203125 872.1015625 C742.97271477 872.61081404 741.12521351 873.12041568 739.27780151 873.63034058 C735.31141638 874.72445299 731.34442988 875.81634686 727.37695312 876.90649414 C721.03412216 878.64941251 714.69269775 880.397408 708.3515625 882.14648438 C706.18048127 882.74530141 704.00939972 883.34411732 701.83831787 883.94293213 C700.21433704 884.39086498 700.21433704 884.39086498 698.55754852 884.84784698 C695.23607464 885.76380713 691.91446999 886.67929172 688.59283447 887.59466553 C668.88511568 893.0264629 649.18753291 898.49438187 629.49261475 903.97238159 C620.24551413 906.54436025 610.99784381 909.11428878 601.75 911.68359375 C600.82767452 911.93984339 599.90534904 912.19609303 598.95507431 912.4601078 C584.13883294 916.57610713 569.32018688 920.68338688 554.5 924.78515625 C553.48104204 925.06717392 552.46208408 925.34919159 551.41224861 925.63975525 C540.31336382 928.71133048 529.21375566 931.78027337 518.11303711 934.84521484 C514.27195564 935.90586286 510.43089576 936.96658906 506.58984375 938.02734375 C505.19344823 938.41292198 505.19344823 938.41292198 503.7688427 938.80628967 C492.0425327 942.04478382 480.32172385 945.30209211 468.60771561 948.58479881 C464.4809322 949.74037592 460.35292001 950.89155607 456.22484779 952.04251957 C453.124952 952.90734144 450.02638422 953.7765335 446.92944336 954.65188599 C443.64392009 955.58053002 440.35559808 956.49851359 437.06640625 957.4140625 C436.13268692 957.68138687 435.19896759 957.94871124 434.23695374 958.22413635 C432.94512428 958.58039345 432.94512428 958.58039345 431.62719727 958.94384766 C430.89590103 959.14966461 430.1646048 959.35548157 429.41114807 959.5675354 C423.51951854 960.62426072 418.46745619 959.8167062 412.75830078 958.2253418 C412.06231057 958.03400854 411.36632036 957.84267529 410.64923954 957.64554405 C408.32880633 957.00529572 406.01217021 956.35227693 403.6953125 955.69921875 C402.02319004 955.2350175 400.35084588 954.77161422 398.67829895 954.3089447 C394.11718229 953.04479795 389.55924281 951.76952158 385.00175095 950.49237823 C380.13264599 949.13006475 375.26062475 947.77825941 370.38891602 946.42529297 C361.06947384 943.83545467 351.7525698 941.23660529 342.436553 938.63447571 C331.27879862 935.51834662 320.11801278 932.41314044 308.95703125 929.30859375 C304.9614031 928.19702163 300.96580171 927.08535334 296.97021484 925.97363281 C295.98004364 925.69813662 294.98987244 925.42264042 293.96969604 925.13879585 C286.90077241 923.17180651 279.83236322 921.20297535 272.76416016 919.23339844 C238.90855801 909.80015653 205.03798143 900.42156803 171.16229343 891.06074429 C170.22700495 890.80229422 169.29171646 890.54384415 168.3280859 890.27756226 C166.54600287 889.78512963 164.76391384 889.29271871 162.98181629 888.80033863 C145.40426499 883.94368342 127.82942178 879.07726363 110.25485229 874.20983243 C106.48924889 873.16692886 102.72362746 872.12409035 98.95800781 871.08124542 C91.63865481 869.05422522 84.31932087 867.02713621 77 865 C68.99977951 776.45543302 61.03934049 687.9072995 34.44543076 389.8060894 C34.36267872 388.87744312 34.27992668 387.94879683 34.194667 386.99200975 C33.52399012 379.46563617 32.85331584 371.93926235 32.18265118 364.41288767 C29.52910676 334.63412937 26.87436271 304.85547822 24.21875 275.0769043 C21.19177259 241.13403201 18.16567205 207.19108171 15.14087832 173.24801475 C14.81986984 169.64581486 14.49885836 166.04361524 14.177845 162.44141579 C14.09887613 161.55527251 14.01990726 160.66912924 13.93854539 159.75613313 C12.75173654 146.43865009 11.56424019 133.12122846 10.37638474 119.80383873 C9.0381477 104.80047125 7.70082083 89.79702297 6.36474477 74.79346289 C5.61897381 66.41908669 4.87246511 58.044777 4.12490897 49.67055996 C3.5687826 43.4398458 3.01402849 37.2090102 2.45982917 30.97812436 C2.23472265 28.44970405 2.00916131 25.92132418 1.78311662 23.39298757 C1.4779108 19.97849205 1.1743129 16.56385741 0.87114525 13.14918041 C0.73687856 11.6536412 0.73687856 11.6536412 0.59989941 10.12788907 C0.51993985 9.22347003 0.43998029 8.319051 0.35759771 7.38722533 C0.28800217 6.60636783 0.21840663 5.82551032 0.14670213 5.02099047 C0.0254793 3.3510067 0 1.67437772 0 0 Z " fill="#264DE4" transform="translate(56,0)"/>
<path d="M0 0 C174.9 0 349.8 0 530 0 C529.40148997 10.17467054 528.77810539 20.27314277 527.81084251 30.40820503 C527.60751952 32.53880995 527.40793093 34.66974104 527.20906067 36.80076599 C526.91891944 39.90619609 526.62733307 43.01148524 526.33456421 46.1166687 C525.53049083 54.65116333 524.73892108 63.18682143 523.94921875 71.72265625 C523.86738405 72.6067473 523.78554935 73.49083836 523.70123482 74.40172005 C522.01957372 92.59259013 520.44737486 110.79212704 518.8957901 128.99447632 C515.96638389 163.35332843 512.84601999 197.69287391 509.67388153 232.03011322 C506.79479545 263.20006472 503.97472916 294.37325116 501.3125 325.5625 C499.07051517 351.82839175 496.72850659 378.0825701 494.28287506 404.33029175 C491.5652766 433.49845935 489.00436352 462.67867831 486.52358055 491.86792946 C486.17696754 495.94459846 485.82920307 500.02116818 485.48046875 504.09765625 C485.4149519 504.86358723 485.34943504 505.6295182 485.28193283 506.41865921 C484.3202736 517.62702633 483.27296301 528.82218152 482 540 C481.30664551 540.1858667 480.61329102 540.3717334 479.89892578 540.56323242 C466.62432349 544.12382793 453.35665094 547.70398174 440.12109375 551.40722656 C436.41536881 552.44285043 432.7075475 553.47092405 429 554.5 C427.49999068 554.91663312 425.99999066 555.33329973 424.5 555.75 C415.5 558.25 415.5 558.25 413.25146484 558.87451172 C411.74652608 559.29260466 410.24164354 559.7109 408.73681641 560.12939453 C405.06280567 561.15087905 401.38799244 562.16921195 397.7109375 563.1796875 C389.0736261 565.55851687 380.46875023 568.0305447 371.875 570.5625 C363.94669302 572.8963605 356.01766679 575.03099962 347.984375 576.97265625 C343.27380046 578.15029989 338.64218898 579.58026314 334 581 C327.34781962 583.03362692 320.69262971 584.89413091 313.93310547 586.53344727 C308.96959073 587.74167943 304.04459323 589.06156037 299.125 590.4375 C298.38113037 590.64552246 297.63726074 590.85354492 296.87084961 591.06787109 C293.77850488 591.93502068 290.68730814 592.80621903 287.59619141 593.67773438 C285.21050161 594.34959698 282.82401788 595.01858585 280.4375 595.6875 C279.72416504 595.88980225 279.01083008 596.09210449 278.27587891 596.30053711 C276.18841045 596.88536929 274.09578018 597.44575408 272 598 C271.24082275 598.21229248 270.48164551 598.42458496 269.69946289 598.64331055 C264.75428133 599.91739209 261.51916724 600.11447481 256.5625 598.4375 C255.36367188 598.05335938 254.16484375 597.66921875 252.9296875 597.2734375 C252.29514648 597.06428711 251.66060547 596.85513672 251.00683594 596.63964844 C247.43252547 595.50039133 243.80723193 594.54553153 240.1875 593.5625 C234.3749817 591.96154255 228.58780956 590.29239639 222.8125 588.5625 C215.00164387 586.22805066 207.12240288 584.19033612 199.2277832 582.16040039 C193.27041479 580.61957332 187.39832623 578.92410402 181.53515625 577.0546875 C176.70238004 575.61286476 171.82249689 574.37649843 166.9375 573.125 C158.58033381 570.98283436 150.31543298 568.63967573 142.06811523 566.10986328 C137.07499714 564.58958851 132.07470263 563.21895189 127 562 C120.05604262 560.32001031 113.25213416 558.30141076 106.421875 556.2109375 C101.30751155 554.65780259 96.19520222 553.25690376 91 552 C84.04982852 550.31681014 77.23079698 548.31299659 70.39331055 546.22192383 C63.86023398 544.23144159 57.29376221 542.44642497 50.67578125 540.76171875 C48 540 48 540 47 539 C46.69661574 536.51847389 46.45378245 534.05469416 46.24731445 531.56445312 C46.17866432 530.77989778 46.11001419 529.99534243 46.03928375 529.18701267 C45.80974664 526.5521044 45.58659874 523.91669212 45.36328125 521.28125 C45.20199225 519.41821044 45.04025548 517.55520961 44.87809753 515.69224548 C44.53198096 511.70713861 44.18850434 507.72181676 43.84716797 503.73629761 C43.04512359 494.37216776 42.23166133 485.00902875 41.4176445 475.64593315 C41.23506494 473.54544958 41.05265467 471.44495129 40.87041092 469.34443855 C39.6692147 455.50539669 38.43327929 441.67028128 37.13671875 427.83984375 C37.06550623 427.07876438 36.99429371 426.31768501 36.92092323 425.53354263 C36.32214444 419.13657601 35.72152453 412.73979216 35.1078186 406.34423828 C34.74531733 402.56185927 34.38798761 398.77901992 34.03125 394.99609375 C33.92540085 393.91472641 33.8195517 392.83335907 33.710495 391.71922302 C33.61589493 390.70900589 33.52129486 389.69878876 33.42382812 388.65795898 C33.34136841 387.79992172 33.25890869 386.94188446 33.1739502 386.05784607 C32.92672282 381.71187079 33 377.35300155 33 373 C67.98 373 102.96 373 139 373 C140.09268907 376.27806722 140.36491262 379.13161811 140.66430664 382.57592773 C140.72297409 383.23984024 140.78164154 383.90375275 140.84208679 384.58778381 C141.03524178 386.78607455 141.22292327 388.98479125 141.41015625 391.18359375 C141.54307434 392.71999087 141.6761693 394.25637269 141.80943298 395.79273987 C142.08841979 399.01973971 142.36458567 402.24696633 142.63891602 405.47436523 C142.98820245 409.57986934 143.34538881 413.68464047 143.7049036 417.78925991 C143.98221183 420.96771227 144.25469017 424.14656562 144.52584648 427.32554817 C144.65542391 428.83691063 144.78656431 430.34814003 144.91938972 431.8592205 C145.68396207 440.58676095 146.19211047 449.23361355 146 458 C146.98484375 458.12117188 147.9696875 458.24234375 148.984375 458.3671875 C153.16913284 458.96830136 157.17616819 460.01182745 161.25 461.125 C162.93469732 461.57756255 164.6196061 462.02933839 166.3046875 462.48046875 C167.21444336 462.72458496 168.12419922 462.96870117 169.06152344 463.22021484 C172.20632207 464.0547518 175.35610585 464.86773436 178.5078125 465.67578125 C189.61895249 468.52452574 200.69233201 471.44137161 211.70410156 474.65332031 C221.10932846 477.36878735 230.59458826 479.77703444 240.07910156 482.19702148 C241.33432617 482.51743408 242.58955078 482.83784668 243.8828125 483.16796875 C245.09356445 483.47524902 246.30431641 483.7825293 247.55175781 484.09912109 C250.71656357 484.92595013 253.85171978 485.82440836 256.9921875 486.73828125 C264.1454595 488.68215537 269.69187248 488.08424151 276.6875 485.8125 C283.08235615 483.83003795 289.49387336 482.07897409 296 480.5 C302.2179014 478.98220712 308.37354226 477.35299289 314.5 475.5 C321.46811394 473.39244191 328.48756908 471.6022732 335.55859375 469.875 C340.91897479 468.5534885 346.21578195 467.09777244 351.5 465.5 C357.91893224 463.56385049 364.37298298 461.82352154 370.875 460.1875 C371.73802734 459.96835937 372.60105469 459.74921875 373.49023438 459.5234375 C374.29525391 459.32363281 375.10027344 459.12382813 375.9296875 458.91796875 C376.64366699 458.74031982 377.35764648 458.5626709 378.09326172 458.37963867 C380 458 380 458 383 458 C382.98935013 457.33006516 382.97870026 456.66013031 382.96772766 455.96989441 C382.90841788 449.35103066 383.25249297 442.88299902 383.91796875 436.30078125 C384.06413635 434.78683777 384.06413635 434.78683777 384.21325684 433.24230957 C384.42374867 431.06656614 384.63653358 428.89104355 384.85140991 426.71572876 C385.4324303 420.83234995 385.99663884 414.94735289 386.5625 409.0625 C386.73974861 407.22556328 386.73974861 407.22556328 386.920578 405.35151672 C388.36371723 390.33137837 389.68382718 375.3001868 390.99716187 360.26821899 C391.29207546 356.89351338 391.58933066 353.51901956 391.88671875 350.14453125 C391.96990356 349.18067505 392.05308838 348.21681885 392.13879395 347.22375488 C392.94258511 338.12607252 393.99041442 329.08627025 395 320 C273.89 320 152.78 320 28 320 C27.21499304 316.85997218 26.75714879 314.16735522 26.47509766 310.9765625 C26.38465683 309.97068085 26.294216 308.96479919 26.20103455 307.92843628 C26.10633377 306.83830231 26.011633 305.74816833 25.9140625 304.625 C25.8124733 303.48402863 25.71088409 302.34305725 25.60621643 301.16751099 C25.27578759 297.44529534 24.9501518 293.72268006 24.625 290 C24.40027079 287.44774296 24.17541685 284.8954969 23.95043945 282.34326172 C23.39646545 276.04504859 22.84726458 269.7464301 22.29998779 263.44763184 C22.02575744 260.29601931 21.74985664 257.1445595 21.47314453 253.99316406 C21.10386345 249.78343456 20.73910851 245.5733455 20.3793335 241.36279297 C20.25308121 239.89002373 20.12555207 238.4173633 19.99664307 236.94482422 C19.82037578 234.92451647 19.65028683 232.90367256 19.48046875 230.8828125 C19.38660889 229.78340332 19.29274902 228.68399414 19.19604492 227.55126953 C18.94703573 223.04057496 19 218.51756251 19 214 C146.38 214 273.76 214 405 214 C405 208.72 405 203.44 405 198 C405.35033877 193.01434636 405.7495586 188.06771372 406.2421875 183.09765625 C406.37262346 181.72316554 406.50233502 180.34860593 406.63137817 178.97398376 C406.9693946 175.3910319 407.31592078 171.80895972 407.66479492 168.22705078 C408.2163102 162.54791666 408.75401901 156.86744771 409.29334259 151.18714523 C409.49085207 149.11168917 409.68993842 147.03638826 409.88909912 144.96109009 C410.82933303 135.11017639 411.65392738 125.25253576 412.3600769 115.3818512 C412.43090485 114.43140427 412.50173279 113.48095734 412.57470703 112.50170898 C412.63336945 111.67525375 412.69203186 110.84879852 412.75247192 109.99729919 C413 108 413 108 414 106 C280.35 106 146.7 106 9 106 C6.74867649 87.98941192 6.74867649 87.98941192 6.13037109 81.3215332 C6.06180405 80.58905365 5.993237 79.8565741 5.92259216 79.10189819 C5.70343581 76.75177273 5.48812566 74.40131879 5.2734375 72.05078125 C5.11941379 70.37842774 4.96532923 68.70607984 4.81118774 67.03373718 C4.49166601 63.55904164 4.17435765 60.08415206 3.85839844 56.60913086 C3.45632489 52.19131841 3.046348 47.77427769 2.63443565 43.35737324 C2.31467816 39.91475144 2.00031892 36.47165155 1.687397 33.02840233 C1.53861273 31.40060112 1.38795158 29.77297016 1.23524094 28.14553261 C1.02144494 25.86092662 0.81531277 23.57574014 0.61083984 21.2902832 C0.49251801 19.9995137 0.37419617 18.7087442 0.25228882 17.37886047 C-0.08095574 11.59488862 0 5.79356387 0 0 Z " fill="#FEFEFE" transform="translate(215,177)"/>
<path d="M0 0 C114.18 0 228.36 0 346 0 C345.42395937 10.94477205 344.85022552 21.60622496 343.5625 32.4375 C342.48471619 41.95011362 341.6265766 51.44721979 341 61 C340.30742218 71.52233551 339.29412638 81.97411845 338.10986328 92.45166016 C337.02339848 102.26582818 336.27782365 112.08819666 335.64648438 121.94140625 C335.53916992 123.59076172 335.53916992 123.59076172 335.4296875 125.2734375 C335.34050049 126.71855713 335.34050049 126.71855713 335.24951172 128.19287109 C334.98533631 131.16497373 334.50295916 134.05991339 334 137 C333.82762694 139.39407023 333.68422206 141.79032073 333.5625 144.1875 C333.24274228 149.87592465 332.76465945 155.5253293 332.125 161.1875 C331.03334995 170.94090463 330.27338244 180.71744763 329.5 190.5 C328.7066061 200.52301321 327.90747963 210.53263643 326.76953125 220.5234375 C325.81807625 229.16452065 325.18623962 237.83474217 324.5 246.5 C323.70623535 256.52299366 322.90748155 266.53261965 321.76953125 276.5234375 C320.81807625 285.16452065 320.18623962 293.83474217 319.5 302.5 C318.70635613 312.52146858 317.90975735 322.52998591 316.76953125 332.51904297 C315.64011101 342.7601999 314.92638829 353.04623131 314.140625 363.31835938 C314.02085851 364.85026239 313.90106772 366.3821635 313.78125 367.9140625 C313.70783386 368.90589035 313.70783386 368.90589035 313.63293457 369.91775513 C313.25861207 374.66473621 312.71224323 379.37829832 312.12721252 384.10385132 C310.64103383 396.49632951 309.59905316 408.93233694 308.49389648 421.36328125 C308.24938085 424.09683278 308.00415488 426.83032049 307.75897217 429.56381226 C307.16599433 436.17978149 306.57557195 442.79597629 305.98611241 449.41225982 C305.50645746 454.79555497 305.02586897 460.17876605 304.54463387 465.56192017 C304.47580954 466.3318097 304.40698521 467.10169922 304.33607529 467.89491874 C304.19620098 469.4595554 304.05632477 471.02419189 303.91644669 472.58882821 C302.60885191 487.21647588 301.30420147 501.844385 300.00056083 516.47238553 C298.88498791 528.98928987 297.76680278 541.50595863 296.64672852 554.02246094 C295.34200707 568.60235016 294.03898221 583.18238944 292.7385717 597.76266384 C292.59956698 599.32113605 292.46055988 600.87960805 292.32155037 602.43807983 C292.2531783 603.20462381 292.18480623 603.97116779 292.11436228 604.76094037 C291.63536576 610.12982623 291.15517337 615.49860434 290.6744976 620.86734009 C290.08773642 627.4212963 289.50283482 633.97541542 288.9202302 640.52974248 C288.6236581 643.86567291 288.32602457 647.20149893 288.02667427 650.53718185 C286.92064751 662.86722309 285.83028739 675.18336142 285.20195103 687.54820251 C284.8627582 693.3457712 284.21686698 699.10592102 283.5625 704.875 C283.29671868 707.28383692 283.03109444 709.69269118 282.765625 712.1015625 C282.63607422 713.26461914 282.50652344 714.42767578 282.37304688 715.62597656 C281.83429439 720.49872483 281.32160761 725.37407967 280.8125 730.25 C280.65237471 731.77604492 280.49222213 733.30208697 280.33203125 734.828125 C280.22246094 735.87484375 280.11289062 736.9215625 280 738 C257.57455311 744.5744786 235.14630142 751.13078448 212.56298828 757.14453125 C202.51447827 759.83333668 192.50754094 762.66346694 182.5 765.5 C170.43163995 768.92065074 158.35253542 772.28140692 146.23046875 775.5078125 C138.46110671 777.58427883 130.72794382 779.77470357 123 782 C114.18659974 784.53720014 105.36108286 787.00959433 96.5 789.375 C86.19114543 792.12725618 75.90435747 794.95253686 65.625 797.8125 C64.10490293 798.23487712 62.58480201 798.65724036 61.06469727 799.07958984 C53.89475787 801.07309714 46.72716065 803.07453954 39.56439209 805.09367371 C36.30616902 806.01153351 33.04690786 806.92567397 29.78753662 807.83944702 C28.24343006 808.27346757 26.69983292 808.70930541 25.15679932 809.14712524 C23.00032769 809.75892537 20.84216656 810.36441177 18.68359375 810.96875 C16.85139282 811.48598633 16.85139282 811.48598633 14.98217773 812.01367188 C10.03923968 813.23796651 5.01016216 814.08906143 0 815 C0 779.03 0 743.06 0 706 C7.86361777 702.6298781 7.86361777 702.6298781 11.87109375 701.640625 C12.76248047 701.41568359 13.65386719 701.19074219 14.57226562 700.95898438 C15.51779297 700.72501953 16.46332031 700.49105469 17.4375 700.25 C25.6769653 698.15970533 33.85146841 695.92038897 42 693.5 C50.99908051 690.8315655 60.03687637 688.38895466 69.12890625 686.05859375 C73.95957122 684.81412881 78.74512504 683.51433108 83.5 682 C89.21951267 680.1784514 95.00003626 678.67728154 100.8125 677.1875 C108.92271714 675.10686838 116.97254148 672.87981598 125 670.5 C133.99924508 667.83208871 143.0368555 665.38896001 152.12890625 663.05859375 C157.96412691 661.55533746 163.71137019 659.88896797 169.453125 658.05859375 C175.33933378 656.30180677 181.29746945 654.81909046 187.24731445 653.29443359 C194.14170446 651.51695157 200.97698425 649.59827723 207.77246094 647.47290039 C211.05981113 646.46611815 213.5121467 646 217 646 C217.08041031 644.27867104 217.08041031 644.27867104 217.16244507 642.52256775 C217.72753979 630.88569698 218.57707353 619.2959476 219.6015625 607.69140625 C219.7604464 605.86531613 219.91908497 604.03920464 220.07749939 602.21307373 C220.50109427 597.34119504 220.92901628 592.46970589 221.35802078 587.59830093 C221.62780012 584.53066006 221.89625409 581.46290597 222.16427612 578.39511108 C224.68997416 549.48906918 227.30123426 520.59170143 229.99197388 491.70059204 C232.36659107 466.19767491 234.60135651 440.68441587 236.78359985 415.16436768 C238.77592207 391.87015947 240.84626538 368.586512 243.0625 345.3125 C245.12077401 323.69665396 247.04740342 302.0737386 248.875 280.4375 C251.48697169 249.517035 254.30190608 218.61700324 257.16381836 187.71875 C257.41612727 184.99442773 257.66841927 182.27010389 257.92067146 179.54577637 C258.08484339 177.77274236 258.24905181 175.99971173 258.41329765 174.22668457 C259.4174709 163.3820787 260.40732184 152.53648027 261.36328125 141.6875 C261.45961853 140.59425919 261.55595581 139.50101837 261.6552124 138.37464905 C262.07334288 133.61657675 262.4876737 128.85820505 262.89697266 124.09936523 C263.00261787 122.88585388 263.00261787 122.88585388 263.11039734 121.64782715 C263.29077033 119.57583594 263.46864245 117.50362741 263.64624023 115.43139648 C263.97194561 112.27212179 264.47786559 109.13280645 265 106 C90.1 106 -84.8 106 -265 106 C-265.33 107.32 -265.66 108.64 -266 110 C-266 108.35 -266 106.7 -266 105 C-178.22 105 -90.44 105 0 105 C0 70.35 0 35.7 0 0 Z " fill="#2965F0" transform="translate(480,71)"/>
<path d="M0 0 C34.98 0 69.96 0 106 0 C107.09268907 3.27806722 107.36491262 6.13161811 107.66430664 9.57592773 C107.72297409 10.23984024 107.78164154 10.90375275 107.84208679 11.58778381 C108.03524178 13.78607455 108.22292327 15.98479125 108.41015625 18.18359375 C108.54307434 19.71999087 108.6761693 21.25637269 108.80943298 22.79273987 C109.08841979 26.01973971 109.36458567 29.24696633 109.63891602 32.47436523 C109.98820245 36.57986934 110.34538881 40.68464047 110.7049036 44.78925991 C110.98221183 47.96771227 111.25469017 51.14656562 111.52584648 54.32554817 C111.65542391 55.83691063 111.78656431 57.34814003 111.91938972 58.8592205 C112.68396207 67.58676095 113.19211047 76.23361355 113 85 C113.98484375 85.12117187 114.9696875 85.24234375 115.984375 85.3671875 C120.16913284 85.96830136 124.17616819 87.01182745 128.25 88.125 C129.93469732 88.57756255 131.6196061 89.02933839 133.3046875 89.48046875 C134.21444336 89.72458496 135.12419922 89.96870117 136.06152344 90.22021484 C139.20632207 91.0547518 142.35610585 91.86773436 145.5078125 92.67578125 C155.79097039 95.31224244 166.0581606 97.96517575 176.25 100.9375 C195.34284003 106.49876003 214.69358304 111.24380004 234 116 C233.67 116.66 233.34 117.32 233 118 C232.90797438 119.45717088 232.87806724 120.91849765 232.87974548 122.37857056 C232.87837082 123.29846268 232.87699615 124.2183548 232.87557983 125.16612244 C232.87917511 126.17816238 232.88277039 127.19020233 232.88647461 128.23291016 C232.88625557 129.82805702 232.88625557 129.82805702 232.8860321 131.45542908 C232.88673081 134.98332737 232.89452129 138.51117339 232.90234375 142.0390625 C232.90420808 144.48001069 232.90563191 146.92095926 232.90663147 149.36190796 C232.91045549 155.79647855 232.9202848 162.23102668 232.93133545 168.66558838 C232.94155205 175.22757666 232.94612962 181.78956856 232.95117188 188.3515625 C232.96190716 201.2343846 232.97879085 214.11719111 233 227 C231.43261249 226.6976946 229.86583722 226.3922141 228.29931641 226.08544922 C227.42675201 225.91568573 226.55418762 225.74592224 225.65518188 225.5710144 C221.48271759 224.6736984 217.44366459 223.40324825 213.375 222.125 C207.36236998 220.27680079 201.36532798 218.53707282 195.25 217.0625 C188.58168367 215.44736006 182.01571272 213.57355627 175.4375 211.625 C166.29252384 208.91656011 157.11134534 206.42683741 147.87280273 204.05908203 C142.03302237 202.55455171 136.28133177 200.88680143 130.53515625 199.0546875 C125.70238004 197.61286476 120.82249689 196.37649843 115.9375 195.125 C107.58033381 192.98283436 99.31543298 190.63967573 91.06811523 188.10986328 C86.07499714 186.58958851 81.07470263 185.21895189 76 184 C69.9299 182.53142742 63.97134828 180.82754819 58 179 C51.96913493 177.1546114 45.94337771 175.41868818 39.8125 173.9375 C34.01850445 172.53038679 28.28531032 170.98613507 22.5625 169.3125 C21.82169189 169.09779053 21.08088379 168.88308105 20.31762695 168.66186523 C15.12398766 167.12398766 15.12398766 167.12398766 14 166 C13.69661574 163.51847389 13.45378245 161.05469416 13.24731445 158.56445312 C13.17866432 157.77989778 13.11001419 156.99534243 13.03928375 156.18701267 C12.80974664 153.5521044 12.58659874 150.91669212 12.36328125 148.28125 C12.20199225 146.41821044 12.04025548 144.55520961 11.87809753 142.69224548 C11.53198096 138.70713861 11.18850434 134.72181676 10.84716797 130.73629761 C10.04512359 121.37216776 9.23166133 112.00902875 8.4176445 102.64593315 C8.23506494 100.54544958 8.05265467 98.44495129 7.87041092 96.34443855 C6.6692147 82.50539669 5.43327929 68.67028128 4.13671875 54.83984375 C4.06550623 54.07876438 3.99429371 53.31768501 3.92092323 52.53354263 C3.32214444 46.13657601 2.72152453 39.73979216 2.1078186 33.34423828 C1.74531733 29.56185927 1.38798761 25.77901992 1.03125 21.99609375 C0.92540085 20.91472641 0.8195517 19.83335907 0.710495 18.71922302 C0.61589493 17.70900589 0.52129486 16.69878876 0.42382812 15.65795898 C0.34136841 14.79992172 0.25890869 13.94188446 0.1739502 13.05784607 C-0.07327718 8.71187079 0 4.35300155 0 0 Z " fill="#EAEAEB" transform="translate(248,550)"/>
<path d="M0 0 C87.45 0 174.9 0 265 0 C265 34.65 265 69.3 265 105 C314.17 105 363.34 105 414 105 C414 105.33 414 105.66 414 106 C280.35 106 146.7 106 9 106 C6.74867649 87.98941192 6.74867649 87.98941192 6.13037109 81.3215332 C6.06180405 80.58905365 5.993237 79.8565741 5.92259216 79.10189819 C5.70343581 76.75177273 5.48812566 74.40131879 5.2734375 72.05078125 C5.11941379 70.37842774 4.96532923 68.70607984 4.81118774 67.03373718 C4.49166601 63.55904164 4.17435765 60.08415206 3.85839844 56.60913086 C3.45632489 52.19131841 3.046348 47.77427769 2.63443565 43.35737324 C2.31467816 39.91475144 2.00031892 36.47165155 1.687397 33.02840233 C1.53861273 31.40060112 1.38795158 29.77297016 1.23524094 28.14553261 C1.02144494 25.86092662 0.81531277 23.57574014 0.61083984 21.2902832 C0.49251801 19.9995137 0.37419617 18.7087442 0.25228882 17.37886047 C-0.08095574 11.59488862 0 5.79356387 0 0 Z " fill="#E9EAEB" transform="translate(215,177)"/>
<path d="M0 0 C127.05 0 254.1 0 385 0 C385 0.33 385 0.66 385 1 C339.13 1 293.26 1 246 1 C246 35.65 246 70.3 246 106 C167.79 106 89.58 106 9 106 C8.21499304 102.85997218 7.75714879 100.16735522 7.47509766 96.9765625 C7.38465683 95.97068085 7.294216 94.96479919 7.20103455 93.92843628 C7.10633377 92.83830231 7.011633 91.74816833 6.9140625 90.625 C6.8124733 89.48402863 6.71088409 88.34305725 6.60621643 87.16751099 C6.27578759 83.44529534 5.9501518 79.72268006 5.625 76 C5.40027079 73.44774296 5.17541685 70.8954969 4.95043945 68.34326172 C4.39646545 62.04504859 3.84726458 55.7464301 3.29998779 49.44763184 C3.02575744 46.29601931 2.74985664 43.1445595 2.47314453 39.99316406 C2.10386345 35.78343456 1.73910851 31.5733455 1.3793335 27.36279297 C1.25308121 25.89002373 1.12555207 24.4173633 0.99664307 22.94482422 C0.82037578 20.92451647 0.65028683 18.90367256 0.48046875 16.8828125 C0.38660889 15.78340332 0.29274902 14.68399414 0.19604492 13.55126953 C-0.05296427 9.04057496 0 4.51756251 0 0 Z " fill="#EAEAEB" transform="translate(234,391)"/>
<path d="M0 0 C42.9 0 85.8 0 130 0 C129.39504088 10.88926412 128.75833069 21.70212699 127.765625 32.55078125 C127.64582753 33.88387943 127.52627753 35.21699988 127.4069519 36.55014038 C127.09033233 40.07807845 126.76979735 43.60564968 126.44828033 47.13314438 C126.18086016 50.07243563 125.91578028 53.01193626 125.65062141 55.95143223 C123.18193581 83.3085871 120.61617634 110.6565677 118 138 C117.34875656 138.16833847 116.69751312 138.33667694 116.02653503 138.51011658 C113.03161993 139.28518259 110.03729304 140.06249851 107.04296875 140.83984375 C106.01876831 141.10454468 104.99456787 141.36924561 103.93933105 141.64196777 C98.02962936 143.17804224 92.15558323 144.7899321 86.3125 146.5625 C79.4965874 148.61078559 72.63517165 150.36651023 65.72192383 152.05493164 C58.71826857 153.78153885 51.79874291 155.74786524 44.87402344 157.76489258 C37.95356645 159.76543778 30.99112033 161.53238807 23.9921875 163.23510742 C18.08136316 164.68727437 12.30836421 166.37761033 6.53125 168.30078125 C4 169 4 169 0 169 C0 113.23 0 57.46 0 0 Z " fill="#2965F1" transform="translate(480,497)"/>
<path d="M0 0 C49.17 0 98.34 0 149 0 C147.25150768 22.14756937 145.49127895 44.26476866 143.375 66.375 C143.04710279 69.80669801 142.72020575 73.23847678 142.39639282 76.67056274 C142.1995444 78.75686961 142.00056418 80.84297733 141.79867554 82.92880249 C141.00984219 91.28695385 140.52463357 99.60586291 140 108 C93.8 108 47.6 108 0 108 C0 72.36 0 36.72 0 0 Z " fill="#2965F1" transform="translate(480,283)"/>
</svg>
