<svg width="724" height="743" viewBox="0 0 724 743" fill="none" xmlns="http://www.w3.org/2000/svg">
<path fill-rule="evenodd" clip-rule="evenodd" d="M662.388 0C684.695 0 705.343 12.0965 715.804 31.7605C725.827 50.5958 725.402 72.7915 714.693 91.2145L714.328 91.8341L620.467 249.182C609.852 266.975 590.691 278.08 570.21 278.317L569.542 278.321L462.359 278.32L506.908 380.526L507.085 380.825L507.359 381.308C517.85 400.311 517.595 422.903 506.715 441.623L506.348 442.245L412.487 599.593C401.872 617.386 382.711 628.491 362.231 628.728L361.563 628.732L230.008 628.731L135.436 728.691L135.257 728.877C126.358 737.943 114.334 743 101.797 743C98.6632 743 95.5272 742.682 92.4249 742.049C77.1324 738.92 64.4267 728.404 58.3108 713.901L58.1383 713.487L8.36942 598.996L8.10762 598.557L7.83569 598.084C7.79053 598.004 7.74459 597.921 7.69661 597.834C-2.79481 578.833 -2.5407 556.241 8.33807 537.52L8.70463 536.898L99.7406 384.287L32.6608 230.391L33.89 229.763L33.8714 229.671C31.033 215.515 33.3179 200.752 40.6072 187.822L41.0097 187.119L41.3818 186.487L135.244 29.1376C145.86 11.3461 165.022 0.240633 185.5 0H186.168H662.388ZM169.539 627.535L69.8102 627.534L99.1014 695.436L99.1734 695.616C99.659 696.832 100.444 697.498 101.613 697.739C102.656 697.954 103.5 697.733 104.298 697.004L104.437 696.868L169.539 627.535ZM454.632 394.091H153.176C152.843 394.091 152.51 394.103 152.178 394.125L152.086 394.132L234.743 583.606H361.548C366.76 583.606 371.782 580.81 374.637 576.318L374.863 575.951L468.861 418.506C471.665 413.81 471.975 408.36 469.753 403.457C467.191 397.802 461.245 394.091 454.632 394.091ZM121.839 432.998L47.2363 559.008C44.2678 564.024 44.0957 569.897 46.754 575.066L47.036 575.592L47.1862 575.849L47.4873 576.343L48.084 577.232L48.75 578.1L49.3872 578.83L49.4978 578.948L49.9287 579.385L50.3031 579.743C52.6498 581.877 55.5508 583.18 58.7504 583.514L59.4691 583.576L59.8854 583.598L60.4127 583.606H186.992L121.839 432.998ZM102.222 278.625L134.987 353.929L135.625 353.711C141.283 351.813 147.199 350.785 153.18 350.691L154.078 350.684L446.286 350.683L414.935 278.626L102.222 278.625ZM661.556 43.9274H359.024L441.706 233.443H568.464C573.686 233.443 578.712 230.644 581.568 226.15L581.795 225.782L675.799 68.3406C678.602 63.6453 678.912 58.2002 676.692 53.3009C674.183 47.7624 668.428 44.0863 661.977 43.9324L661.556 43.9274ZM312.711 43.9274H186.653C181.469 43.9274 176.469 46.7188 173.625 51.206L173.399 51.5735L79.6431 209.018C76.844 213.718 76.5347 219.175 78.7542 224.085C81.2542 229.618 86.9775 233.284 93.3899 233.438L93.809 233.443H395.175L312.711 43.9274Z" fill="#4E39F9"/>
</svg>
