<svg width="686" height="686" viewBox="0 0 686 686" fill="none" xmlns="http://www.w3.org/2000/svg">
<rect x="120" y="79" width="446" height="499" fill="white"/>
<path d="M336.453 683.053C334.147 682.76 280.773 668.213 217.84 650.733C111.227 621.107 103.2 618.68 99.9067 614.987C97.9601 612.813 96.0134 609 95.6001 606.52C95.1734 604.027 82.9867 468.867 68.5201 306.147C44.9467 41.08 42.4001 9.92 44.1201 6.86666C45.1734 4.98666 47.5334 3.02666 49.3601 2.52C53.6801 1.32 631.653 1.32 635.973 2.52C637.8 3.02666 640.16 4.98666 641.213 6.86666C642.933 9.92 640.4 41 616.853 305.48C602.413 467.827 590.267 602.84 589.867 605.493C589.48 608.133 587.547 612.227 585.573 614.587C582.107 618.72 578.427 619.84 467.333 650.6C404.267 668.053 349.973 682.627 346.667 682.973C343.36 683.32 338.773 683.36 336.453 683.053ZM418.613 534.44C455.613 524.187 487.827 515 490.173 514.013C492.533 513.027 495.347 510.827 496.44 509.107C497.893 506.813 500.88 478.12 507.88 399.333C513.093 340.667 517.347 291.013 517.347 288.987C517.333 286.947 516.12 284.267 514.627 282.987C512.107 280.827 502.893 280.627 380.653 280L249.387 279.333L245.987 275.92C242.733 272.667 242.453 271.147 239.787 242.173C236.613 207.787 236.813 206.347 244.933 204.093C248.333 203.147 295.213 202.68 387.667 202.68C463.387 202.667 525.333 202.52 525.347 202.333C525.347 202.147 526.547 189.4 528 174C531.453 137.453 531.44 133.107 527.867 129.867C525.133 127.4 519.907 127.32 344.2 126.987C216.813 126.733 162.307 127.053 159.84 128.067C157.92 128.867 155.693 130.933 154.907 132.667C153.813 135.067 155.68 160.587 162.707 239.573C167.787 296.64 172.28 344.733 172.693 346.453C173.107 348.16 175 351.013 176.92 352.787L180.387 356H303.347C425.72 356 426.32 356.013 429.827 358.76C434.307 362.293 434.307 364.48 430.027 410.493C426.627 447.027 425.973 449.773 419.627 453.933C417.973 455.013 399.947 460.427 379.547 465.947L342.467 476.013L305.08 465.933C284.507 460.387 266.307 454.947 264.613 453.84C259.547 450.52 257.733 444.253 256 424C254.173 402.72 253.56 400.227 249.16 396.133C246.307 393.467 244.787 393.333 215.853 393.333C199.187 393.333 184.587 393.707 183.387 394.16C182.2 394.613 180.347 396.72 179.253 398.827C177.453 402.293 177.653 407.16 181.28 448.333C186.493 507.493 186.04 504.693 191.107 510.213C195.213 514.693 197.373 515.387 268.667 535.187C332.2 552.813 342.627 555.373 346.667 554.307C349.24 553.627 381.613 544.693 418.613 534.44Z" fill="#DD502A" fill-opacity="0.996078"/>
</svg>
