<?xml version="1.0" encoding="UTF-8"?>
<svg version="1.1" xmlns="http://www.w3.org/2000/svg" width="1000" height="679">
<path d="M0 0 C16.17 0 32.34 0 49 0 C61.817354 37.14119625 74.05985528 74.4644357 86.28144073 111.80465698 C86.98553852 113.95581726 87.68974348 116.10694241 88.39398193 118.25805664 C93.60305982 134.1697285 98.80591116 150.08342849 104 166 C116.64114027 129.18477895 129.03293031 92.29201857 141.05380249 55.26940918 C145.00654847 43.09704666 148.97897259 30.93159312 153.01235962 18.78567505 C153.54202551 17.18988963 154.07066611 15.5937635 154.59823608 13.99728394 C155.31897117 11.81748072 156.0436069 9.63901714 156.76953125 7.4609375 C157.38211792 5.61701416 157.38211792 5.61701416 158.00708008 3.73583984 C159 1 159 1 160 0 C161.47354348 -0.09304018 162.95150591 -0.11746265 164.42797852 -0.11352539 C165.36887833 -0.11344986 166.30977814 -0.11337433 167.27919006 -0.11329651 C168.30209641 -0.10813522 169.32500275 -0.10297394 170.37890625 -0.09765625 C171.42070541 -0.0962413 172.46250458 -0.09482635 173.53587341 -0.09336853 C176.87811094 -0.0877508 180.22028257 -0.0751953 183.5625 -0.0625 C185.82226466 -0.05748728 188.08203037 -0.05292398 190.34179688 -0.04882812 C195.89455391 -0.03777561 201.44727225 -0.02102024 207 0 C224.53961499 152.26290711 224.53961499 152.26290711 224.0625 218.375 C224.041875 222.54125 224.02125 226.7075 224 231 C211.13 231 198.26 231 185 231 C184.38553325 223.01193228 183.83164913 215.12454855 183.60546875 207.1328125 C183.53920748 205.04148375 183.47228097 202.95017599 183.40478516 200.85888672 C183.35248749 199.21820221 183.35248749 199.21820221 183.2991333 197.54437256 C181.96709563 156.74352694 179.5182 115.96811384 175.8125 75.3125 C175.68575897 73.91967804 175.68575897 73.91967804 175.55645752 72.49871826 C175.32017327 69.93221432 175.07797578 67.36637585 174.83203125 64.80078125 C174.7623967 64.05920273 174.69276215 63.31762421 174.62101746 62.55357361 C174.29729656 59.28085349 173.84468363 56.17549809 173 53 C162.8463973 84.34768846 152.74023377 115.70798252 142.85119629 147.14031982 C136.76739131 166.47210992 130.59547212 185.77435359 124.375 205.0625 C124.16187542 205.72335476 123.94875084 206.38420952 123.72916794 207.06509018 C121.15560508 215.04430837 118.57824841 223.02229344 116 231 C105.77 231 95.54 231 85 231 C75.05993757 201.57741521 65.63278821 172.00098391 56.2497406 142.3977356 C52.86936162 131.73368325 49.4782535 121.07307894 46.08203125 110.4140625 C45.59604304 108.88850246 45.11006579 107.36293892 44.62409973 105.83737183 C41.81325742 97.0136848 41.81325742 97.0136848 39.00125122 88.19036865 C37.9176642 84.790983 36.83490942 81.39133328 35.75273705 77.99149704 C35.17089612 76.16427921 34.58818911 74.33733724 34.00544739 72.51040649 C31.94170471 66.02466068 29.92888363 59.52718073 28 53 C26.39731095 67.69063837 25.32156692 82.37140812 24.5 97.125 C24.43685608 98.23828674 24.37371216 99.35157349 24.30865479 100.49859619 C22.42645792 133.79161122 21.05168502 167.11335817 20.34130859 200.45263672 C20.11626653 210.65323526 19.60653934 220.81414931 19 231 C7.12 231 -4.76 231 -17 231 C-17 220.29226629 -16.9764008 209.70371804 -16.484375 199.02734375 C-16.40110207 197.13500504 -16.40110207 197.13500504 -16.31614685 195.20443726 C-16.13468314 191.11511113 -15.9429867 187.02629606 -15.75 182.9375 C-15.71690861 182.23015591 -15.68381721 181.52281181 -15.64972305 180.79403305 C-13.72998086 139.77956129 -10.89294958 98.86899211 -6.9375 58 C-6.81361908 56.71896393 -6.68973816 55.43792786 -6.56210327 54.11807251 C-5.28821169 41.0437553 -3.92545323 27.9825718 -2.37890625 14.9375 C-2.25555405 13.89013672 -2.13220184 12.84277344 -2.00511169 11.76367188 C-1.88813431 10.79880859 -1.77115692 9.83394531 -1.65063477 8.83984375 C-1.54888443 7.99800537 -1.44713409 7.15616699 -1.34230042 6.28881836 C-1 4 -1 4 0 0 Z " fill="#00758F" transform="translate(17,388)"/>
<path d="M0 0 C22.83724861 19.814259 31.23823189 48.10590918 33.7734375 77.421875 C33.91965588 80.52001778 33.95957349 83.61354154 33.9765625 86.71484375 C33.98357681 87.57523254 33.99059113 88.43562134 33.99781799 89.32208252 C34.01523018 92.08456714 34.02167035 94.84683751 34.0234375 97.609375 C34.02411224 98.55217316 34.02478699 99.49497131 34.02548218 100.46633911 C34.0097217 114.30831294 33.7133775 127.8407863 30.7734375 141.421875 C30.51602783 142.64173096 30.51602783 142.64173096 30.25341797 143.88623047 C25.53515424 165.47892804 16.22025896 186.18757913 -0.2265625 201.421875 C-0.8865625 201.421875 -1.5465625 201.421875 -2.2265625 201.421875 C-2.2265625 202.081875 -2.2265625 202.741875 -2.2265625 203.421875 C-1.4013208 203.67332275 -0.5760791 203.92477051 0.27416992 204.18383789 C4.26785214 205.59679837 7.97172826 207.34979459 11.76171875 209.23046875 C12.50552292 209.5978566 13.24932709 209.96524445 14.01567078 210.34376526 C15.57735922 211.11739051 17.13795666 211.89322167 18.69750977 212.67114258 C21.09098765 213.86188743 23.49153338 215.03749404 25.89257812 216.21289062 C27.41191496 216.96783172 28.93081131 217.72366009 30.44921875 218.48046875 C31.16894363 218.83056503 31.88866852 219.18066132 32.63020325 219.54136658 C37.65912522 222.07893817 37.65912522 222.07893817 38.7734375 225.421875 C37.51000977 228.05737305 37.51000977 228.05737305 35.58984375 231.18359375 C34.90986328 232.30185547 34.22988281 233.42011719 33.52929688 234.57226562 C32.79839665 235.75143821 32.06727396 236.93047292 31.3359375 238.109375 C30.60778619 239.29955699 29.8805607 240.49030593 29.15429688 241.68164062 C27.36972784 244.60077011 25.5758262 247.51372636 23.7734375 250.421875 C15.07891354 246.24272288 6.78746756 241.57844484 -1.4765625 236.609375 C-2.67797093 235.90184233 -3.88021116 235.19572032 -5.08325195 234.4909668 C-10.06285335 231.56624625 -15.00541637 228.66017573 -19.69140625 225.2734375 C-28.83509307 218.87869561 -35.58144786 219.07116546 -46.50878906 220.8828125 C-48.52038196 221.24076993 -50.53101638 221.60416669 -52.54052734 221.97363281 C-73.19209337 225.41994032 -98.93877504 220.14501841 -116.2265625 208.421875 C-123.1385143 203.0516921 -129.62335211 196.90841497 -134.2265625 189.421875 C-134.86078125 188.390625 -135.495 187.359375 -136.1484375 186.296875 C-157.32914073 150.11171147 -157.49865775 95.78470896 -147.22558594 56.18969727 C-140.14824393 30.62775895 -127.56769 8.1138305 -103.91015625 -5.484375 C-73.93303021 -21.29354091 -27.54042461 -22.73125077 0 0 Z M-94.5078125 27.2109375 C-102.29807115 37.23204295 -106.43471074 48.1534179 -109.2265625 60.421875 C-109.47212891 61.4425708 -109.47212891 61.4425708 -109.72265625 62.48388672 C-115.5057318 87.67730574 -114.24474895 118.22719353 -109.2265625 143.421875 C-109.09266113 144.1240918 -108.95875977 144.82630859 -108.82080078 145.54980469 C-105.77991229 160.80216417 -99.06437884 176.3136758 -85.9140625 185.171875 C-74.37122446 192.17610053 -61.38930075 194.13880966 -48.08203125 191.890625 C-35.40973363 188.62950226 -26.207614 182.42342749 -18.9765625 171.359375 C-9.40137786 154.8550309 -6.12681522 135.02237059 -6.0234375 116.12890625 C-6.01646851 115.26833618 -6.00949951 114.40776611 -6.00231934 113.52111816 C-5.98501997 110.75882017 -5.97859987 107.9967249 -5.9765625 105.234375 C-5.97555542 104.29290619 -5.97454834 103.35143738 -5.97351074 102.38143921 C-5.98354573 88.53625159 -6.33690054 75.01387336 -9.2265625 61.421875 C-9.43539062 60.38039307 -9.43539062 60.38039307 -9.6484375 59.31787109 C-12.76327081 44.25202805 -19.16515884 30.10246029 -31.63671875 20.58203125 C-50.69618907 8.2281115 -78.78916058 10.23182764 -94.5078125 27.2109375 Z " fill="#F29111" transform="translate(745.2265625,400.578125)"/>
<path d="M0 0 C0.73726318 0.00644531 1.47452637 0.01289062 2.23413086 0.01953125 C19.37219339 0.57514296 39.40619777 9.79139789 52.01708984 21.28076172 C58.10995162 26.68912923 62.77071853 27.45402317 70.75 27.5625 C117.23481248 29.8125975 159.07235762 63.25562994 189.6875 96.375 C208.653621 117.31398053 224.08518349 140.54895243 234.86474609 166.62402344 C242.90022687 185.91834948 251.85810024 204.74506197 261.0625 223.5 C261.50319824 224.40331055 261.94389648 225.30662109 262.39794922 226.23730469 C268.80349547 240.57902582 268.80349547 240.57902582 281.0625 249.5 C283.07923206 250.42075614 285.09476406 251.34414332 287.109375 252.26953125 C290.45560054 253.79072222 293.80321315 255.30832851 297.15625 256.81445312 C307.32045851 261.44918905 316.95194829 266.74735 326 273.3125 C326.57935303 273.73281494 327.15870605 274.15312988 327.75561523 274.58618164 C329.53159138 275.88159103 331.298831 277.18789364 333.0625 278.5 C333.61583008 278.9115332 334.16916016 279.32306641 334.73925781 279.74707031 C346.35423515 288.43587392 357.76268266 297.29196542 367.0625 308.5 C367.5884375 309.06589844 368.114375 309.63179688 368.65625 310.21484375 C372.03456245 313.90283484 372.03456245 313.90283484 372.1875 317.171875 C372.125625 318.32429687 372.125625 318.32429687 372.0625 319.5 C361.39940803 322.58315688 350.966094 324.94307255 339.94970703 326.32861328 C330.75875518 327.54755877 321.95553988 329.92864104 313.0625 332.5 C318.66095973 340.22419068 326.06233957 344.65586616 334.0625 349.5 C348.19352963 358.07858503 360.34671839 367.81645012 371.0625 380.5 C372.30992959 381.93973111 373.55977933 383.37737033 374.8125 384.8125 C375.36808594 385.45445312 375.92367188 386.09640625 376.49609375 386.7578125 C377.88425986 388.30175784 379.37389784 389.75311349 380.875 391.1875 C384.35941524 394.87102468 385.0625 397.46535575 385.0625 402.5 C381.29649688 401.19889823 378.91700181 399.69722343 376.0625 396.9375 C363.99458135 385.95767237 349.6854541 378.39388184 334.95703125 371.58203125 C315.57977861 362.5410823 294.73943396 348.39678052 287.0625 327.5 C286.94921875 324.8046875 286.94921875 324.8046875 288.0625 322.5 C290.46243227 321.22962386 292.52082855 320.34404593 295.0625 319.5 C296.18527344 319.0771875 297.30804687 318.654375 298.46484375 318.21875 C315.7232412 312.26889364 332.9393135 310.70748982 351.0625 309.5 C346.46683927 305.32554067 341.93519441 301.56881261 336.625 298.3125 C331.89217933 295.37276739 327.3294307 292.28469925 322.83129883 288.99658203 C308.17865151 278.34041465 292.97209474 272.13373431 275.88818359 266.35522461 C258.42180389 260.42239406 258.42180389 260.42239406 253.4375 252 C253.02346924 251.3184082 252.60943848 250.63681641 252.18286133 249.93457031 C246.5755447 240.37624577 242.14851323 230.18843231 237.5995636 220.09840393 C235.64256982 215.76130271 233.64690844 211.44391582 231.625 207.13671875 C226.82818063 196.9098133 222.05527579 186.69532131 217.75 176.25 C207.54239328 151.54864679 193.7364133 129.52876497 176.0625 109.5 C175.62325195 108.99758789 175.18400391 108.49517578 174.73144531 107.97753906 C151.97286329 82.04726436 123.25755403 61.11869415 91.0625 48.5 C90.4341626 48.23276123 89.8058252 47.96552246 89.15844727 47.69018555 C81.05238601 44.554559 72.27798225 44.48439915 63.69262695 43.91870117 C61.57102777 43.77458443 59.45188186 43.60905722 57.33203125 43.44140625 C56.08010986 43.35576416 54.82818848 43.27012207 53.53833008 43.18188477 C47.72899469 42.04221533 43.77256939 38.29500573 39.1875 34.75 C32.27315614 29.69829571 24.80345333 26.0876076 17.0625 22.5 C15.96035156 21.97921875 14.85820313 21.4584375 13.72265625 20.921875 C6.40257735 17.64338407 -0.98368238 15.15000843 -8.9375 17.5 C-10.66458463 25.41580456 -8.68003418 29.90483949 -4.61328125 36.71875 C-2.03788399 40.72649149 0.79373944 44.44284247 3.8125 48.125 C7.15146086 52.24433102 10.22140556 56.48414893 13.1875 60.875 C13.58291992 61.45072754 13.97833984 62.02645508 14.38574219 62.61962891 C21.82400056 73.7892807 26.07896461 85.82598646 30.125 98.5 C38.48053789 125.78534515 38.48053789 125.78534515 55.65234375 148.0703125 C58.39864541 150.85465158 59.00149262 152.9814373 59.4609375 156.88671875 C59.29179991 163.30059413 56.75665972 169.3113021 54.6875 175.3125 C44.96282759 203.7723616 43.53206055 235.60826747 57 263.25 C57.32371582 263.91805664 57.64743164 264.58611328 57.98095703 265.27441406 C60.65547375 270.43231579 63.50556497 273.64768832 69.0625 275.5 C69.13243164 274.75540527 69.20236328 274.01081055 69.27441406 273.24365234 C71.5470466 249.61485068 74.52862252 233.03025994 90.0625 214.5 C91.0525 214.83 92.0425 215.16 93.0625 215.5 C94.17578125 218.078125 94.17578125 218.078125 95.375 221.75 C104.76644085 248.55172736 119.37092774 274.62108797 136.0625 297.5 C136.48772949 298.08749023 136.91295898 298.67498047 137.35107422 299.28027344 C143.89358276 308.26018712 150.96926003 316.98110194 160.0625 323.5 C159.7325 324.49 159.4025 325.48 159.0625 326.5 C152.69914196 322.71887421 147.72501877 318.31315499 142.58984375 313.00390625 C140.22514674 310.66113842 137.81089728 308.60665116 135.1875 306.5625 C115.52403896 291.21390502 102.88717832 273.81209204 92.0625 251.5 C91.88074219 252.48097656 91.69898438 253.46195313 91.51171875 254.47265625 C90.98596868 257.30470603 90.45181618 260.13505059 89.9140625 262.96484375 C89.36303105 265.86988654 88.83783453 268.77749992 88.3359375 271.69140625 C88.10132813 272.98949219 87.86671875 274.28757812 87.625 275.625 C87.42003906 276.80320312 87.21507812 277.98140625 87.00390625 279.1953125 C85.74132323 283.62745039 83.86618266 287.08282076 80.203125 289.9609375 C74.66927642 292.63639322 70.04691257 293.74512893 64.0625 291.875 C51.81598953 286.51715167 45.05781847 274.19724167 40.33203125 262.296875 C28.48567277 230.31956657 32.15051737 196.47616864 42.0625 164.5 C42.42529053 163.77965576 42.78808105 163.05931152 43.16186523 162.31713867 C44.24546472 160.52966331 44.24546472 160.52966331 43.875 158.453125 C42.9269574 156.17417644 41.81412565 154.98540689 40.0625 153.25 C26.09749102 137.74284279 19.47595937 115.42620666 13.20703125 96.0144043 C9.72830792 85.25090937 6.38709194 76.20201675 -0.5625 67.1875 C-1.18060547 66.36427246 -1.79871094 65.54104492 -2.43554688 64.69287109 C-5.19367368 61.03227948 -7.99250935 57.40962028 -10.8671875 53.83984375 C-18.33027859 44.54514144 -25.76939762 33.97846428 -24.9375 21.5 C-23.84709631 14.1369648 -20.79721608 8.19862419 -14.9375 3.5 C-9.9502663 0.89508782 -5.57244415 -0.05203636 0 0 Z " fill="#00758F" transform="translate(614.9375,-0.5)"/>
<path d="M0 0 C1.16144531 0.5465625 2.32289063 1.093125 3.51953125 1.65625 C6.1875 3.5 6.1875 3.5 7.3203125 5.63671875 C7.11101781 10.14886599 5.17641012 13.77818327 3.25 17.8125 C2.86392578 18.64845703 2.47785156 19.48441406 2.08007812 20.34570312 C1.1278119 22.40306842 0.1634443 24.45378811 -0.8125 26.5 C-1.9984375 26.10167969 -3.184375 25.70335937 -4.40625 25.29296875 C-24.0317345 18.81576299 -47.24643221 12.10151225 -67.04296875 21.56640625 C-73.24031752 25.08947694 -78.79532299 30.50149642 -81.3359375 37.296875 C-83.16898884 45.77098118 -82.70023714 53.82749833 -78.2734375 61.3359375 C-77.79132813 62.05007813 -77.30921875 62.76421875 -76.8125 63.5 C-76.41289062 64.11101562 -76.01328125 64.72203125 -75.6015625 65.3515625 C-68.47454255 74.8110617 -55.85368609 80.83988672 -45.63586426 86.33181763 C-43.11308704 87.68867386 -40.6004871 89.06392957 -38.0869751 90.43785095 C-36.19359923 91.47250359 -34.29897569 92.50484516 -32.40429688 93.53710938 C-27.26828397 96.33987953 -22.15688783 99.18478623 -17.0625 102.0625 C-16.24910156 102.51407471 -15.43570313 102.96564941 -14.59765625 103.4309082 C-8.92376798 106.64979436 -3.88034972 110.40335394 1.1875 114.5 C1.8364624 115.00249268 2.4854248 115.50498535 3.15405273 116.02270508 C13.39867742 123.99007623 18.9069397 135.93235195 20.87109375 148.53125 C22.73109758 165.98313782 19.85057087 183.10205456 9.046875 197.31640625 C6.85373208 199.82778494 4.57490899 202.17359805 2.1875 204.5 C1.52363281 205.19609375 0.85976563 205.8921875 0.17578125 206.609375 C-16.08298781 222.58942231 -39.34723345 225.75572229 -61.0690918 225.7487793 C-70.05872659 225.66812615 -78.14868276 225.04028491 -86.8125 222.5 C-87.98683594 222.18289063 -89.16117187 221.86578125 -90.37109375 221.5390625 C-102.42817553 217.94107619 -114.8301091 212.24008084 -124.8125 204.5 C-123.33241304 199.49886406 -121.1806664 195.17084403 -118.6875 190.625 C-118.31496094 189.93664062 -117.94242187 189.24828125 -117.55859375 188.5390625 C-116.64750474 186.85705202 -115.73059685 185.17819564 -114.8125 183.5 C-110.64062721 184.82891669 -106.60016641 186.36909225 -102.54663086 188.01318359 C-83.3757662 195.72880958 -62.38575298 200.15881027 -42.375 192.625 C-33.94015658 188.89734339 -26.52780286 183.33684991 -22.9375 174.5625 C-20.24115657 165.98779296 -20.17346499 158.22385296 -23.96875 149.9921875 C-30.92445371 137.35599243 -42.66197998 131.29185225 -54.8125 124.5 C-55.78445313 123.95504883 -56.75640625 123.41009766 -57.7578125 122.84863281 C-60.94179819 121.06412454 -64.12703038 119.28185783 -67.3125 117.5 C-70.49934863 115.71652545 -73.68595148 113.93262211 -76.87158203 112.14697266 C-78.72272484 111.1102958 -80.57509242 110.07579996 -82.42919922 109.04443359 C-91.45680726 104.00674671 -99.55276769 98.99259164 -106.8125 91.5 C-107.45445312 90.86707031 -108.09640625 90.23414063 -108.7578125 89.58203125 C-120.89831083 76.83713582 -122.41140988 61.93789373 -122.12890625 45.19921875 C-121.50263089 29.29601719 -114.74971046 17.64112455 -103.8125 6.5 C-103.19632812 5.85933594 -102.58015625 5.21867187 -101.9453125 4.55859375 C-75.34825671 -20.95403272 -30.10398594 -14.16930841 0 0 Z " fill="#F29111" transform="translate(556.8125,396.5)"/>
<path d="M0 0 C12.87 0 25.74 0 39 0 C40.30453125 4.23972656 41.6090625 8.47945313 42.953125 12.84765625 C43.39880829 14.29587769 43.84449158 15.74409912 44.30368042 17.23620605 C46.31176574 23.7613761 48.31921323 30.28674038 50.3243084 36.81282997 C51.4736828 40.55370848 52.62345419 44.29446488 53.7734375 48.03515625 C54.0012151 48.77610157 54.22899269 49.51704689 54.46367264 50.2804451 C57.21694189 59.23425095 59.98599076 68.18272492 62.7890625 77.12109375 C76.38099204 120.52894706 76.38099204 120.52894706 78 138 C96.22222563 94.56251751 104.22395132 46.34817298 111 0 C123.54 0 136.08 0 149 0 C138.93682989 63.00419544 123.2860879 137.60851129 85 190 C84.26652344 191.02867187 83.53304687 192.05734375 82.77734375 193.1171875 C70.38174294 210.13005348 53.73059021 227.46224089 32 231 C20.04329205 232.20420809 8.11425537 231.98639565 -3 227 C-4 226 -4 226 -4.11352539 223.86694336 C-4.10828857 222.95050049 -4.10305176 222.03405762 -4.09765625 221.08984375 C-4.09443359 220.10048828 -4.09121094 219.11113281 -4.08789062 218.09179688 C-4.07951172 217.05087891 -4.07113281 216.00996094 -4.0625 214.9375 C-4.05798828 213.89271484 -4.05347656 212.84792969 -4.04882812 211.77148438 C-4.03699913 209.1809334 -4.02051689 206.59049441 -4 204 C-3.26998779 204.02094727 -2.53997559 204.04189453 -1.7878418 204.06347656 C1.57879383 204.14756927 4.94520745 204.19895279 8.3125 204.25 C10.03436523 204.30027344 10.03436523 204.30027344 11.79101562 204.3515625 C23.03011638 204.47891775 32.71417432 201.88607093 41 194 C48.03430195 186.29424195 50.7941786 178.85210507 50.44384766 168.39624023 C50.05614009 163.4157387 48.86104899 158.72156706 47.57421875 153.90625 C47.31191467 152.91515732 47.0496106 151.92406464 46.77935791 150.90293884 C43.28695949 138.00604583 39.09049615 125.32621069 34.92828369 112.63401413 C33.77120411 109.10023211 32.62214563 105.5638447 31.47265625 102.02758789 C30.05493173 97.66738263 28.63676103 93.307327 27.2154541 88.94828796 C22.82761286 75.49009404 18.48515318 62.01753789 14.15710449 48.54000854 C13.03064457 45.03290826 11.90268321 41.52629399 10.77441406 38.01977539 C9.13106352 32.91066247 7.49397141 27.79958262 5.86083984 22.68719482 C5.04405741 20.13752945 4.21995239 17.59033609 3.39453125 15.04345703 C2.92939154 13.5928683 2.46452515 12.14219189 2 10.69140625 C1.4121875 8.87104858 1.4121875 8.87104858 0.8125 7.01391602 C0 4 0 4 0 0 Z " fill="#00758F" transform="translate(260,448)"/>
<path d="M0 0 C12.54 0 25.08 0 38 0 C38 66.66 38 133.32 38 202 C61.76 202 85.52 202 110 202 C110 211.57 110 221.14 110 231 C73.7 231 37.4 231 0 231 C0 154.77 0 78.54 0 0 Z " fill="#F29111" transform="translate(812,388)"/>
<path d="M0 0 C3.3 0 6.6 0 10 0 C10.42152344 1.07121094 10.84304688 2.14242187 11.27734375 3.24609375 C11.83059319 4.64328302 12.38398602 6.04041551 12.9375 7.4375 C13.21529297 8.14455078 13.49308594 8.85160156 13.77929688 9.58007812 C14.96222034 13.04673881 14.96222034 13.04673881 17 16 C18.98 10.72 20.96 5.44 23 0 C25.97 0 28.94 0 32 0 C32 9.57 32 19.14 32 29 C30.02 29 28.04 29 26 29 C25.67 24.38 25.34 19.76 25 15 C24.195625 17.124375 23.39125 19.24875 22.5625 21.4375 C20.125 27.875 20.125 27.875 19 29 C17.33382885 29.04063832 15.66611905 29.042721 14 29 C13.18618205 27.06305322 12.37399084 25.12542289 11.5625 23.1875 C11.11003906 22.10855469 10.65757812 21.02960937 10.19140625 19.91796875 C9.39624987 17.9704874 8.66520352 15.99561057 8 14 C7.67 18.95 7.34 23.9 7 29 C4.69 29 2.38 29 0 29 C0 19.43 0 9.86 0 0 Z " fill="#F29111" transform="translate(968,590)"/>
<path d="M0 0 C3.91593543 2.78485561 7.22801886 5.43015391 9 10 C9.67563787 14.76089012 9.79527047 19.41628505 7.25 23.625 C6.5075 24.40875 5.765 25.1925 5 26 C3.68 26 2.36 26 1 26 C0.49210938 24.99839844 -0.01578125 23.99679688 -0.5390625 22.96484375 C-4.14799851 15.95983123 -7.59336809 9.80223912 -13 4 C-13.33 3.01 -13.66 2.02 -14 1 C-3.9298275 -1.65466421 -3.9298275 -1.65466421 0 0 Z " fill="#5D87A1" transform="translate(686,69)"/>
<path d="M0 0 C7.92 0 15.84 0 24 0 C24 1.98 24 3.96 24 6 C21.36 6 18.72 6 16 6 C16 13.59 16 21.18 16 29 C13.69 29 11.38 29 9 29 C9 21.41 9 13.82 9 6 C6.03 6 3.06 6 0 6 C0 4.02 0 2.04 0 0 Z " fill="#F29111" transform="translate(939,590)"/>
</svg>
