<?xml version="1.0" encoding="UTF-8"?>
<svg version="1.1" xmlns="http://www.w3.org/2000/svg" width="250" height="250">
<path d="M0 0 C2.47050541 0.00315115 4.93979858 -0.02035131 7.41015625 -0.0456543 C24.3961169 -0.11294284 43.65428808 1.29099739 56.73828125 13.31567383 C66.21091579 22.85159991 65.89379278 33.09648145 65.90625 45.92504883 C65.9095784 47.12824768 65.9129068 48.33144653 65.91633606 49.57110596 C65.92138291 52.10933044 65.92374508 54.64756152 65.92358398 57.18579102 C65.9257662 61.0390942 65.94393455 64.89210886 65.96289062 68.74536133 C65.96582598 71.22192286 65.96780983 73.69848574 65.96875 76.17504883 C65.97593552 77.31294861 65.98312103 78.45084839 65.99052429 79.62322998 C65.95611078 91.86497886 65.10964047 103.51155972 56.73828125 113.00317383 C46.33046686 122.78428112 32.38738656 122.45119013 19.04918289 122.48433876 C16.73536749 122.49158656 14.42175426 122.50731219 12.10800171 122.52568054 C5.53459395 122.57777067 -1.03869479 122.62609434 -7.61230469 122.64160156 C-11.64829118 122.6517411 -15.6837536 122.68120533 -19.71953201 122.72292137 C-21.2463241 122.73514145 -22.77319042 122.74036926 -24.30002975 122.73812294 C-36.0382487 122.7250982 -45.68029475 123.92278205 -54.5078125 132.26879883 C-63.91552898 143.24796016 -63.61550065 157.23957609 -63.88671875 170.87817383 C-63.92497084 172.47519865 -63.96402657 174.07220444 -64.00390625 175.66918945 C-64.09911556 179.55119334 -64.18342827 183.43329339 -64.26171875 187.31567383 C-68.55315032 187.43309881 -72.84416148 187.50333378 -77.13671875 187.56567383 C-78.34070313 187.59918945 -79.5446875 187.63270508 -80.78515625 187.66723633 C-90.01904177 187.76760465 -96.82400261 186.30259815 -104.51171875 181.12817383 C-118.61065191 166.70881037 -121.82292144 146.79296374 -121.65283203 127.42675781 C-121.63669836 125.2504236 -121.65281697 123.07593812 -121.671875 120.8996582 C-121.69746371 103.95060647 -118.81371362 87.00226067 -106.57421875 74.44067383 C-94.41160124 63.2642145 -79.42155417 63.89055244 -63.83984375 64.02270508 C-61.88401619 64.028311 -59.92818438 64.03257638 -57.97235107 64.03556824 C-52.8628749 64.04693861 -47.75366082 64.07633728 -42.64428711 64.10968018 C-37.41523787 64.14055076 -32.18614565 64.15410964 -26.95703125 64.16918945 C-16.72514624 64.20121552 -6.49345442 64.25231572 3.73828125 64.31567383 C3.73828125 62.00567383 3.73828125 59.69567383 3.73828125 57.31567383 C-16.39171875 57.31567383 -36.52171875 57.31567383 -57.26171875 57.31567383 C-57.32359375 52.38629883 -57.38546875 47.45692383 -57.44921875 42.37817383 C-57.49018677 40.07345093 -57.49018677 40.07345093 -57.53198242 37.72216797 C-57.58567374 28.86310097 -57.08600996 21.63517803 -52.13671875 14.06567383 C-38.45405589 0.97790936 -17.89253769 -0.04754907 0 0 Z M-39.26171875 24.31567383 C-40.8684983 27.52923294 -40.73003557 30.83005866 -40.26171875 34.31567383 C-38.24571671 38.02511758 -36.74907092 39.09907286 -32.88671875 40.81567383 C-28.51137045 41.41917015 -26.87513665 40.77936785 -23.26171875 38.31567383 C-20.3729421 35.71577484 -20.26276933 34.32512903 -19.82421875 30.37817383 C-19.96912147 26.29039196 -21.29856431 24.19167667 -24.26171875 21.31567383 C-29.98043983 18.45631329 -35.03941962 19.96542624 -39.26171875 24.31567383 Z " fill="#3672A4" transform="translate(121.26171875,-0.315673828125)"/>
<path d="M0 0 C4.31226745 -0.11719343 8.62411934 -0.18758416 12.9375 -0.25 C14.75604492 -0.30027344 14.75604492 -0.30027344 16.61132812 -0.3515625 C24.04684337 -0.43216429 29.53754755 0.24658217 36 4 C37.5778125 4.86625 37.5778125 4.86625 39.1875 5.75 C49.95082185 14.36065748 54.69598095 28.63838812 56.67041016 41.875 C58.96690572 63.64918016 59.51706692 89.12726052 47 108 C39.5499123 117.17784459 31.63643316 121.59024031 20 123 C13.26643678 123.35566299 6.51353023 123.23320791 -0.2265625 123.1953125 C-2.1852504 123.19157689 -4.14394017 123.18873251 -6.10263062 123.18673706 C-11.22850816 123.17914375 -16.35427024 123.15953271 -21.48010254 123.1373291 C-26.72239623 123.11677747 -31.96470879 123.10771551 -37.20703125 123.09765625 C-47.47140457 123.07628234 -57.73569264 123.04219899 -68 123 C-68 125.31 -68 127.62 -68 130 C-47.87 130 -27.74 130 -7 130 C-6.938125 135.115 -6.87625 140.23 -6.8125 145.5 C-6.78518799 147.09779297 -6.75787598 148.69558594 -6.72973633 150.34179688 C-6.67717994 159.31594068 -6.99222793 165.68180922 -12.27734375 173.26953125 C-23.33420936 184.35812388 -41.45349608 187.11765695 -56.43359375 187.203125 C-57.22919205 187.20882507 -58.02479034 187.21452515 -58.84449768 187.22039795 C-60.52449231 187.22980066 -62.204505 187.236363 -63.88452148 187.24023438 C-66.39927361 187.24985378 -68.91317645 187.28088587 -71.42773438 187.3125 C-89.28911193 187.43005971 -108.17891856 185.54940809 -122 173 C-130.54125723 163.99705319 -130.15675224 153.09117298 -130.16796875 141.48828125 C-130.17129715 140.28366745 -130.17462555 139.07905365 -130.17805481 137.8379364 C-130.1831062 135.29373556 -130.18546369 132.74952812 -130.18530273 130.20532227 C-130.1874827 126.34314853 -130.20563996 122.48126365 -130.22460938 118.61914062 C-130.22754509 116.1380218 -130.22952869 113.65690163 -130.23046875 111.17578125 C-130.23765427 110.03474442 -130.24483978 108.89370758 -130.25224304 107.71809387 C-130.22076283 96.48676783 -129.86851535 84.65098406 -122.125 75.875 C-113.02277892 67.03284238 -102.23585561 64.89361701 -89.84643555 64.8581543 C-89.16897278 64.85467987 -88.49151001 64.85120544 -87.79351807 64.84762573 C-86.33456412 64.84032275 -84.87559945 64.8349486 -83.4166317 64.83133507 C-81.09869536 64.82410007 -78.78096235 64.80838257 -76.46308899 64.78999329 C-69.87686944 64.73785016 -63.29076731 64.68958874 -56.7043457 64.67407227 C-52.66302855 64.66393213 -48.62223466 64.63446342 -44.58112526 64.59275246 C-43.05154203 64.58053 -41.52188467 64.57530501 -39.99225426 64.57755089 C-28.24248531 64.5905595 -18.59078263 63.40173994 -9.75390625 55.046875 C-0.34618977 44.06771367 -0.6462181 30.07609774 -0.375 16.4375 C-0.33674791 14.84047517 -0.29769218 13.24346939 -0.2578125 11.64648438 C-0.16260319 7.76448049 -0.07829048 3.88238044 0 0 Z M-41 149 C-43.88877665 151.59989898 -43.99894942 152.9905448 -44.4375 156.9375 C-44.29259728 161.02528187 -42.96315444 163.12399716 -40 166 C-36.89046621 167.5547669 -34.43733239 167.28644437 -31 167 C-26.75971381 164.7412063 -26.75971381 164.7412063 -24 161 C-23.52386424 155.30535375 -23.52386424 155.30535375 -25.5625 150.125 C-30.82094444 145.5407151 -35.25346061 145.08190496 -41 149 Z " fill="#FFD242" transform="translate(193,63)"/>
</svg>
