<?xml version="1.0" encoding="UTF-8"?>
<svg version="1.1" xmlns="http://www.w3.org/2000/svg" width="856" height="768">
<path d="M0 0 C1.25062707 -0.00445784 2.50125414 -0.00891569 3.78977901 -0.01350862 C5.17500358 -0.01341933 6.56022814 -0.01322949 7.94545269 -0.01294994 C9.4191692 -0.0162505 10.8928848 -0.01997648 12.36659926 -0.02409142 C16.41757907 -0.03409816 20.46854406 -0.0378261 24.51953447 -0.04048073 C28.88857964 -0.04438785 33.25761312 -0.05396607 37.62665081 -0.0626936 C48.18016712 -0.08244893 58.73368437 -0.09252412 69.28721455 -0.10142139 C74.26065304 -0.10580677 79.23409046 -0.11117302 84.20752811 -0.11641026 C100.74763073 -0.1334234 117.28773269 -0.14791585 133.82784271 -0.155159 C138.11938064 -0.15706881 142.41091857 -0.15898915 146.70245647 -0.16094494 C148.30236582 -0.16167055 148.30236582 -0.16167055 149.93459656 -0.16241082 C167.19882831 -0.17070462 184.46299063 -0.19603018 201.72719208 -0.22852562 C219.46410366 -0.26163769 237.20098001 -0.2796116 254.93792266 -0.28280324 C264.89153453 -0.28496475 274.84504522 -0.2936605 284.7986269 -0.31926441 C293.27889053 -0.34102832 301.75902841 -0.34899402 310.2393168 -0.33929763 C314.56132576 -0.33476905 318.88307556 -0.33655441 323.20504856 -0.35605907 C327.17252308 -0.3738081 331.13955164 -0.37259923 335.10703167 -0.35716178 C336.53179283 -0.35480332 337.95658584 -0.35901622 339.38129864 -0.37099043 C366.18674928 -0.58207266 390.767504 11.42154679 410.19513226 29.46576405 C416.80156492 36.23767958 421.75346589 43.93755512 426.3853178 52.13422108 C426.97901165 53.16821033 427.5727055 54.20219959 428.18439007 55.26752186 C429.43735177 57.45065057 430.68689635 59.6357437 431.93316936 61.82269764 C434.4030618 66.15107245 436.89808795 70.46470073 439.39288616 74.77875233 C441.27741015 78.03878911 443.15813581 81.30098787 445.03766155 84.56390858 C448.79637161 91.0890835 452.5592353 97.61185558 456.3228178 104.13422108 C457.57283659 106.3008769 458.82283659 108.46754357 460.0728178 110.63422108 C460.6915678 111.70672108 461.3103178 112.77922108 461.9478178 113.88422108 C512.5728178 201.63422108 512.5728178 201.63422108 514.44806194 204.88470936 C515.69717298 207.04979178 516.9463591 209.2148309 518.19562054 211.37982655 C521.3348409 216.82037814 524.47272343 222.26169323 527.60797405 227.70453358 C533.65336939 238.19654201 539.71391999 248.67903784 545.8228178 259.13422108 C552.56387095 270.67131795 559.24448675 282.24273836 565.9141264 293.8212328 C568.49297471 298.29743792 571.0736355 302.77259502 573.65558147 307.24701405 C574.92421556 309.44697062 576.1913294 311.64780462 577.45685101 313.84955311 C580.27910957 318.75512987 583.11752096 323.64710508 586.0337553 328.49750233 C601.4855324 354.29257168 606.04733066 382.71325253 598.8228178 412.13422108 C595.22480614 425.57795459 587.9284647 437.12952864 580.86612225 449.00269032 C577.29169271 455.01220064 573.80694338 461.07208102 570.3228178 467.13422108 C569.07449586 469.29850047 567.82579715 471.4625626 566.57672405 473.62640858 C564.06212345 477.98487496 561.54927119 482.34434299 559.03766155 486.70453358 C553.01534452 497.15628307 546.97612443 507.59721656 540.8853178 518.00922108 C535.81006657 526.68684349 530.80023014 535.40027675 525.8228178 544.13422108 C520.28280051 553.85537724 514.68906972 563.54316766 509.03937054 573.20111561 C502.88515039 583.72506732 496.79911784 594.28802245 490.71393108 604.85199451 C487.58601632 610.2808205 484.45423332 615.70741389 481.3228178 621.13422108 C480.07279901 623.3008769 478.82279902 625.46754357 477.5728178 627.63422108 C470.0728178 640.63422108 462.5728178 653.63422108 455.0728178 666.63422108 C454.45374554 667.70736561 453.83467327 668.78051014 453.19684124 669.8861742 C451.9503972 672.046504 450.70365379 674.20666111 449.45660686 676.36664295 C446.2746875 681.87886501 443.09849066 687.394259 439.9321928 692.91547108 C436.24923883 699.33351224 432.54496571 705.7388363 428.8228178 712.13422108 C428.30171429 713.03269764 427.78061077 713.9311742 427.24371624 714.85687733 C412.18356276 740.69682633 390.05385182 758.90948664 360.77072251 766.67866766 C353.22201255 768.38389478 345.80520475 768.42025204 338.09891033 768.40164661 C336.62087718 768.40538867 335.14284601 768.4099924 333.66481793 768.41537726 C329.6251133 768.42755423 325.58549181 768.42735308 321.54577303 768.42498851 C317.18021762 768.42457899 312.8146884 768.43563239 308.44914532 768.44510365 C299.90394833 768.46168589 291.35877894 768.46721195 282.81356721 768.4683284 C275.86361458 768.46928027 268.91367103 768.47339748 261.96372128 768.47972965 C242.23767607 768.4973351 222.51165258 768.5065697 202.78559946 768.5050687 C201.19188875 768.50494884 201.19188875 768.50494884 199.56598186 768.50482655 C198.50220314 768.50474478 197.43842442 768.50466302 196.34240998 768.50457878 C179.11082439 768.50376626 161.87932628 768.52289734 144.64776598 768.55110328 C126.93329152 768.57986969 109.21885967 768.59364148 91.50436127 768.59191573 C81.56759738 768.59125309 71.63092518 768.59669 61.6941824 768.61827183 C53.23233186 768.6365332 44.77061459 768.64079046 36.30875282 768.62725298 C31.99684048 768.62074804 27.68518343 768.62051588 23.37329578 768.63795948 C19.41526451 768.65380591 15.45768849 768.65071027 11.49966754 768.63339122 C10.07842394 768.63034652 8.65714536 768.6338566 7.23594306 768.64511137 C-18.31789384 768.83384837 -42.35412451 758.1231638 -60.74944782 740.53314686 C-68.03075882 733.33823919 -73.82404446 726.08181012 -78.8021822 717.13422108 C-79.39136433 716.10023182 -79.98054646 715.06624256 -80.58758259 714.0009203 C-81.83094512 711.81851818 -83.0695705 709.63341096 -84.30364704 707.44574451 C-86.75620674 703.11077973 -89.24996827 698.80027491 -91.74505329 694.48968983 C-93.63142622 691.23028965 -95.51249542 687.96788362 -97.39202595 684.70453358 C-101.15073598 678.1793587 -104.913543 671.65655382 -108.6771822 665.13422108 C-112.44082139 658.61188833 -116.20362842 652.08908345 -119.96233845 645.56390858 C-125.98465548 635.11215908 -132.02387557 624.6712256 -138.1146822 614.25922108 C-143.53639397 604.9892233 -148.87923135 595.67590356 -154.19640827 586.34576893 C-159.39763349 577.22139268 -164.65746097 568.13289333 -169.96062946 559.06732655 C-176.11484961 548.54337483 -182.20088216 537.9804197 -188.28606892 527.41644764 C-191.41398368 521.98762165 -194.54576668 516.56102827 -197.6771822 511.13422108 C-198.92720099 508.96756525 -200.17720098 506.80089858 -201.4271822 504.63422108 C-202.0459322 503.56172108 -202.6646822 502.48922108 -203.3021822 501.38422108 C-206.1146822 496.50922108 -206.1146822 496.50922108 -208.9271822 491.63422108 C-209.5461739 490.56131824 -210.1651656 489.48841541 -210.80291462 488.38300037 C-212.0505296 486.22043524 -213.29808836 484.05783769 -214.5455904 481.89520741 C-218.3473312 475.30482842 -222.15092725 468.7155264 -225.95696735 462.12762928 C-227.22025689 459.93845554 -228.48167683 457.74820179 -229.74114704 455.5568285 C-232.66466396 450.47102249 -235.60600965 445.39907858 -238.61077595 440.36078358 C-249.48084274 422.01153727 -254.5811115 405.54183028 -254.5521822 384.00922108 C-254.55163837 383.32546406 -254.55109455 382.64170704 -254.55053425 381.93723011 C-254.51115055 371.15917207 -253.74299068 361.33514155 -250.1771822 351.13422108 C-249.62804157 349.51000233 -249.62804157 349.51000233 -249.0678072 347.85297108 C-244.77183142 336.71525609 -238.18243195 326.60371024 -232.0990572 316.38129139 C-228.93379602 311.0334797 -225.83793503 305.64603917 -222.7396822 300.25922108 C-221.4819565 298.07687938 -220.2241436 295.89458794 -218.9662447 293.71234608 C-217.70314951 291.51968058 -216.44012876 289.32697219 -215.1771822 287.13422108 C-207.89524712 274.49119109 -200.60672177 261.85289776 -193.2396822 249.25922108 C-188.16443096 240.58159866 -183.15459453 231.8681654 -178.1771822 223.13422108 C-172.6371649 213.41306491 -167.04343411 203.7252745 -161.39373493 194.06732655 C-155.23951478 183.54337483 -149.15348224 172.9804197 -143.06829548 162.41644764 C-139.94038071 156.98762165 -136.80859772 151.56102827 -133.6771822 146.13422108 C-132.42716341 143.96756525 -131.17716341 141.80089858 -129.9271822 139.63422108 C-118.6771822 120.13422108 -118.6771822 120.13422108 -107.4271822 100.63422108 C-106.80802937 99.56091541 -106.18887653 98.48760975 -105.55096149 97.38177967 C-104.30540649 95.22303405 -103.05947766 93.06450406 -101.81316853 90.90619373 C-98.61700376 85.37007681 -95.42814114 79.82994765 -92.25140095 74.28265858 C-71.8084789 38.61606662 -71.8084789 38.61606662 -62.1771822 29.13422108 C-61.40890095 28.36722889 -60.6406197 27.6002367 -59.8490572 26.81000233 C-53.56903815 20.84398423 -46.71022302 16.3721177 -39.1771822 12.13422108 C-37.72505329 11.31437733 -37.72505329 11.31437733 -36.24358845 10.47797108 C-25.29890344 4.65664608 -12.48718738 0.02068011 0 0 Z M143.16266155 141.25140858 C138.4636851 148.29302343 137.52487319 155.09286749 137.55539227 163.37465382 C137.55086115 164.28421131 137.54633004 165.1937688 137.54166162 166.13088864 C137.52903812 169.16761478 137.53063667 172.20416111 137.53229046 175.24091053 C137.52630395 177.4227366 137.51949812 179.60456055 137.51193523 181.78638172 C137.49428091 187.7058827 137.4895801 193.62532583 137.48830366 199.54485059 C137.48688123 203.24509452 137.48260988 206.94532379 137.47730923 210.64556408 C137.45785571 224.22700227 137.45077844 237.80839493 137.4524601 251.38984605 C137.45332322 262.75219334 137.43055865 274.11436877 137.40072501 285.47667438 C137.37455609 295.81235131 137.3638453 306.14796967 137.36512315 316.48367947 C137.36563258 322.65324601 137.35995943 328.82265307 137.33876705 334.99218655 C137.3193744 340.79611649 137.3192675 346.59973497 137.33380032 352.40367603 C137.33588819 354.5296744 137.33118887 356.65569231 137.3190794 358.78165722 C137.24500409 372.69107189 137.56200149 384.58959495 147.8228178 395.13422108 C157.94728527 403.49432695 167.03638223 405.15407636 179.8228178 404.13422108 C183.22502017 403.28727961 185.88402787 402.02470518 188.8228178 400.13422108 C189.51762249 399.71011951 190.21242718 399.28601795 190.92828655 398.84906483 C198.66437667 393.63845254 203.28219881 386.04502743 205.8228178 377.13422108 C206.22304852 373.99409624 206.2330863 370.89811019 206.21049786 367.73556995 C206.21588339 366.82107448 206.22126893 365.90657902 206.22681767 364.96437156 C206.24106236 361.91684507 206.23400207 358.86975509 206.22687054 355.82220936 C206.23257594 353.6303825 206.23954086 351.43855861 206.24766827 349.24673939 C206.26559649 343.30453951 206.26443179 337.36248733 206.25872588 331.42026854 C206.25563336 326.45511307 206.26172726 321.48998595 206.26776463 316.52483451 C206.28260974 304.13938576 206.27899734 291.7540092 206.26690132 279.36856173 C206.25697206 268.6283927 206.26990654 257.88839602 206.29383551 247.14825357 C206.31825721 236.10319147 206.32742757 225.05821346 206.32118279 214.0131253 C206.31781502 207.81899151 206.32021644 201.62500009 206.33743382 195.43088627 C206.35292173 189.60476843 206.34892655 183.77897913 206.33012867 177.95287418 C206.32644786 175.81881745 206.32953638 173.68473628 206.34001446 171.5507021 C206.35326078 168.62903874 206.34164434 165.7084572 206.32402325 162.78683949 C206.33362825 161.94985244 206.34323326 161.11286539 206.35312933 160.2505151 C206.22615512 149.96172309 202.06233232 142.55381421 195.04547405 135.26312733 C188.52651317 129.0191314 180.94449942 126.11618051 171.9478178 125.69672108 C159.6666067 126.1972093 150.65974112 131.6904271 143.16266155 141.25140858 Z M4.1353178 204.50922108 C-2.79123429 211.45764289 -9.21778061 218.55631037 -14.98284626 226.4955492 C-16.17951641 228.1374237 -17.40576927 229.75338896 -18.6381197 231.36859608 C-54.48962384 279.06219635 -69.33228079 342.32548488 -61.1771822 401.13422108 C-54.72068905 441.89204347 -39.28035607 482.66192056 -12.51409626 514.53705311 C-11.1924893 516.11593418 -9.89801563 517.71397718 -8.6068697 519.31781483 C2.20334353 532.59875963 14.32032376 544.68039814 28.10602093 554.85297108 C29.81219967 556.12629673 31.48249146 557.43697828 33.1509428 558.75922108 C49.82462911 571.75743562 69.03944517 581.78907371 88.8228178 589.13422108 C89.60946819 589.43376698 90.39611858 589.73331287 91.20660686 590.04193592 C141.78705929 609.06788967 197.95014692 608.75302705 248.8228178 591.13422108 C249.47411663 590.91153553 250.12541546 590.68884998 250.79645061 590.45941639 C261.25653474 586.84352188 271.05098458 582.31063929 280.8228178 577.13422108 C281.53695843 576.76313221 282.25109905 576.39204334 282.9868803 576.00970936 C311.2755334 561.25937589 337.62211448 539.72389082 356.8228178 514.13422108 C357.29074749 513.52626698 357.75867718 512.91831287 358.24078655 512.29193592 C395.89283236 463.22335355 412.81973561 401.07321922 405.23126507 339.67767811 C398.6991953 291.62108488 378.63384667 246.29827757 345.3462553 210.84515858 C343.24862697 208.59166931 341.2422267 206.30081944 339.2603178 203.94672108 C333.00382397 196.7775152 325.55247882 190.81887998 318.1978178 184.82172108 C317.28419476 184.06616932 317.28419476 184.06616932 316.35211468 183.29535389 C307.40495452 176.10206777 299.31890914 173.29075785 287.8228178 174.13422108 C279.75102204 175.66061835 273.04505653 179.96919155 268.0103178 186.44672108 C263.31450472 193.69667574 261.61343539 201.57640074 262.8228178 210.13422108 C266.1664485 222.00782518 272.85089261 227.67860129 282.2056303 235.02875233 C291.89590865 242.82436431 300.76360605 251.33311436 308.2603178 261.25922108 C309.10662762 262.37671741 309.10662762 262.37671741 309.9700346 263.51678944 C324.56044088 283.01455483 334.60425649 304.82417924 340.6353178 328.38422108 C340.83020794 329.13864491 341.02509808 329.89306873 341.22589397 330.67035389 C344.26583269 343.24811708 345.20638582 355.91440555 345.1353178 368.82172108 C345.13258358 369.86312748 345.13258358 369.86312748 345.12979412 370.9255724 C345.0787489 382.53744599 344.31802215 393.77072646 341.8228178 405.13422108 C341.65652874 405.90943104 341.49023968 406.684641 341.31891155 407.48334217 C331.44281654 452.08122678 304.18036945 490.77602282 265.99859905 515.67328358 C244.82651179 529.0063474 221.46872768 537.16753208 196.8228178 541.13422108 C195.05357952 541.42232655 195.05357952 541.42232655 193.24859905 541.71625233 C147.34117027 547.07240271 100.85655243 534.43552104 64.4478178 506.04828358 C59.71087863 502.27691344 55.19704869 498.32087774 50.8228178 494.13422108 C50.04035686 493.4149242 49.25789593 492.69562733 48.45172405 491.95453358 C21.42345597 466.26686759 5.6778972 430.50391174 -0.1771822 394.13422108 C-0.37054157 392.94957264 -0.56390095 391.7649242 -0.7631197 390.54437733 C-1.5448596 383.86488089 -1.42164998 377.10108187 -1.4271822 370.38422108 C-1.42785694 369.64879078 -1.42853168 368.91336048 -1.42922688 368.15564442 C-1.41191649 356.25677456 -0.75242508 344.77857719 1.8228178 333.13422108 C1.98910686 332.36046131 2.15539593 331.58670155 2.32672405 330.78949451 C9.44583624 298.63483778 25.46840327 271.10740356 47.8228178 247.13422108 C48.50859905 246.3942992 49.1943803 245.65437733 49.9009428 244.89203358 C54.30094044 240.31277678 58.97074058 236.40735541 64.0103178 232.57172108 C69.17900093 228.61521721 73.52190047 224.84592072 76.8228178 219.13422108 C77.7509428 217.58734608 77.7509428 217.58734608 78.6978178 216.00922108 C81.34098725 209.10849125 80.99794794 200.0560959 78.2603178 193.25922108 C73.9522838 185.12686215 67.37748062 178.20012965 58.4556303 175.38812733 C35.72136365 169.98408034 18.82859029 189.97742897 4.1353178 204.50922108 Z " fill="#67BC44" transform="translate(254.1771821975708,-0.13422107696533203)"/>
</svg>
